<svg version="1.1" id="Capa_1" xmlns="http://www.w3.org/2000/svg" xmlns:xlink="http://www.w3.org/1999/xlink" x="0px" y="0px"
	 viewBox="-14 29.652 400.001 373.725" style="enable-background:new -14 29.652 400.001 373.725;" xml:space="preserve">
<path d="M186,403.377c-3.765,0-7.359-1.569-9.921-4.328L16.214,226.744c-0.041-0.044-0.082-0.089-0.122-0.133
	C-3.314,205.125-14,176.651-14,146.433c0-30.219,10.686-58.692,30.092-80.177l2.429-2.689
	c19.753-21.869,46.127-33.914,74.264-33.914s54.512,12.045,74.266,33.915L186,84.548l18.948-20.979
	c19.753-21.87,46.127-33.915,74.265-33.915s54.512,12.045,74.266,33.916l2.426,2.683c19.409,21.49,30.095,49.963,30.095,80.182
	s-10.687,58.692-30.092,80.177c-0.04,0.047-0.081,0.091-0.122,0.135L195.921,399.051C193.359,401.807,189.765,403.377,186,403.377z
	 M36.118,208.404L186,369.947l149.882-161.543c30.837-34.213,30.818-89.822-0.06-124.009l-2.424-2.683
	c-14.56-16.121-33.803-24.997-54.184-24.997c-20.383,0-39.626,8.876-54.181,24.991l-28.989,32.099
	c-2.565,2.841-6.214,4.461-10.041,4.461c-3.827,0-7.476-1.621-10.042-4.461L146.97,81.708
	c-14.556-16.116-33.798-24.993-54.181-24.993s-39.626,8.875-54.181,24.991l-2.429,2.689C5.3,118.583,5.28,174.193,36.118,208.404z"
	/>
</svg>
