<?xml version="1.0" encoding="iso-8859-1"?>
<!-- Generator: Adobe Illustrator 18.1.0, SVG Export Plug-In . SVG Version: 6.00 Build 0)  -->
<!DOCTYPE svg PUBLIC "-//W3C//DTD SVG 1.1//EN" "http://www.w3.org/Graphics/SVG/1.1/DTD/svg11.dtd">
<svg version="1.1" id="Layer_1" xmlns="http://www.w3.org/2000/svg" xmlns:xlink="http://www.w3.org/1999/xlink" x="0px" y="0px"
	 viewBox="357.985 85.893 384.108 344.825" style="enable-background:new 357.985 85.893 384.108 344.825;" xml:space="preserve">
<path d="M739.853,131.974c-3.413-9.387-10.24-17.067-19.2-20.907c0,0-33.28-14.08-49.493,17.493l-37.973,79.787
	c-5.973-11.093-17.067-15.36-17.067-15.36c-8.96-4.267-19.2-4.693-28.16-1.28h-0.427c0-23.467-21.76-32-21.76-32
	c-12.8-5.973-27.733-4.267-38.827,4.693h-0.427c-5.12-13.653-19.2-20.053-19.2-20.053c-18.773-9.387-40.96-1.28-49.92,17.493
	l-17.067,35.413l-0.427-70.827c0-22.187-18.347-40.533-40.533-40.533h-1.28c-21.76,0.853-40.107,19.2-40.107,41.387v173.653
	c0,0,0,43.52,43.093,61.44l0,0l132.693,61.44c36.693,17.493,81.493,0.427,98.56-36.267l60.16-128.853l0,0l45.653-98.133
	C742.84,151.174,743.267,141.361,739.853,131.974C736.44,122.587,743.267,141.361,739.853,131.974z M609.72,207.494
	c10.667,5.12,15.787,17.92,10.667,29.013l-35.84,77.653c-10.667,20.053-29.44,10.667-29.44,10.667
	c-10.667-5.12-15.787-18.347-10.667-29.013l36.267-77.653C590.947,198.534,609.72,207.494,609.72,207.494z M559.8,174.214
	c10.667,5.12,15.787,17.92,10.667,29.013l-53.76,115.2c-10.667,19.2-29.44,10.24-29.44,10.24
	c-10.667-5.12-15.787-17.92-10.667-29.013l53.76-115.2C540.6,164.401,559.8,174.214,559.8,174.214z M471.48,169.094
	c9.813-20.907,29.44-10.667,29.44-10.667c11.093,5.12,15.787,17.92,10.667,29.013l-6.827,14.507l-32,68.267
	c-9.813,20.48-29.44,10.24-29.44,10.24c-11.093-5.12-15.787-18.347-10.667-29.013L471.48,169.094z M724.92,153.734l-106.667,227.84
	l0,0c-13.653,29.013-49.067,42.24-78.507,28.587L407.48,348.294c-17.493-9.387-30.72-25.173-33.28-45.227l0,0l-0.853-175.787
	c0-13.653,11.093-25.173,25.173-25.6h1.28c13.653,0,25.6,11.52,25.6,25.173l0.427,104.107l-6.4,13.653
	c-8.533,18.347-0.427,40.533,17.92,49.493c0,0,12.373,5.12,23.893,2.56c0,0-6.4,27.733,18.773,43.52
	c0,0,32.427,16.213,50.347-15.787l1.28-2.133c0,0,8.96,12.8,17.067,15.36c0,0,34.56,13.227,50.347-17.493l86.613-184.747
	c5.12-10.667,17.92-15.36,29.013-10.24C715.533,125.574,732.6,134.107,724.92,153.734z"/>
</svg>
