<?xml version="1.0" encoding="iso-8859-1"?>
<!-- Generator: Adobe Illustrator 18.1.0, SVG Export Plug-In . SVG Version: 6.00 Build 0)  -->
<!DOCTYPE svg PUBLIC "-//W3C//DTD SVG 1.1//EN" "http://www.w3.org/Graphics/SVG/1.1/DTD/svg11.dtd">
<svg version="1.1" id="Capa_1" xmlns="http://www.w3.org/2000/svg" xmlns:xlink="http://www.w3.org/1999/xlink" x="0px" y="0px"
	 viewBox="200 112.878 400 287.122" style="enable-background:new 200 112.878 400 287.122;" xml:space="preserve">
<path d="M594.718,124.021c-5.215-7.109-13.435-11.144-21.99-11.143c-2.212,0-4.447,0.27-6.658,0.827l-345.452,86.959
	c-10.691,2.69-18.708,11.552-20.324,22.456c-1.612,10.904,3.497,21.708,12.949,27.378l73.05,43.83v96.146
	c0,3.639,2.074,6.96,5.342,8.558c3.269,1.598,7.164,1.194,10.035-1.041l68.515-53.327l56.285,33.77
	c4.391,2.635,9.229,3.891,14.007,3.891c9.164,0,18.105-4.618,23.253-12.985l132.223-214.895
	C601.769,144.996,601.28,132.967,594.718,124.021z M438.844,348.253l-85.648-51.39l86.891-74.875
	c1.217-1.049,1.502-2.82,0.676-4.197c-0.825-1.377-2.522-1.96-4.019-1.381l-132.352,51.172l-64.284-38.572l321.975-81.049
	L438.844,348.253z"/>
</svg>
