<?xml version="1.0" encoding="iso-8859-1"?>
<!-- Generator: Adobe Illustrator 18.1.0, SVG Export Plug-In . SVG Version: 6.00 Build 0)  -->
<!DOCTYPE svg PUBLIC "-//W3C//DTD SVG 1.1//EN" "http://www.w3.org/Graphics/SVG/1.1/DTD/svg11.dtd">
<svg version="1.1" id="Capa_1" xmlns="http://www.w3.org/2000/svg" xmlns:xlink="http://www.w3.org/1999/xlink" x="0px" y="0px"
	 viewBox="200.001 27.111 399.999 372.89" style="enable-background:new 200.001 27.111 399.999 372.89;" xml:space="preserve">
<path d="M296.216,27.168c-1.198-0.038-2.409-0.057-3.596-0.057c-24.387,0-45.884,7.872-62.168,22.766
	c-16.994,15.545-27.494,38.216-30.364,65.561l-0.088,0.84l0.026,0.843c2.053,65.028,7.175,176.813,11.452,217.566
	c2.111,20.11,9.889,36.834,22.494,48.364C246.094,394.139,262.049,400,280.107,400c0.876,0,1.758-0.014,2.642-0.042
	c18.438-0.582,35.051-8.102,46.78-21.176c11.952-13.322,18.269-31.407,18.269-52.298c0-72.443,11.365-102.937,21.393-129.843
	c7.505-20.136,14.593-39.154,14.593-70.426c0-28.433-8.542-52.926-24.704-70.833C343.37,37.972,321.043,27.953,296.216,27.168z
	 M292.62,51.851c0.935,0,1.871,0.015,2.815,0.045c38.641,1.22,63.61,30.392,63.61,74.319c0,19.638-3.088,33.171-7.601,46.686
	l-43.249-40.569v-27.629h-24.74v27.629L227.34,184.97c-1.01-23.483-1.893-46.792-2.56-67.766
	C229.378,76.263,254.687,51.851,292.62,51.851z M323.059,326.484c0,28.824-16.129,47.959-41.089,48.746
	c-0.623,0.02-1.245,0.03-1.861,0.03c-25.099,0-41.146-15.73-44.024-43.156c-2.262-21.552-4.951-66.279-7.264-114.6l67.007-62.856
	l46.432,43.554C332.921,224.223,323.059,258.785,323.059,326.484z M599.912,115.44c-2.87-27.347-13.37-50.017-30.364-65.561
	c-16.284-14.894-37.78-22.766-62.168-22.766c-1.188,0-2.398,0.019-3.596,0.057c-24.826,0.784-47.152,10.804-62.864,28.213
	c-16.163,17.907-24.704,42.401-24.704,70.833c0,31.272,7.089,50.291,14.593,70.426c10.028,26.905,21.393,57.4,21.393,129.843
	c0,20.891,6.317,38.976,18.269,52.298c11.728,13.073,28.341,20.593,46.78,21.176c0.884,0.028,1.767,0.042,2.641,0.042
	c18.06,0,34.014-5.861,46.135-16.948c12.605-11.53,20.384-28.254,22.494-48.365c4.277-40.753,9.399-152.538,11.452-217.566
	l0.026-0.843L599.912,115.44z M504.565,51.896c0.945-0.03,1.88-0.045,2.815-0.045c37.933,0,63.242,24.412,67.839,65.354
	c-0.666,20.974-1.549,44.283-2.56,67.766l-56.116-52.639v-27.629h-24.74v27.629l-43.249,40.569
	c-4.513-13.515-7.601-27.048-7.601-46.686C440.956,82.288,465.924,53.116,504.565,51.896z M563.917,332.104
	c-2.879,27.427-18.925,43.157-44.024,43.156c-0.616,0-1.239-0.01-1.861-0.03c-24.962-0.788-41.089-19.922-41.089-48.746
	c0-67.7-9.862-102.26-19.199-128.281l46.432-43.554l67.007,62.856C568.869,265.826,566.18,310.552,563.917,332.104z"/>
</svg>
