<?xml version="1.0" encoding="iso-8859-1"?>
<!-- Generator: Adobe Illustrator 18.1.0, SVG Export Plug-In . SVG Version: 6.00 Build 0)  -->
<!DOCTYPE svg PUBLIC "-//W3C//DTD SVG 1.1//EN" "http://www.w3.org/Graphics/SVG/1.1/DTD/svg11.dtd">
<svg version="1.1" id="Capa_1" xmlns="http://www.w3.org/2000/svg" xmlns:xlink="http://www.w3.org/1999/xlink" x="0px" y="0px"
	 viewBox="191.386 32.109 395.224 358.341" style="enable-background:new 191.386 32.109 395.224 358.341;" xml:space="preserve">
<path d="M443.152,390.45h-79.717c-2.222,0-4.318-1.034-5.67-2.798c-1.351-1.765-1.806-4.057-1.227-6.204
	c0.091-0.339,9.202-35.046,5.608-81.285c-4.427-56.943-25.14-105.504-61.614-144.545c-4.426,39.039,19.675,94.095,20.094,95.034
	c0.09,0.197,0.171,0.398,0.243,0.602v-0.001v0.001c0.584,1.656,0.546,3.49-0.138,5.131c-0.823,1.975-2.488,3.477-4.537,4.094
	c-0.842,0.252-1.697,0.34-2.532,0.286c-11.842-0.115-22.164-4.595-30.687-13.32c-20.56-21.049-25.352-62.46-26.422-84.068
	c-25.72,26.09-11.634,87.927-11.472,88.618c0.615,2.628-0.302,5.377-2.372,7.109c-2.07,1.731-4.94,2.148-7.416,1.078
	c-23.726-10.256-38.008-25.651-42.45-45.76c-9.389-42.51,29.365-91.508,38.242-102.035c1.35-28.828,10.56-50.309,27.396-63.87
	c13.518-10.889,31.62-16.41,53.8-16.41c30.638,0,58.33,10.555,59.494,11.005c3.21,1.239,5.079,4.59,4.45,7.972
	c-0.63,3.382-3.582,5.834-7.022,5.834c-20.958,0-44.57,12.718-61.282,23.903c8.509-0.883,16.66-1.327,24.403-1.327
	c76.979,0,92.861,43.013,93.5,44.844c0.856,2.457,0.31,5.185-1.429,7.122c-1.737,1.937-4.394,2.774-6.925,2.189l-49.876-11.532
	c-9.474-2.145-18.118-3.236-25.659-3.236c-10.597,0-19.009,2.05-25.455,6.237c30.448,17.85,68.048,54.761,94.535,131.033
	c20.73-47.957,46.946-73.1,68.522-86.278c-4.881-2.64-11.046-3.936-18.621-3.936c-6.139,0-13.194,0.891-20.971,2.65l-41.201,9.536
	c-2.535,0.588-5.188-0.251-6.926-2.187c-1.738-1.936-2.286-4.664-1.43-7.121c0.538-1.548,13.942-37.917,78.478-37.917
	c4.902,0,10.002,0.214,15.277,0.639c-13.255-8.37-30.435-16.82-45.774-16.82c-3.44,0-6.391-2.452-7.022-5.834
	s1.24-6.732,4.449-7.972c0.971-0.375,24.071-9.183,49.636-9.183c41.951,0,66.135,23.809,68.33,67.123
	c7.908,9.444,39.412,49.826,31.621,85.091c-3.762,17.034-15.814,30.052-35.822,38.693c-2.478,1.07-5.347,0.654-7.416-1.079
	c-2.07-1.733-2.987-4.484-2.37-7.111c0.127-0.54,10.848-47.801-7.191-69.929c-1.188,18.643-5.657,50.563-22.014,67.311
	c-7.272,7.447-16.084,11.278-26.194,11.391c-2.369,0.156-4.68-0.88-6.137-2.781c-1.358-1.77-1.797-4.068-1.23-6.194
	c0.093-0.351,0.214-0.698,0.363-1.037c0.032-0.074,0.067-0.149,0.102-0.222c0.315-0.708,18.916-43.476,16.707-75.027
	c-28.763,31.689-45.135,70.851-48.713,116.612c-2.974,38.037,4.509,66.602,4.585,66.886c0.573,2.145,0.117,4.437-1.234,6.198
	C447.465,389.415,445.372,390.45,443.152,390.45z M372.338,376.165H434.3c-2.207-11.869-5.221-34.482-3.116-62.174
	c2.826-37.187,15.856-90.766,61.807-135.332c-22.857,11.972-53.788,39.207-75.928,101.118c-1.041,2.91-3.852,4.822-6.922,4.735
	c-3.088-0.085-5.772-2.145-6.651-5.106c-27.615-92.949-70.959-130.912-102.457-146.391c-1.965-0.966-3.378-2.778-3.835-4.92
	c-0.456-2.141,0.093-4.372,1.492-6.056c9.619-11.574,24.17-17.443,43.246-17.443c8.6,0,18.306,1.21,28.846,3.596l31.486,7.28
	c-1.346-1.27-2.853-2.568-4.54-3.862c-15.185-11.664-37.801-17.83-65.403-17.83c-15.005,0-31.743,1.79-49.75,5.319
	c-3.16,0.621-6.345-0.952-7.774-3.839c-1.43-2.886-0.751-6.371,1.657-8.511c1.538-1.367,29.606-26.046,61.657-37.883
	c-7.876-1.422-16.764-2.473-25.833-2.473c-43.079,0-65.627,23.209-67.016,68.982c-0.051,1.677-0.691,3.284-1.808,4.536
	c-0.453,0.51-45.466,51.688-36.661,91.453c2.596,11.725,9.906,21.498,21.785,29.171c-3.52-26.076-5.56-79.07,31.721-97.185
	c2.24-1.09,4.886-0.931,6.982,0.414c2.096,1.347,3.339,3.688,3.281,6.177c-0.014,0.627-1.152,63.194,22.639,87.531
	c2.899,2.966,6.018,5.186,9.405,6.681c-8.561-22.768-24.011-71.81-13.084-105.2c0.764-2.335,2.675-4.114,5.059-4.709
	c2.384-0.594,4.907,0.077,6.678,1.78c24.709,23.739,43.722,51.63,56.512,82.901c10.21,24.964,16.488,52.102,18.655,80.66
	C379.07,334.377,375.005,362.477,372.338,376.165z M498.652,175.976c0.576,0,1.158,0.07,1.73,0.213
	c2.385,0.595,4.295,2.375,5.059,4.71c8.679,26.557-2.439,64.661-9.712,84.725c1.617-1.019,3.155-2.278,4.622-3.779
	c16.048-16.431,18.685-57.147,18.348-71.449c-0.059-2.49,1.184-4.831,3.28-6.178c2.095-1.346,4.741-1.506,6.982-0.416
	c30.282,14.711,29.913,56.34,27.226,78.948c8.289-5.891,13.313-13.126,15.25-21.89c7.141-32.328-29.667-74.07-30.04-74.489
	c-1.117-1.253-1.758-2.859-1.809-4.538c-1.137-37.562-18.851-55.821-54.152-55.821c-5.774,0-11.46,0.521-16.738,1.301
	c24.95,10.345,45.953,28.812,47.166,29.89c2.408,2.139,3.087,5.625,1.657,8.511c-1.43,2.886-4.611,4.459-7.774,3.839
	c-14.803-2.9-28.556-4.37-40.877-4.37c-27.658,0-43.952,7.22-53.314,14.385l21.208-4.909c8.844-2,16.961-3.01,24.157-3.01
	c16.15,0,28.494,5.007,36.69,14.881c1.397,1.684,1.946,3.914,1.489,6.053c-0.29,1.358-0.966,2.584-1.922,3.546
	C497.659,176.029,498.154,175.976,498.652,175.976z"/>
</svg>
