<?xml version="1.0" encoding="iso-8859-1"?>
<!-- Generator: Adobe Illustrator 18.1.0, SVG Export Plug-In . SVG Version: 6.00 Build 0)  -->
<!DOCTYPE svg PUBLIC "-//W3C//DTD SVG 1.1//EN" "http://www.w3.org/Graphics/SVG/1.1/DTD/svg11.dtd">
<svg version="1.1" id="Layer_1" xmlns="http://www.w3.org/2000/svg" xmlns:xlink="http://www.w3.org/1999/xlink" x="0px" y="0px"
	 viewBox="256.373 128.68 398.423 332.495" style="enable-background:new 256.373 128.68 398.423 332.495;" xml:space="preserve">
<path d="M433.965,370.421c0.385,3.023-1.743,5.796-4.773,6.187c-4.011,0.524-7.821,0.781-11.44,0.781
	c-13.215,0-23.735-3.463-31.39-10.356c-12.429-11.185-12.185-27.118-12.171-27.789c0.072-3.006,2.53-5.394,5.516-5.394
	c0.042,0,0.091,0,0.133,0.006c3.042,0.072,5.444,2.59,5.389,5.627c0,0.238-0.011,11.745,8.613,19.432
	c7.248,6.45,18.671,8.722,33.931,6.741C430.771,365.271,433.563,367.393,433.965,370.421z M654.795,314.918
	c0,30.531-16.427,54.45-37.383,54.45c-4.419,0-8.728-1.086-12.789-3.206c-27.465,58.021-85.45,95.013-150.217,95.013
	c-82.829,0-152.436-60.476-164.425-141.678c-19.2-3.51-33.61-27.257-33.61-56.941c0-32.177,16.939-57.387,38.558-57.375
	c5.76,0,11.276,1.792,16.316,5.248c29.886-50.657,83.901-81.749,143.158-81.749c114.981,0,153.99,90.484,162.646,131.798
	c0.122-0.006,0.238-0.006,0.36-0.006C638.375,260.471,654.795,284.387,654.795,314.918z M640.051,314.932
	c0-21.528-10.368-39.71-22.644-39.71c-1.28,0-2.609,0.225-3.943,0.67l-8.192,2.724l-1.402-8.522
	c-6.846-41.503-29.916-76.562-62.141-99.206c16.848,17.95,30.305,44.202,51.402,85.657c-51.23-46.141-197.43-63.994-245.912-68.743
	c-10.844,10.88-20.145,23.528-27.459,37.674l-5.01,9.697l-7.12-8.27c-2.743-3.189-7.168-6.985-12.697-6.985
	c-12.91,0-23.821,19.53-23.821,42.648c0,23.12,10.91,42.648,23.821,42.648l0.97-0.103l7.143-0.59l0.781,7.131
	c8.436,76.842,73.168,134.79,150.577,134.79c61.872,0,116.962-37.04,140.331-94.366l4.145-10.16l7.832,7.68
	c3.425,3.352,7.021,5.048,10.697,5.048C629.683,354.642,640.051,336.459,640.051,314.932z M452.056,260.116
	c0,0-92.861,8.229-115.2-15.28C346.26,282.456,416.79,358.859,452.056,260.116z M452.056,260.726
	c35.267,98.743,105.794,22.333,115.2-15.288C544.917,268.949,452.056,260.726,452.056,260.726z"/>
</svg>
