<?xml version="1.0" encoding="iso-8859-1"?>
<!-- Generator: Adobe Illustrator 18.1.0, SVG Export Plug-In . SVG Version: 6.00 Build 0)  -->
<!DOCTYPE svg PUBLIC "-//W3C//DTD SVG 1.1//EN" "http://www.w3.org/Graphics/SVG/1.1/DTD/svg11.dtd">
<svg version="1.1" id="Capa_1" xmlns="http://www.w3.org/2000/svg" xmlns:xlink="http://www.w3.org/1999/xlink" x="0px" y="0px"
	 viewBox="226.462 -0.001 347.075 400.002" style="enable-background:new 226.462 -0.001 347.075 400.002;" xml:space="preserve">
<path d="M385.649,310.626c40.273,0,78.147-15.694,106.642-44.191c58.773-58.773,58.835-154.341,0.14-213.036
	c-28.407-28.408-66.19-44.052-106.392-44.052c-40.275,0-78.148,15.693-106.646,44.19c-28.467,28.467-44.16,66.303-44.187,106.537
	c-0.027,40.241,15.618,78.062,44.054,106.498C307.667,294.98,345.452,310.626,385.649,310.626z M301.1,205.907
	c1.215-2.881,2.566-5.801,4.028-8.747l43.569,43.569c-15.395,7.628-28.602,11.259-38.143,11.259c-5.868,0-10.167-1.323-12.776-3.933
	C291.507,241.786,292.779,225.634,301.1,205.907z M289.134,81.795l38.787,38.788c-10.428,11.227-19.817,22.815-27.923,34.409
	l-32.742-32.742C271.919,107.6,279.295,93.91,289.134,81.795z M348.107,41.398l32.691,32.691
	c-11.469,8.044-23.033,17.426-34.365,27.97l-38.782-38.782C319.767,53.437,333.457,46.061,348.107,41.398z M473.915,71.919
	c6.855,6.853,4.863,25.988-7.42,50.83l-43.504-43.505c15.398-7.628,28.606-11.259,38.145-11.259
	C467.007,67.985,471.303,69.308,473.915,71.919z M452.852,146.143c-7.436,11.104-16.617,22.819-27.613,34.722l-60.276-60.275
	c11.917-11.028,23.605-20.214,34.679-27.658L452.852,146.143z M482.545,238.17l-38.78-38.78
	c10.427-11.227,19.817-22.816,27.923-34.412l32.661,32.661C499.767,212.088,492.514,225.865,482.545,238.17z M423.582,278.575
	l-32.692-32.691c11.471-8.043,23.033-17.428,34.364-27.972l38.783,38.784C451.922,266.535,438.23,273.912,423.582,278.575z
	 M346.443,139.104l60.28,60.279c-11.915,11.029-23.603,20.213-34.676,27.657l-53.232-53.231
	C326.608,162.215,335.916,150.496,346.443,139.104z M335.804,274.078c10.236-3.051,21.117-7.752,32.321-13.923l24.109,24.108
	c-2.186,0.113-4.38,0.175-6.585,0.175C368.204,284.439,351.313,280.865,335.804,274.078z M510.058,166.311l-24.116-24.116
	c3.343-6.069,6.296-12.074,8.777-17.952c2.062-4.89,3.779-9.632,5.154-14.213C507.641,127.876,511.053,147.178,510.058,166.311z
	 M435.885,45.894c-10.236,3.051-21.118,7.751-32.322,13.925l-24.109-24.11c2.184-0.112,4.378-0.174,6.585-0.174
	C403.484,35.534,420.377,39.106,435.885,45.894z M261.566,153.595l24.18,24.183c-3.341,6.069-6.296,12.073-8.776,17.953
	c-2.085,4.94-3.813,9.731-5.193,14.354c-6.816-15.552-10.396-32.494-10.385-49.993C261.394,157.916,261.454,155.752,261.566,153.595
	z M498.393,43.957c62.959,62.959,64.687,167.153,1.63,230.21c-30.547,30.549-71.143,47.39-114.311,47.421c-0.04,0-0.078,0-0.117,0
	c-43.117-0.003-85.76-18.494-116.229-48.963c-5.142-4.144-12.686-3.833-17.463,0.941l-21.605,21.604
	c-5.114,5.114-5.114,13.405,0,18.518c2.558,2.556,5.908,3.836,9.259,3.836s6.702-1.278,9.259-3.836l12.758-12.758
	c32.284,28.532,72.835,44.867,116.016,46.665v26.217h-44.554c-7.231,0-13.094,5.863-13.094,13.095
	c0,7.231,5.863,13.094,13.094,13.094h115.298c7.23,0,13.094-5.861,13.094-13.094c0-7.231-5.864-13.095-13.094-13.095h-44.556
	v-26.909c43.344-4.137,83.566-23.024,114.762-54.221c70.739-70.739,73.246-184.233,7.477-257.834l12.497-12.496
	c5.114-5.114,5.114-13.405,0-18.519c-5.115-5.112-13.403-5.112-18.519,0L498.393,25.44C493.28,30.552,493.28,38.843,498.393,43.957z
	"/>
</svg>
