<svg xmlns="http://www.w3.org/2000/svg" xmlns:xlink="http://www.w3.org/1999/xlink" preserveAspectRatio="xMidYMid" width="16.719" height="16.688" viewBox="0 0 16.719 16.688">
  <path fill="#00143b" d="M11.566,7.057 C11.566,9.537 9.548,11.555 7.068,11.555 C4.588,11.555 2.570,9.537 2.570,7.057 C2.570,4.577 4.588,2.559 7.068,2.559 C9.548,2.559 11.566,4.577 11.566,7.057 ZM16.707,15.410 C16.707,15.069 16.566,14.737 16.336,14.507 L12.892,11.063 C13.705,9.888 14.137,8.482 14.137,7.057 C14.137,3.151 10.974,-0.012 7.068,-0.012 C3.163,-0.012 -0.000,3.151 -0.000,7.057 C-0.000,10.962 3.163,14.125 7.068,14.125 C8.494,14.125 9.900,13.693 11.074,12.880 L14.518,16.314 C14.749,16.555 15.081,16.695 15.422,16.695 C16.125,16.695 16.707,16.113 16.707,15.410 Z"/>
</svg>
