<svg xmlns="http://www.w3.org/2000/svg" xmlns:xlink="http://www.w3.org/1999/xlink" preserveAspectRatio="xMidYMid" width="12.844" height="12.84" viewBox="0 0 12.844 12.84">
  <defs>
    <style>
      .cls-1 {
        fill: #00143b;
        fill-rule: evenodd;
      }
    </style>
  </defs>
  <path d="M11.394,10.859 C11.394,11.143 11.168,11.370 10.883,11.370 L1.928,11.370 C1.643,11.370 1.417,11.143 1.417,10.859 L1.417,5.430 L2.598,5.430 C2.489,5.774 2.431,6.151 2.431,6.528 C2.431,8.672 4.223,10.406 6.426,10.406 C8.638,10.406 10.431,8.672 10.431,6.528 C10.431,6.151 10.372,5.774 10.263,5.430 L11.394,5.430 L11.394,5.430 L11.394,10.859 ZM9.015,6.394 C9.015,7.776 7.859,8.898 6.426,8.898 C5.002,8.898 3.846,7.776 3.846,6.394 C3.846,5.011 5.002,3.889 6.426,3.889 C7.859,3.889 9.015,5.011 9.015,6.394 ZM11.394,3.378 C11.394,3.696 11.134,3.956 10.816,3.956 L9.358,3.956 C9.040,3.956 8.780,3.696 8.780,3.378 L8.780,1.996 C8.780,1.677 9.040,1.418 9.358,1.418 L9.358,1.418 L10.816,1.418 C11.134,1.418 11.394,1.677 11.394,1.996 L11.394,3.378 ZM12.852,1.635 C12.852,0.731 12.106,-0.015 11.201,-0.015 L1.635,-0.015 L1.635,-0.015 C0.730,-0.015 -0.016,0.731 -0.016,1.635 L-0.016,11.202 C-0.016,12.107 0.730,12.852 1.635,12.852 L11.201,12.852 C12.106,12.852 12.852,12.107 12.852,11.202 L12.852,1.635 Z" class="cls-1"/>
</svg>
