<svg xmlns="http://www.w3.org/2000/svg" xmlns:xlink="http://www.w3.org/1999/xlink" preserveAspectRatio="xMidYMid" width="21.18" height="21.188" viewBox="0 0 21.18 21.188">
  <defs>
    <style>
      .cls-1 {
        fill: #cdd1d8;
        fill-rule: evenodd;
      }
    </style>
  </defs>
  <path d="M21.192,17.055 C21.192,16.608 21.013,16.162 20.692,15.841 L15.443,10.592 L20.692,5.343 C21.013,5.022 21.192,4.575 21.192,4.129 C21.192,3.683 21.013,3.236 20.692,2.915 L18.264,0.487 C17.943,0.166 17.496,-0.013 17.050,-0.013 C16.604,-0.013 16.157,0.166 15.836,0.487 L10.587,5.736 L5.339,0.487 C5.017,0.166 4.571,-0.013 4.125,-0.013 C3.678,-0.013 3.232,0.166 2.911,0.487 L0.483,2.915 C0.161,3.236 -0.017,3.683 -0.017,4.129 C-0.017,4.575 0.161,5.022 0.483,5.343 L5.731,10.592 L0.483,15.841 C0.161,16.162 -0.017,16.608 -0.017,17.055 C-0.017,17.501 0.161,17.947 0.483,18.268 L2.911,20.696 C3.232,21.018 3.678,21.196 4.125,21.196 C4.571,21.196 5.017,21.018 5.339,20.696 L10.587,15.448 L15.836,20.696 C16.157,21.018 16.604,21.196 17.050,21.196 C17.496,21.196 17.943,21.018 18.264,20.696 L20.692,18.268 C21.013,17.947 21.192,17.501 21.192,17.055 Z" class="cls-1"/>
</svg>
