<svg xmlns="http://www.w3.org/2000/svg" xmlns:xlink="http://www.w3.org/1999/xlink" preserveAspectRatio="xMidYMid" width="27.44" height="27.5" viewBox="0 0 27.44 27.5">
  <defs>
    <style>
      .cls-1 {
        fill: #d03e2a;
        fill-rule: evenodd;
      }
    </style>
  </defs>
  <path d="M23.429,13.740 C23.429,19.131 19.073,23.505 13.717,23.505 C11.771,23.505 9.950,22.916 8.415,21.916 L21.876,8.473 C22.857,9.991 23.429,11.794 23.429,13.740 ZM5.594,19.078 C4.594,17.542 4.005,15.721 4.005,13.740 C4.005,8.366 8.361,3.992 13.717,3.992 C15.698,3.992 17.537,4.581 19.073,5.617 L5.594,19.078 ZM27.428,13.740 C27.428,6.152 21.286,-0.007 13.717,-0.007 C6.147,-0.007 0.006,6.152 0.006,13.740 C0.006,21.345 6.147,27.504 13.717,27.504 C21.286,27.504 27.428,21.345 27.428,13.740 Z" class="cls-1"/>
</svg>
