<svg xmlns="http://www.w3.org/2000/svg" preserveAspectRatio="xMidYMid meet">
	<defs>
		<symbol id="logo" viewBox=""></symbol>
		<symbol id="icon-search" viewBox="0 0 16.719 16.688">
			<path d="M11.566,7.057 C11.566,9.537 9.548,11.555 7.068,11.555 C4.588,11.555 2.570,9.537 2.570,7.057 C2.570,4.577 4.588,2.559 7.068,2.559 C9.548,2.559 11.566,4.577 11.566,7.057 ZM16.707,15.410 C16.707,15.069 16.566,14.737 16.336,14.507 L12.892,11.063 C13.705,9.888 14.137,8.482 14.137,7.057 C14.137,3.151 10.974,-0.012 7.068,-0.012 C3.163,-0.012 -0.000,3.151 -0.000,7.057 C-0.000,10.962 3.163,14.125 7.068,14.125 C8.494,14.125 9.900,13.693 11.074,12.880 L14.518,16.314 C14.749,16.555 15.081,16.695 15.422,16.695 C16.125,16.695 16.707,16.113 16.707,15.410 Z"/>
		</symbol>
		<symbol id="icon-check" viewBox="0 0 13.82 10.594">
			<path d="M13.826,2.060 C13.826,1.837 13.737,1.614 13.576,1.453 L12.362,0.239 C12.201,0.079 11.978,-0.011 11.755,-0.011 C11.532,-0.011 11.309,0.079 11.148,0.239 L5.292,6.104 L2.668,3.471 C2.507,3.310 2.284,3.221 2.061,3.221 C1.838,3.221 1.615,3.310 1.454,3.471 L0.240,4.685 C0.079,4.845 -0.010,5.069 -0.010,5.292 C-0.010,5.515 0.079,5.738 0.240,5.899 L3.471,9.130 L4.685,10.344 C4.846,10.505 5.069,10.594 5.292,10.594 C5.516,10.594 5.739,10.505 5.899,10.344 L7.113,9.130 L13.576,2.667 C13.737,2.507 13.826,2.284 13.826,2.060 Z"/>
		</symbol>
		<symbol id="icon-facebook" viewBox="0 0 7.25 13.93">
			<path d="M7.253,0.103 C7.026,0.070 6.247,0.003 5.343,0.003 C3.449,0.003 2.151,1.159 2.151,3.278 L2.151,5.104 L0.015,5.104 L0.015,7.584 L2.151,7.584 L2.151,13.942 L4.714,13.942 L4.714,7.584 L6.842,7.584 L7.169,5.104 L4.714,5.104 L4.714,3.521 C4.714,2.809 4.907,2.315 5.937,2.315 L7.253,2.315 L7.253,0.103 Z"/>
		</symbol>
		<symbol id="icon-twitter" viewBox="0 0 13.219 10.72">
			<path d="M13.205,1.271 C12.719,1.480 12.191,1.631 11.647,1.690 C12.208,1.354 12.635,0.827 12.836,0.198 C12.317,0.508 11.731,0.735 11.119,0.852 C10.625,0.324 9.921,-0.003 9.142,-0.003 C7.642,-0.003 6.436,1.212 6.436,2.703 C6.436,2.913 6.461,3.122 6.503,3.323 C4.258,3.206 2.256,2.133 0.924,0.492 C0.690,0.894 0.555,1.354 0.555,1.857 C0.555,2.795 1.033,3.625 1.762,4.110 C1.318,4.094 0.899,3.968 0.539,3.767 C0.539,3.775 0.539,3.792 0.539,3.801 C0.539,5.116 1.469,6.205 2.708,6.456 C2.482,6.515 2.239,6.548 1.996,6.548 C1.820,6.548 1.653,6.531 1.485,6.506 C1.829,7.579 2.826,8.358 4.015,8.383 C3.085,9.112 1.921,9.539 0.656,9.539 C0.430,9.539 0.220,9.530 0.003,9.505 C1.201,10.276 2.625,10.720 4.158,10.720 C9.134,10.720 11.856,6.598 11.856,3.021 C11.856,2.904 11.856,2.787 11.848,2.670 C12.376,2.284 12.836,1.807 13.205,1.271 Z"/>
		</symbol>
		<symbol id="icon-instagram" viewBox="0 0 12.844 12.84">
			<path d="M11.394,10.859 C11.394,11.143 11.168,11.370 10.883,11.370 L1.928,11.370 C1.643,11.370 1.417,11.143 1.417,10.859 L1.417,5.430 L2.598,5.430 C2.489,5.774 2.431,6.151 2.431,6.528 C2.431,8.672 4.223,10.406 6.426,10.406 C8.638,10.406 10.431,8.672 10.431,6.528 C10.431,6.151 10.372,5.774 10.263,5.430 L11.394,5.430 L11.394,5.430 L11.394,10.859 ZM9.015,6.394 C9.015,7.776 7.859,8.898 6.426,8.898 C5.002,8.898 3.846,7.776 3.846,6.394 C3.846,5.011 5.002,3.889 6.426,3.889 C7.859,3.889 9.015,5.011 9.015,6.394 ZM11.394,3.378 C11.394,3.696 11.134,3.956 10.816,3.956 L9.358,3.956 C9.040,3.956 8.780,3.696 8.780,3.378 L8.780,1.996 C8.780,1.677 9.040,1.418 9.358,1.418 L9.358,1.418 L10.816,1.418 C11.134,1.418 11.394,1.677 11.394,1.996 L11.394,3.378 ZM12.852,1.635 C12.852,0.731 12.106,-0.015 11.201,-0.015 L1.635,-0.015 L1.635,-0.015 C0.730,-0.015 -0.016,0.731 -0.016,1.635 L-0.016,11.202 C-0.016,12.107 0.730,12.852 1.635,12.852 L11.201,12.852 C12.106,12.852 12.852,12.107 12.852,11.202 L12.852,1.635 Z"/>
		</symbol>
		<symbol id="icon-pinterest" viewBox="0 0 10.719 13.93">
			<path d="M0.008,5.004 C0.008,6.101 0.444,7.701 1.642,8.062 C1.684,8.070 1.742,8.087 1.784,8.087 C2.060,8.087 2.220,7.316 2.220,7.098 C2.220,6.839 1.558,6.286 1.558,5.205 C1.558,2.960 3.267,1.368 5.478,1.368 C7.380,1.368 8.787,2.449 8.787,4.434 C8.787,5.917 8.192,8.698 6.266,8.698 C5.570,8.698 4.976,8.196 4.976,7.475 C4.976,6.420 5.713,5.398 5.713,4.309 C5.713,3.647 5.336,3.111 4.632,3.111 C3.677,3.111 3.091,4.183 3.091,5.029 C3.091,5.498 3.150,6.018 3.359,6.445 C2.974,8.103 2.186,10.575 2.186,12.284 C2.186,12.811 2.262,13.331 2.312,13.858 L2.387,13.942 L2.505,13.900 C3.912,11.974 3.862,11.597 4.498,9.075 C4.842,9.729 5.730,10.080 6.433,10.080 C9.399,10.080 10.731,7.190 10.731,4.585 C10.731,1.812 8.335,0.003 5.705,0.003 C2.840,0.003 0.008,1.913 0.008,5.004 Z"/>
		</symbol>
		<symbol id="icon-snapchat" viewBox="0 0 14.06 13.13">
			<path d="M14.065,9.202 L13.625,9.172 C12.883,9.114 12.356,8.948 12.043,8.674 C11.340,8.011 10.989,7.503 10.989,7.151 C10.989,7.132 11.037,7.083 11.135,7.004 C11.291,6.907 11.477,6.829 11.692,6.770 C11.731,6.751 11.799,6.726 11.897,6.697 C11.994,6.668 12.063,6.643 12.102,6.624 C12.492,6.448 12.668,6.165 12.629,5.774 C12.610,5.559 12.517,5.374 12.351,5.217 C12.185,5.061 11.985,4.983 11.750,4.983 C11.672,4.983 11.555,5.003 11.399,5.042 C11.321,5.081 11.145,5.129 10.871,5.188 C10.891,5.012 10.920,4.710 10.959,4.280 C11.115,3.147 10.832,2.161 10.110,1.321 C9.348,0.442 8.323,0.002 7.034,0.002 C5.745,0.002 4.719,0.442 3.957,1.321 C3.235,2.161 2.951,3.157 3.108,4.309 C3.147,4.641 3.176,4.934 3.196,5.188 C2.981,5.129 2.815,5.081 2.698,5.042 C2.619,5.003 2.502,4.983 2.346,4.983 C2.112,4.983 1.911,5.061 1.745,5.217 C1.579,5.374 1.486,5.559 1.467,5.774 C1.428,6.184 1.594,6.467 1.965,6.624 C2.004,6.643 2.072,6.668 2.170,6.697 C2.268,6.726 2.336,6.751 2.375,6.770 C2.629,6.848 2.824,6.927 2.961,7.004 C3.039,7.063 3.078,7.112 3.078,7.151 C3.078,7.503 2.727,8.011 2.024,8.674 C1.731,8.967 1.203,9.134 0.442,9.172 L0.002,9.202 L0.002,9.641 C0.002,9.837 0.061,10.032 0.178,10.227 C0.393,10.579 0.764,10.813 1.291,10.930 C1.350,10.930 1.409,10.940 1.467,10.960 C1.526,10.979 1.584,10.999 1.643,11.018 C1.702,11.038 1.740,11.047 1.760,11.047 C1.799,11.067 1.858,11.077 1.936,11.077 L1.936,11.106 C1.975,11.399 2.014,11.575 2.053,11.633 C2.151,11.868 2.365,11.985 2.698,11.985 C2.815,11.985 2.903,11.975 2.961,11.956 C2.981,11.956 3.005,11.951 3.035,11.941 C3.064,11.931 3.088,11.926 3.108,11.926 C3.381,11.887 3.615,11.868 3.811,11.868 C4.084,11.868 4.328,11.926 4.543,12.044 C4.582,12.063 4.650,12.112 4.748,12.190 C4.846,12.268 4.914,12.317 4.953,12.336 C5.676,12.864 6.369,13.128 7.034,13.128 C7.697,13.128 8.391,12.864 9.114,12.336 C9.172,12.297 9.309,12.200 9.524,12.044 C9.739,11.926 9.993,11.868 10.286,11.868 C10.461,11.868 10.686,11.887 10.959,11.926 C10.979,11.926 11.003,11.931 11.033,11.941 C11.062,11.951 11.086,11.956 11.106,11.956 C11.164,11.975 11.252,11.985 11.370,11.985 C11.701,11.985 11.916,11.868 12.014,11.633 C12.053,11.575 12.092,11.399 12.131,11.106 L12.131,11.077 C12.229,11.077 12.297,11.067 12.336,11.047 C12.356,11.047 12.395,11.038 12.453,11.018 C12.512,10.999 12.566,10.979 12.615,10.960 C12.663,10.940 12.717,10.930 12.776,10.930 C13.303,10.813 13.674,10.579 13.889,10.227 C14.006,10.032 14.065,9.827 14.065,9.612 L14.065,9.202 ZM6.096,3.518 C6.096,3.714 6.052,3.880 5.964,4.016 C5.876,4.153 5.764,4.221 5.627,4.221 C5.490,4.221 5.378,4.153 5.290,4.016 C5.203,3.880 5.159,3.714 5.159,3.518 C5.159,3.323 5.203,3.157 5.290,3.020 C5.378,2.884 5.490,2.815 5.627,2.815 C5.764,2.815 5.876,2.884 5.964,3.020 C6.052,3.157 6.096,3.323 6.096,3.518 ZM7.034,5.774 C6.389,5.774 5.842,5.550 5.393,5.100 C5.276,4.983 5.276,4.866 5.393,4.749 C5.510,4.631 5.627,4.631 5.745,4.749 C6.115,5.120 6.545,5.305 7.034,5.305 C7.522,5.305 7.951,5.120 8.323,4.749 C8.440,4.631 8.557,4.631 8.674,4.749 C8.791,4.866 8.791,4.983 8.674,5.100 C8.225,5.550 7.678,5.774 7.034,5.774 ZM7.971,3.518 C7.971,3.323 8.015,3.157 8.103,3.020 C8.191,2.884 8.303,2.815 8.440,2.815 C8.576,2.815 8.689,2.884 8.777,3.020 C8.865,3.157 8.909,3.323 8.909,3.518 C8.909,3.714 8.865,3.880 8.777,4.016 C8.689,4.153 8.576,4.221 8.440,4.221 C8.303,4.221 8.191,4.153 8.103,4.016 C8.015,3.880 7.971,3.714 7.971,3.518 Z"/>
		</symbol>
	</defs>
</svg>