<svg xmlns="http://www.w3.org/2000/svg" xmlns:xlink="http://www.w3.org/1999/xlink" preserveAspectRatio="xMidYMid" width="14.06" height="13.13" viewBox="0 0 14.06 13.13">
  <defs>
    <style>
      .cls-1 {
        fill: #00143b;
        fill-rule: evenodd;
      }
    </style>
  </defs>
  <path d="M14.065,9.202 L13.625,9.172 C12.883,9.114 12.356,8.948 12.043,8.674 C11.340,8.011 10.989,7.503 10.989,7.151 C10.989,7.132 11.037,7.083 11.135,7.004 C11.291,6.907 11.477,6.829 11.692,6.770 C11.731,6.751 11.799,6.726 11.897,6.697 C11.994,6.668 12.063,6.643 12.102,6.624 C12.492,6.448 12.668,6.165 12.629,5.774 C12.610,5.559 12.517,5.374 12.351,5.217 C12.185,5.061 11.985,4.983 11.750,4.983 C11.672,4.983 11.555,5.003 11.399,5.042 C11.321,5.081 11.145,5.129 10.871,5.188 C10.891,5.012 10.920,4.710 10.959,4.280 C11.115,3.147 10.832,2.161 10.110,1.321 C9.348,0.442 8.323,0.002 7.034,0.002 C5.745,0.002 4.719,0.442 3.957,1.321 C3.235,2.161 2.951,3.157 3.108,4.309 C3.147,4.641 3.176,4.934 3.196,5.188 C2.981,5.129 2.815,5.081 2.698,5.042 C2.619,5.003 2.502,4.983 2.346,4.983 C2.112,4.983 1.911,5.061 1.745,5.217 C1.579,5.374 1.486,5.559 1.467,5.774 C1.428,6.184 1.594,6.467 1.965,6.624 C2.004,6.643 2.072,6.668 2.170,6.697 C2.268,6.726 2.336,6.751 2.375,6.770 C2.629,6.848 2.824,6.927 2.961,7.004 C3.039,7.063 3.078,7.112 3.078,7.151 C3.078,7.503 2.727,8.011 2.024,8.674 C1.731,8.967 1.203,9.134 0.442,9.172 L0.002,9.202 L0.002,9.641 C0.002,9.837 0.061,10.032 0.178,10.227 C0.393,10.579 0.764,10.813 1.291,10.930 C1.350,10.930 1.409,10.940 1.467,10.960 C1.526,10.979 1.584,10.999 1.643,11.018 C1.702,11.038 1.740,11.047 1.760,11.047 C1.799,11.067 1.858,11.077 1.936,11.077 L1.936,11.106 C1.975,11.399 2.014,11.575 2.053,11.633 C2.151,11.868 2.365,11.985 2.698,11.985 C2.815,11.985 2.903,11.975 2.961,11.956 C2.981,11.956 3.005,11.951 3.035,11.941 C3.064,11.931 3.088,11.926 3.108,11.926 C3.381,11.887 3.615,11.868 3.811,11.868 C4.084,11.868 4.328,11.926 4.543,12.044 C4.582,12.063 4.650,12.112 4.748,12.190 C4.846,12.268 4.914,12.317 4.953,12.336 C5.676,12.864 6.369,13.128 7.034,13.128 C7.697,13.128 8.391,12.864 9.114,12.336 C9.172,12.297 9.309,12.200 9.524,12.044 C9.739,11.926 9.993,11.868 10.286,11.868 C10.461,11.868 10.686,11.887 10.959,11.926 C10.979,11.926 11.003,11.931 11.033,11.941 C11.062,11.951 11.086,11.956 11.106,11.956 C11.164,11.975 11.252,11.985 11.370,11.985 C11.701,11.985 11.916,11.868 12.014,11.633 C12.053,11.575 12.092,11.399 12.131,11.106 L12.131,11.077 C12.229,11.077 12.297,11.067 12.336,11.047 C12.356,11.047 12.395,11.038 12.453,11.018 C12.512,10.999 12.566,10.979 12.615,10.960 C12.663,10.940 12.717,10.930 12.776,10.930 C13.303,10.813 13.674,10.579 13.889,10.227 C14.006,10.032 14.065,9.827 14.065,9.612 L14.065,9.202 ZM6.096,3.518 C6.096,3.714 6.052,3.880 5.964,4.016 C5.876,4.153 5.764,4.221 5.627,4.221 C5.490,4.221 5.378,4.153 5.290,4.016 C5.203,3.880 5.159,3.714 5.159,3.518 C5.159,3.323 5.203,3.157 5.290,3.020 C5.378,2.884 5.490,2.815 5.627,2.815 C5.764,2.815 5.876,2.884 5.964,3.020 C6.052,3.157 6.096,3.323 6.096,3.518 ZM7.034,5.774 C6.389,5.774 5.842,5.550 5.393,5.100 C5.276,4.983 5.276,4.866 5.393,4.749 C5.510,4.631 5.627,4.631 5.745,4.749 C6.115,5.120 6.545,5.305 7.034,5.305 C7.522,5.305 7.951,5.120 8.323,4.749 C8.440,4.631 8.557,4.631 8.674,4.749 C8.791,4.866 8.791,4.983 8.674,5.100 C8.225,5.550 7.678,5.774 7.034,5.774 ZM7.971,3.518 C7.971,3.323 8.015,3.157 8.103,3.020 C8.191,2.884 8.303,2.815 8.440,2.815 C8.576,2.815 8.689,2.884 8.777,3.020 C8.865,3.157 8.909,3.323 8.909,3.518 C8.909,3.714 8.865,3.880 8.777,4.016 C8.689,4.153 8.576,4.221 8.440,4.221 C8.303,4.221 8.191,4.153 8.103,4.016 C8.015,3.880 7.971,3.714 7.971,3.518 Z" class="cls-1"/>
</svg>
