<svg xmlns="http://www.w3.org/2000/svg" xmlns:xlink="http://www.w3.org/1999/xlink" preserveAspectRatio="xMidYMid" width="10.719" height="13.93" viewBox="0 0 10.719 13.93">
  <defs>
    <style>
      .cls-1 {
        fill: #00143b;
        fill-rule: evenodd;
      }
    </style>
  </defs>
  <path d="M0.008,5.004 C0.008,6.101 0.444,7.701 1.642,8.062 C1.684,8.070 1.742,8.087 1.784,8.087 C2.060,8.087 2.220,7.316 2.220,7.098 C2.220,6.839 1.558,6.286 1.558,5.205 C1.558,2.960 3.267,1.368 5.478,1.368 C7.380,1.368 8.787,2.449 8.787,4.434 C8.787,5.917 8.192,8.698 6.266,8.698 C5.570,8.698 4.976,8.196 4.976,7.475 C4.976,6.420 5.713,5.398 5.713,4.309 C5.713,3.647 5.336,3.111 4.632,3.111 C3.677,3.111 3.091,4.183 3.091,5.029 C3.091,5.498 3.150,6.018 3.359,6.445 C2.974,8.103 2.186,10.575 2.186,12.284 C2.186,12.811 2.262,13.331 2.312,13.858 L2.387,13.942 L2.505,13.900 C3.912,11.974 3.862,11.597 4.498,9.075 C4.842,9.729 5.730,10.080 6.433,10.080 C9.399,10.080 10.731,7.190 10.731,4.585 C10.731,1.812 8.335,0.003 5.705,0.003 C2.840,0.003 0.008,1.913 0.008,5.004 Z" class="cls-1"/>
</svg>
