<svg xmlns="http://www.w3.org/2000/svg" xmlns:xlink="http://www.w3.org/1999/xlink" preserveAspectRatio="xMidYMid" width="28" height="28" viewBox="0 0 28 28">
  <defs>
    <style>
      .cls-1 {
        fill: #cdd1d8;
        fill-rule: evenodd;
      }
    </style>
  </defs>
  <path d="M20.000,28.000 L20.000,20.000 L28.000,20.000 L28.000,28.000 L20.000,28.000 ZM20.000,10.000 L28.000,10.000 L28.000,18.000 L20.000,18.000 L20.000,10.000 ZM20.000,-0.000 L28.000,-0.000 L28.000,8.000 L20.000,8.000 L20.000,-0.000 ZM10.000,20.000 L18.000,20.000 L18.000,28.000 L10.000,28.000 L10.000,20.000 ZM10.000,10.000 L18.000,10.000 L18.000,18.000 L10.000,18.000 L10.000,10.000 ZM10.000,-0.000 L18.000,-0.000 L18.000,8.000 L10.000,8.000 L10.000,-0.000 ZM-0.000,20.000 L8.000,20.000 L8.000,28.000 L-0.000,28.000 L-0.000,20.000 ZM-0.000,10.000 L8.000,10.000 L8.000,18.000 L-0.000,18.000 L-0.000,10.000 ZM-0.000,-0.000 L8.000,-0.000 L8.000,8.000 L-0.000,8.000 L-0.000,-0.000 Z" class="cls-1"/>
</svg>
