<svg xmlns="http://www.w3.org/2000/svg" xmlns:xlink="http://www.w3.org/1999/xlink" preserveAspectRatio="xMidYMid" width="13.219" height="10.72" viewBox="0 0 13.219 10.72">
  <defs>
    <style>
      .cls-1 {
        fill: #00143b;
        fill-rule: evenodd;
      }
    </style>
  </defs>
  <path d="M13.205,1.271 C12.719,1.480 12.191,1.631 11.647,1.690 C12.208,1.354 12.635,0.827 12.836,0.198 C12.317,0.508 11.731,0.735 11.119,0.852 C10.625,0.324 9.921,-0.003 9.142,-0.003 C7.642,-0.003 6.436,1.212 6.436,2.703 C6.436,2.913 6.461,3.122 6.503,3.323 C4.258,3.206 2.256,2.133 0.924,0.492 C0.690,0.894 0.555,1.354 0.555,1.857 C0.555,2.795 1.033,3.625 1.762,4.110 C1.318,4.094 0.899,3.968 0.539,3.767 C0.539,3.775 0.539,3.792 0.539,3.801 C0.539,5.116 1.469,6.205 2.708,6.456 C2.482,6.515 2.239,6.548 1.996,6.548 C1.820,6.548 1.653,6.531 1.485,6.506 C1.829,7.579 2.826,8.358 4.015,8.383 C3.085,9.112 1.921,9.539 0.656,9.539 C0.430,9.539 0.220,9.530 0.003,9.505 C1.201,10.276 2.625,10.720 4.158,10.720 C9.134,10.720 11.856,6.598 11.856,3.021 C11.856,2.904 11.856,2.787 11.848,2.670 C12.376,2.284 12.836,1.807 13.205,1.271 Z" class="cls-1"/>
</svg>
