<svg xmlns="http://www.w3.org/2000/svg" xmlns:xlink="http://www.w3.org/1999/xlink" preserveAspectRatio="xMidYMid" width="27.68" height="21.219" viewBox="0 0 27.68 21.219">
  <defs>
    <style>
      .cls-1 {
        fill: #76b043;
        fill-rule: evenodd;
      }
    </style>
  </defs>
  <path d="M27.672,4.152 C27.672,3.705 27.494,3.259 27.172,2.938 L24.744,0.510 C24.423,0.188 23.977,0.010 23.530,0.010 C23.084,0.010 22.638,0.188 22.316,0.510 L10.605,12.239 L5.356,6.973 C5.035,6.651 4.589,6.473 4.142,6.473 C3.696,6.473 3.250,6.651 2.928,6.973 L0.500,9.401 C0.179,9.722 0.000,10.168 0.000,10.615 C0.000,11.061 0.179,11.507 0.500,11.828 L6.963,18.291 L9.391,20.719 C9.712,21.041 10.159,21.219 10.605,21.219 C11.051,21.219 11.498,21.041 11.819,20.719 L14.247,18.291 L27.172,5.366 C27.494,5.044 27.672,4.598 27.672,4.152 Z" class="cls-1"/>
</svg>
