<svg xmlns="http://www.w3.org/2000/svg" preserveAspectRatio="xMidYMid" width="237" height="58" viewBox="0 0 236.875 57.938">
  <path fill="currentColor" d="M235.019,33.258 C234.037,32.810 232.821,32.384 231.371,31.978 C229.920,31.573 228.512,31.370 227.147,31.370 C225.141,31.370 223.563,31.882 222.411,32.906 C223.435,34.442 224.224,35.573 224.779,36.298 C227.211,39.882 229.024,42.762 230.219,44.938 C231.413,47.114 232.011,49.120 232.011,50.954 C232.011,53.172 230.901,54.943 228.683,56.266 C226.464,57.375 224.501,57.930 222.795,57.930 C222.197,57.930 221.600,57.866 221.003,57.738 L220.939,57.738 C220.811,57.738 220.725,57.716 220.683,57.674 C220.128,57.588 219.595,57.439 219.083,57.226 C218.485,57.055 217.739,56.692 216.843,56.138 C215.861,55.498 215.051,54.772 214.411,53.962 C213.600,52.938 213.003,51.786 212.619,50.506 L212.555,49.994 L212.491,49.866 L212.491,49.738 L212.427,49.482 L212.363,49.290 L212.363,49.034 C212.320,48.906 212.299,48.736 212.299,48.522 C212.171,47.882 212.107,47.200 212.107,46.474 C212.107,44.938 212.277,43.509 212.619,42.186 C213.003,40.864 213.557,39.520 214.283,38.154 L214.411,37.962 C213.804,37.128 213.179,36.223 212.539,35.253 C211.035,37.579 209.379,39.691 207.564,41.578 C204.876,44.373 202.166,46.517 199.436,48.010 C196.705,49.504 194.230,50.250 192.012,50.250 C189.921,50.250 188.268,49.568 187.052,48.202 C186.258,47.311 185.728,46.134 185.453,44.680 C182.778,47.961 179.122,49.610 174.476,49.610 C172.172,49.610 170.561,48.714 169.644,46.922 C168.726,45.130 168.268,42.741 168.268,39.754 C168.268,39.608 168.272,39.448 168.274,39.294 C166.445,42.560 164.238,45.575 161.644,48.330 C158.550,51.615 155.148,53.108 151.436,52.810 C149.473,52.724 148.097,50.964 147.308,47.530 C146.892,45.720 146.588,43.577 146.392,41.120 C143.689,46.775 139.294,49.610 133.195,49.610 C130.891,49.610 129.280,48.714 128.363,46.922 C127.445,45.130 126.987,42.741 126.987,39.754 C126.987,38.653 127.054,37.345 127.186,35.839 C127.057,35.843 126.929,35.850 126.796,35.850 C125.814,35.850 124.748,35.701 123.596,35.402 C123.084,37.450 122.529,39.200 121.932,40.650 C121.206,42.357 120.374,43.872 119.436,45.194 C118.540,46.432 117.537,47.541 116.428,48.522 C115.617,49.205 114.785,49.802 113.932,50.314 C112.566,51.167 110.902,51.764 108.940,52.106 C108.726,52.148 108.406,52.170 107.980,52.170 C105.804,52.170 104.182,51.007 103.116,48.682 C102.049,46.357 101.398,43.712 101.164,40.746 C101.143,40.483 101.124,40.211 101.105,39.940 C101.039,40.092 100.976,40.238 100.908,40.394 C98.241,46.538 93.729,49.610 87.372,49.610 C85.068,49.610 83.457,48.714 82.540,46.922 C81.622,45.130 81.164,42.741 81.164,39.754 C81.164,39.608 81.168,39.448 81.171,39.294 C79.341,42.560 77.135,45.575 74.541,48.330 C71.447,51.615 68.045,53.108 64.333,52.810 C62.370,52.724 60.994,50.964 60.205,47.530 C59.683,45.264 59.338,42.480 59.161,39.201 C58.657,39.777 58.144,40.338 57.612,40.874 C54.966,43.541 52.278,45.557 49.548,46.922 C46.817,48.288 44.300,48.970 41.996,48.970 C39.734,48.970 37.932,48.288 36.588,46.922 C35.244,45.557 34.572,43.573 34.572,40.970 C34.572,39.989 34.657,39.050 34.828,38.154 C35.297,35.338 36.257,33.077 37.708,31.370 C39.158,29.664 40.780,28.469 42.572,27.786 C44.364,27.104 46.113,26.762 47.820,26.762 C48.886,26.762 49.782,26.869 50.508,27.082 C51.446,27.381 52.182,27.829 52.716,28.426 C53.249,29.024 53.516,29.856 53.516,30.922 C53.516,31.989 53.174,33.354 52.492,35.018 C52.065,35.018 51.692,34.922 51.372,34.730 C51.052,34.538 50.892,34.421 50.892,34.378 C50.934,34.293 50.988,34.080 51.052,33.738 C51.116,33.397 51.148,33.056 51.148,32.714 C51.148,31.349 50.529,30.645 49.292,30.602 C48.481,30.517 47.596,30.901 46.636,31.754 C45.676,32.608 44.940,34.634 44.428,37.834 C44.257,38.730 44.172,39.626 44.172,40.522 C44.172,42.997 45.004,44.234 46.668,44.234 C48.118,44.234 50.017,43.360 52.364,41.610 C54.693,39.874 56.917,37.873 59.037,35.610 C59.027,34.999 59.021,34.378 59.021,33.738 C59.021,29.301 59.213,24.010 59.597,17.866 L57.485,17.994 C56.546,17.994 55.863,18.016 55.437,18.058 L52.429,18.058 L51.533,18.058 L51.277,18.058 L51.085,16.074 L51.405,16.010 L52.237,15.882 L55.245,15.434 L57.229,15.178 C57.698,15.093 58.445,15.008 59.469,14.922 L59.725,14.858 C60.066,9.866 60.237,6.026 60.237,3.338 C60.237,1.930 60.173,0.906 60.045,0.266 C60.173,0.224 60.482,0.170 60.973,0.106 C61.463,0.042 62.007,0.010 62.605,0.010 C64.610,0.010 66.370,0.522 67.885,1.546 C69.399,2.570 70.157,4.469 70.157,7.242 L70.093,8.394 L69.773,14.026 L71.565,13.962 C72.034,13.920 72.695,13.898 73.549,13.898 L75.277,13.834 L76.621,13.834 L77.773,13.834 L77.901,15.818 C77.858,15.818 77.741,15.850 77.549,15.914 C77.357,15.978 77.111,16.032 76.813,16.074 L75.469,16.266 L73.805,16.522 L71.757,16.778 L69.645,17.034 C69.474,20.405 69.346,24.117 69.261,28.170 L69.261,34.186 C69.261,38.325 69.410,41.408 69.709,43.434 C70.007,45.461 70.669,46.474 71.693,46.474 C72.247,46.474 72.887,46.176 73.613,45.578 C74.850,44.554 76.226,42.869 77.741,40.522 C79.195,38.268 80.458,36.115 81.540,34.057 C81.662,32.932 81.813,31.722 81.996,30.410 C82.294,28.405 82.444,27.040 82.444,26.314 C82.444,25.973 82.422,25.760 82.380,25.674 C82.508,25.632 82.774,25.589 83.180,25.546 C83.585,25.504 84.108,25.482 84.748,25.482 C86.454,25.482 87.926,25.824 89.164,26.506 C90.401,27.189 91.020,28.448 91.020,30.282 C91.020,30.752 90.998,31.114 90.956,31.370 C90.444,34.698 90.188,37.450 90.188,39.626 C90.188,42.613 90.806,44.106 92.044,44.106 C92.598,44.106 93.302,43.808 94.156,43.210 C95.521,42.272 96.876,40.832 98.220,38.890 C99.203,37.470 100.063,36.057 100.864,34.648 C100.829,33.252 100.812,31.776 100.812,30.218 C100.812,27.829 100.769,26.272 100.684,25.546 C100.684,25.504 101.153,25.365 102.092,25.130 C103.030,24.896 103.969,24.778 104.908,24.778 C106.742,24.778 108.310,25.312 109.612,26.378 C110.913,27.445 111.670,29.344 111.884,32.074 C112.353,38.261 112.908,42.378 113.548,44.426 C114.273,43.786 114.956,43.082 115.596,42.314 C116.492,41.205 117.238,40.032 117.836,38.794 C118.518,37.429 119.116,35.914 119.628,34.250 C119.628,34.165 119.670,33.994 119.756,33.738 C119.457,33.610 118.668,33.141 117.388,32.330 C116.577,31.733 115.873,31.114 115.276,30.474 C114.593,29.749 114.017,28.853 113.548,27.786 C113.420,27.445 113.313,26.869 113.228,26.058 C113.228,25.504 113.334,24.864 113.548,24.138 C113.974,22.944 114.785,22.005 115.980,21.322 C116.918,20.725 117.921,20.426 118.988,20.426 C119.372,20.426 119.649,20.448 119.820,20.490 C120.502,20.618 121.164,20.874 121.804,21.258 C122.273,21.600 122.764,22.090 123.276,22.730 C123.574,23.157 123.873,23.754 124.172,24.522 C124.300,24.906 124.385,25.248 124.428,25.546 C124.470,25.845 124.513,26.080 124.556,26.250 C124.598,26.634 124.620,27.189 124.620,27.914 L124.620,28.746 C124.577,28.960 124.556,29.216 124.556,29.514 C124.428,30.880 124.236,32.202 123.980,33.482 C123.980,33.525 124.353,33.664 125.100,33.898 C125.846,34.133 126.582,34.250 127.308,34.250 C127.320,34.250 127.330,34.248 127.342,34.248 C127.468,33.070 127.626,31.795 127.819,30.410 C128.117,28.405 128.267,27.040 128.267,26.314 C128.267,25.973 128.245,25.760 128.203,25.674 C128.331,25.632 128.597,25.589 129.003,25.546 C129.408,25.504 129.931,25.482 130.571,25.482 C132.277,25.482 133.749,25.824 134.987,26.506 C136.224,27.189 136.843,28.448 136.843,30.282 C136.843,30.752 136.821,31.114 136.779,31.370 C136.267,34.698 136.011,37.450 136.011,39.626 C136.011,42.613 136.629,44.106 137.867,44.106 C138.421,44.106 139.125,43.808 139.979,43.210 C141.344,42.272 142.699,40.832 144.043,38.890 C144.802,37.795 145.491,36.704 146.141,35.616 C146.131,35.002 146.124,34.380 146.124,33.738 C146.124,29.301 146.316,24.010 146.700,17.866 L144.588,17.994 C143.649,17.994 142.966,18.016 142.540,18.058 L139.532,18.058 L138.636,18.058 L138.380,18.058 L138.188,16.074 L138.508,16.010 L139.340,15.882 L142.348,15.434 L144.332,15.178 C144.801,15.093 145.548,15.008 146.572,14.922 L146.828,14.858 C147.169,9.866 147.340,6.026 147.340,3.338 C147.340,1.930 147.276,0.906 147.148,0.266 C147.276,0.224 147.585,0.170 148.076,0.106 C148.566,0.042 149.110,0.010 149.708,0.010 C151.713,0.010 153.473,0.522 154.988,1.546 C156.502,2.570 157.260,4.469 157.260,7.242 L157.196,8.394 L156.876,14.026 L158.668,13.962 C159.137,13.920 159.798,13.898 160.652,13.898 L162.380,13.834 L163.724,13.834 L164.876,13.834 L165.004,15.818 C164.961,15.818 164.844,15.850 164.652,15.914 C164.460,15.978 164.214,16.032 163.916,16.074 L162.572,16.266 L160.908,16.522 L158.860,16.778 L156.748,17.034 C156.577,20.405 156.449,24.117 156.364,28.170 L156.364,34.186 C156.364,38.325 156.513,41.408 156.812,43.434 C157.110,45.461 157.772,46.474 158.796,46.474 C159.350,46.474 159.990,46.176 160.716,45.578 C161.953,44.554 163.329,42.869 164.844,40.522 C166.299,38.268 167.562,36.115 168.643,34.057 C168.766,32.932 168.916,31.722 169.100,30.410 C169.398,28.405 169.548,27.040 169.548,26.314 C169.548,25.973 169.526,25.760 169.484,25.674 C169.612,25.632 169.878,25.589 170.284,25.546 C170.689,25.504 171.212,25.482 171.852,25.482 C173.558,25.482 175.030,25.824 176.268,26.506 C177.505,27.189 178.124,28.448 178.124,30.282 C178.124,30.752 178.102,31.114 178.060,31.370 C177.548,34.698 177.292,37.450 177.292,39.626 C177.292,42.613 177.910,44.106 179.148,44.106 C179.702,44.106 180.406,43.808 181.260,43.210 C182.625,42.272 183.980,40.832 185.324,38.890 C185.403,38.776 185.468,38.662 185.546,38.548 C185.547,38.544 185.547,38.541 185.548,38.538 C186.230,34.400 187.841,31.466 190.380,29.738 C192.918,28.010 195.617,27.146 198.476,27.146 C199.585,27.146 200.502,27.253 201.228,27.466 C202.166,27.765 202.956,28.320 203.596,29.130 C204.236,29.941 204.556,30.901 204.556,32.010 C204.556,33.248 204.129,34.570 203.276,35.978 C202.422,37.344 201.217,38.272 199.660,38.762 C198.102,39.253 196.534,39.477 194.956,39.434 C194.870,40.373 194.828,41.013 194.828,41.354 C194.828,43.957 195.617,45.258 197.196,45.258 C198.646,45.258 200.513,44.330 202.796,42.474 C205.078,40.618 207.254,38.496 209.324,36.106 C210.167,35.133 210.881,34.264 211.480,33.488 C210.111,31.008 209.419,28.827 209.419,26.954 C209.419,24.949 210.027,23.338 211.243,22.122 C212.459,20.906 213.835,20.000 215.371,19.402 C216.907,18.805 217.675,18.570 217.675,18.698 C217.376,19.424 217.227,20.213 217.227,21.066 C217.227,22.389 217.568,23.861 218.251,25.482 C218.933,27.104 219.872,28.896 221.067,30.858 C222.731,29.920 224.587,29.450 226.635,29.450 C228.213,29.450 229.739,29.685 231.211,30.154 C232.683,30.624 233.952,31.136 235.019,31.690 C236.085,32.245 236.619,32.544 236.619,32.586 L236.875,34.122 C236.619,33.994 236.000,33.706 235.019,33.258 ZM120.908,26.634 C120.908,25.781 120.737,25.120 120.396,24.650 C120.140,24.138 119.756,23.818 119.244,23.690 C119.158,23.648 119.009,23.626 118.796,23.626 C118.454,23.626 118.028,23.733 117.516,23.946 C116.918,24.288 116.492,24.714 116.236,25.226 C116.108,25.525 116.044,25.845 116.044,26.186 C116.044,26.528 116.065,26.784 116.108,26.954 C116.278,27.594 116.641,28.213 117.196,28.810 C117.580,29.322 118.113,29.856 118.796,30.410 C119.478,30.922 119.990,31.285 120.332,31.498 L120.780,29.066 L120.844,28.426 C120.886,28.298 120.908,28.085 120.908,27.786 C120.950,27.658 120.972,27.466 120.972,27.210 C120.972,26.954 120.950,26.762 120.908,26.634 ZM201.612,34.762 C201.868,34.250 201.996,33.674 201.996,33.034 C201.996,32.480 201.846,32.010 201.548,31.626 C201.249,31.242 200.758,31.029 200.076,30.986 C197.644,30.773 196.022,33.056 195.212,37.834 C198.369,38.048 200.502,37.024 201.612,34.762 ZM220.683,46.698 C219.829,45.269 218.357,43.168 216.267,40.394 C215.925,41.120 215.648,41.952 215.435,42.890 C215.179,44.128 215.072,45.301 215.115,46.410 L215.307,48.074 L215.691,49.610 C215.904,50.420 216.309,51.188 216.907,51.914 C217.291,52.340 217.867,52.810 218.635,53.322 L219.019,53.514 C219.403,53.684 219.829,53.770 220.299,53.770 C221.024,53.770 221.493,53.386 221.707,52.618 C221.877,52.106 221.963,51.551 221.963,50.954 C221.963,49.546 221.536,48.128 220.683,46.698 ZM174.476,21.962 C173.153,21.962 172.022,21.493 171.084,20.554 C170.145,19.616 169.676,18.485 169.676,17.162 C169.676,15.840 170.145,14.709 171.084,13.770 C172.022,12.832 173.153,12.362 174.476,12.362 C175.798,12.362 176.929,12.832 177.868,13.770 C178.806,14.709 179.276,15.840 179.276,17.162 C179.276,18.485 178.806,19.616 177.868,20.554 C176.929,21.493 175.798,21.962 174.476,21.962 ZM133.195,21.962 C131.872,21.962 130.741,21.493 129.803,20.554 C128.864,19.616 128.395,18.485 128.395,17.162 C128.395,15.840 128.864,14.709 129.803,13.770 C130.741,12.832 131.872,12.362 133.195,12.362 C134.517,12.362 135.648,12.832 136.587,13.770 C137.525,14.709 137.995,15.840 137.995,17.162 C137.995,18.485 137.525,19.616 136.587,20.554 C135.648,21.493 134.517,21.962 133.195,21.962 ZM87.372,21.962 C86.049,21.962 84.918,21.493 83.980,20.554 C83.041,19.616 82.572,18.485 82.572,17.162 C82.572,15.840 83.041,14.709 83.980,13.770 C84.918,12.832 86.049,12.362 87.372,12.362 C88.694,12.362 89.825,12.832 90.764,13.770 C91.702,14.709 92.172,15.840 92.172,17.162 C92.172,18.485 91.702,19.616 90.764,20.554 C89.825,21.493 88.694,21.962 87.372,21.962 ZM31.597,50.538 C30.722,51.242 29.741,51.807 28.653,52.234 C27.565,52.660 26.658,52.874 25.933,52.874 C22.221,52.874 20.365,47.946 20.365,38.090 C20.365,36.213 20.429,34.314 20.557,32.394 C19.703,32.309 19.085,32.266 18.701,32.266 L16.525,32.074 C15.586,31.989 14.882,31.946 14.413,31.946 L13.389,31.818 L12.429,31.754 L10.637,31.562 L10.253,31.498 C9.869,34.357 9.485,37.514 9.101,40.970 C8.631,44.938 8.269,47.733 8.013,49.354 C7.757,50.975 7.479,52.106 7.181,52.746 C6.839,53.898 5.869,54.932 4.269,55.850 C2.669,56.767 1.251,57.247 0.013,57.290 C5.859,20.426 13.730,1.994 23.629,1.994 C23.885,1.994 24.525,2.058 25.549,2.186 C25.762,2.186 26.039,2.229 26.381,2.314 L26.509,2.314 C29.879,3.125 31.607,5.877 31.693,10.570 L31.693,10.826 L31.693,10.954 L31.693,11.018 L31.693,11.722 C31.394,20.000 31.245,26.293 31.245,30.602 C31.245,41.653 31.927,47.562 33.293,48.330 C33.037,49.098 32.471,49.834 31.597,50.538 ZM19.853,7.306 C15.842,7.306 12.791,14.346 10.701,28.426 C10.829,28.426 10.935,28.448 11.021,28.490 L12.749,28.682 L13.709,28.810 L14.733,28.938 L16.781,29.130 C17.293,29.216 18.018,29.301 18.957,29.386 C19.725,29.472 20.301,29.514 20.685,29.514 L21.133,23.498 L21.325,21.322 C21.666,18.165 21.837,15.520 21.837,13.386 C21.837,9.333 21.175,7.306 19.853,7.306 Z"/>
</svg>
