<svg xmlns="http://www.w3.org/2000/svg" xmlns:xlink="http://www.w3.org/1999/xlink" preserveAspectRatio="xMidYMid" width="254.156" height="77.125" viewBox="0 0 254.156 77.125">
  <path fill="#00143b" d="M252.296,33.258 C251.314,32.810 250.098,32.384 248.648,31.978 C247.197,31.573 245.789,31.370 244.424,31.370 C242.418,31.370 240.840,31.882 239.688,32.906 C240.712,34.442 241.501,35.573 242.056,36.298 C244.488,39.882 246.301,42.762 247.496,44.938 C248.690,47.114 249.288,49.120 249.288,50.954 C249.288,53.172 248.178,54.943 245.960,56.266 C243.741,57.375 241.778,57.930 240.072,57.930 C239.474,57.930 238.877,57.866 238.280,57.738 L238.216,57.738 C238.088,57.738 238.002,57.716 237.960,57.674 C237.405,57.588 236.872,57.439 236.360,57.226 C235.762,57.055 235.016,56.692 234.120,56.138 C233.138,55.498 232.328,54.772 231.688,53.962 C230.877,52.938 230.280,51.786 229.896,50.506 L229.832,49.994 L229.768,49.866 L229.768,49.738 L229.704,49.482 L229.640,49.290 L229.640,49.034 C229.597,48.906 229.576,48.736 229.576,48.522 C229.448,47.882 229.384,47.200 229.384,46.474 C229.384,44.938 229.554,43.509 229.896,42.186 C230.280,40.864 230.834,39.520 231.560,38.154 L231.688,37.962 C231.082,37.130 230.456,36.218 229.817,35.251 C228.313,37.577 226.657,39.690 224.840,41.578 C222.152,44.373 219.442,46.517 216.712,48.010 C213.981,49.504 211.506,50.250 209.288,50.250 C207.197,50.250 205.544,49.568 204.328,48.202 C203.535,47.311 203.005,46.134 202.730,44.680 C200.055,47.961 196.399,49.610 191.752,49.610 C189.548,49.610 187.986,48.781 187.051,47.141 C186.021,49.145 184.824,51.143 183.401,53.130 C180.222,57.567 176.798,59.700 173.129,59.530 C171.294,59.444 169.993,58.602 169.225,57.002 C168.457,55.402 168.073,53.236 168.073,50.506 C168.073,48.757 168.190,46.901 168.425,44.938 C168.659,42.976 168.990,40.629 169.417,37.898 C169.715,35.893 169.971,33.952 170.185,32.074 C167.369,32.032 165.214,31.776 163.721,31.306 C163.629,31.277 163.557,31.244 163.469,31.214 L163.209,31.370 L162.441,31.882 C161.971,32.096 161.694,32.245 161.609,32.330 C161.438,32.458 161.278,32.554 161.129,32.618 C160.979,32.682 160.841,32.757 160.713,32.842 L160.265,33.098 L160.009,33.226 L159.753,33.354 L159.241,33.610 L158.729,33.866 L156.489,34.826 C155.849,35.082 155.059,35.360 154.121,35.658 L153.097,35.914 C152.969,36.682 152.777,37.450 152.521,38.218 C151.625,40.992 150.163,43.264 148.137,45.034 C146.110,46.805 143.966,47.690 141.705,47.690 C140.894,47.690 140.105,47.562 139.337,47.306 C137.417,46.709 135.891,45.482 134.761,43.626 C133.630,41.770 133.065,39.605 133.065,37.130 C133.065,36.121 133.208,35.088 133.418,34.043 C131.564,35.108 129.638,36.260 127.625,37.514 L127.817,40.010 C127.859,40.778 128.041,43.338 128.361,47.690 C128.681,52.042 128.841,56.074 128.841,59.786 C128.841,71.263 127.027,77.023 123.401,77.066 L122.633,77.130 C120.329,77.130 117.587,75.988 114.409,73.706 C111.230,71.423 108.147,66.996 105.161,60.426 C104.734,59.572 104.521,58.634 104.521,57.610 C104.521,53.130 109.086,47.626 118.217,41.098 C118.131,39.818 118.089,38.837 118.089,38.154 C116.723,39.520 115.059,40.746 113.097,41.834 C111.134,42.922 109.214,43.466 107.337,43.466 C105.417,43.466 103.966,42.965 102.985,41.962 C102.116,41.075 101.655,39.966 101.555,38.660 C100.745,39.683 99.902,40.659 99.018,41.578 C96.330,44.373 93.620,46.517 90.890,48.010 C88.159,49.504 85.684,50.250 83.466,50.250 C81.375,50.250 79.722,49.568 78.506,48.202 C77.599,47.184 77.031,45.797 76.801,44.043 C75.706,45.529 74.540,46.968 73.258,48.330 C70.164,51.615 66.762,53.108 63.050,52.810 C61.087,52.724 59.711,50.964 58.922,47.530 C58.515,45.760 58.215,43.674 58.018,41.286 C56.907,42.958 55.655,44.572 54.250,46.122 C51.370,49.301 47.988,50.890 44.106,50.890 C42.100,50.890 40.703,50.101 39.914,48.522 C39.124,46.944 38.730,44.768 38.730,41.994 C38.730,40.800 38.751,39.904 38.794,39.306 C36.362,41.738 33.759,42.954 30.986,42.954 C28.980,42.954 27.476,42.453 26.474,41.450 C26.076,41.052 25.780,40.600 25.540,40.118 C23.143,43.722 20.714,46.659 18.250,48.906 C14.836,52.020 11.743,53.578 8.970,53.578 C6.239,53.578 4.063,52.042 2.442,48.970 C0.820,45.898 0.010,41.397 0.010,35.466 C0.010,33.717 0.116,31.520 0.330,28.874 C0.884,22.218 2.004,16.906 3.690,12.938 C5.375,8.970 7.274,6.186 9.386,4.586 C11.498,2.986 13.578,2.186 15.626,2.186 C16.948,2.186 18.036,2.464 18.890,3.018 C21.279,4.512 22.474,7.456 22.474,11.850 C22.474,14.368 22.068,17.568 21.258,21.450 L19.402,20.042 C19.444,19.829 19.508,19.338 19.594,18.570 C19.679,17.802 19.722,16.992 19.722,16.138 C19.722,14.773 19.551,13.610 19.210,12.650 C18.868,11.690 18.292,11.189 17.482,11.146 C16.372,11.061 15.178,12.000 13.898,13.962 C12.618,15.925 11.658,20.618 11.018,28.042 C10.804,30.901 10.698,33.184 10.698,34.890 C10.698,38.730 11.060,41.557 11.786,43.370 C12.511,45.184 13.535,46.090 14.858,46.090 C16.351,46.090 18.111,45.066 20.138,43.018 C21.706,41.433 23.333,39.421 25.016,36.993 C25.122,35.713 25.520,34.426 26.250,33.130 C27.103,31.616 28.276,30.410 29.770,29.514 C32.031,28.106 34.548,27.402 37.322,27.402 C38.303,27.402 39.220,27.488 40.074,27.658 C40.116,27.189 40.138,26.506 40.138,25.610 C40.138,24.672 40.074,23.925 39.946,23.370 C40.074,23.328 40.383,23.274 40.874,23.210 C41.364,23.146 41.908,23.114 42.506,23.114 C44.511,23.114 46.271,23.626 47.786,24.650 C49.300,25.674 50.058,27.573 50.058,30.346 L49.994,31.498 C49.780,34.400 49.674,36.682 49.674,38.346 C49.674,42.741 50.292,44.938 51.530,44.938 C52.127,44.938 52.895,44.405 53.834,43.338 C55.416,41.558 56.723,39.708 57.811,37.800 C57.762,36.517 57.738,35.163 57.738,33.738 C57.738,29.301 57.930,24.010 58.314,17.866 L56.202,17.994 C55.263,17.994 54.580,18.016 54.154,18.058 L51.146,18.058 L50.250,18.058 L49.994,18.058 L49.802,16.074 L50.122,16.010 L50.954,15.882 L53.962,15.434 L55.946,15.178 C56.415,15.093 57.162,15.008 58.186,14.922 L58.442,14.858 C58.783,9.866 58.954,6.026 58.954,3.338 C58.954,1.930 58.890,0.906 58.762,0.266 C58.890,0.224 59.199,0.170 59.690,0.106 C60.180,0.042 60.724,0.010 61.322,0.010 C63.327,0.010 65.087,0.522 66.602,1.546 C68.116,2.570 68.874,4.469 68.874,7.242 L68.810,8.394 L68.490,14.026 L70.282,13.962 C70.751,13.920 71.412,13.898 72.266,13.898 L73.994,13.834 L75.338,13.834 L76.490,13.834 L76.618,15.818 C76.575,15.818 76.458,15.850 76.266,15.914 C76.074,15.978 75.828,16.032 75.530,16.074 L74.186,16.266 L72.522,16.522 L70.474,16.778 L68.362,17.034 C68.191,20.405 68.063,24.117 67.978,28.170 L67.978,34.186 C67.978,38.325 68.127,41.408 68.426,43.434 C68.724,45.461 69.386,46.474 70.410,46.474 C70.964,46.474 71.604,46.176 72.330,45.578 C73.567,44.554 74.943,42.869 76.458,40.522 C76.583,40.329 76.698,40.140 76.820,39.949 C76.869,39.502 76.926,39.038 77.002,38.538 C77.684,34.400 79.295,31.466 81.834,29.738 C84.372,28.010 87.071,27.146 89.930,27.146 C91.039,27.146 91.956,27.253 92.682,27.466 C93.620,27.765 94.410,28.320 95.050,29.130 C95.690,29.941 96.010,30.901 96.010,32.010 C96.010,33.248 95.583,34.570 94.730,35.978 C93.876,37.344 92.671,38.272 91.114,38.762 C89.556,39.253 87.988,39.477 86.410,39.434 C86.324,40.373 86.282,41.013 86.282,41.354 C86.282,43.957 87.071,45.258 88.650,45.258 C90.100,45.258 91.967,44.330 94.250,42.474 C96.532,40.618 98.708,38.496 100.778,36.106 C101.518,35.252 102.159,34.478 102.710,33.777 C102.763,33.678 102.801,33.581 102.857,33.482 C103.307,32.690 103.832,31.979 104.432,31.347 C104.564,31.129 104.684,30.919 104.778,30.730 L104.950,30.867 C105.412,30.443 105.900,30.046 106.441,29.706 C108.873,28.213 111.603,27.466 114.633,27.466 C115.614,27.466 116.531,27.552 117.385,27.722 C117.342,27.381 117.278,26.688 117.193,25.642 C117.107,24.597 117.001,23.861 116.873,23.434 C117.001,23.392 117.310,23.328 117.801,23.242 C118.291,23.157 118.835,23.114 119.433,23.114 C121.353,23.114 123.070,23.722 124.585,24.938 C126.099,26.154 126.985,28.426 127.241,31.754 L127.433,35.146 C129.809,33.769 132.032,32.545 134.117,31.459 C135.025,29.015 136.388,27.009 138.217,25.450 C140.243,23.722 142.409,22.858 144.713,22.858 C145.609,22.858 146.377,22.965 147.017,23.178 C148.766,23.733 150.195,24.853 151.305,26.538 C152.414,28.224 153.054,30.176 153.225,32.394 L153.417,32.394 C154.483,32.181 155.209,32.032 155.593,31.946 C155.934,31.904 156.638,31.712 157.705,31.370 L158.217,31.178 L158.729,31.050 L158.985,30.922 L159.241,30.858 L159.689,30.666 L160.649,30.282 C160.825,30.224 161.025,30.141 161.221,30.062 C161.030,29.898 160.870,29.726 160.745,29.546 C160.254,28.842 160.009,27.978 160.009,26.954 C160.009,26.656 160.051,26.122 160.137,25.354 L160.201,23.818 C160.201,23.093 160.115,22.474 159.945,21.962 C160.073,21.920 160.350,21.824 160.777,21.674 C161.203,21.525 161.747,21.376 162.409,21.226 C163.070,21.077 163.742,21.002 164.425,21.002 C165.747,21.002 166.803,21.386 167.593,22.154 C168.382,22.922 168.713,24.245 168.585,26.122 C168.542,26.848 168.851,27.306 169.513,27.498 C170.174,27.690 170.782,27.786 171.337,27.786 C173.385,27.616 175.347,28.010 177.225,28.970 C179.102,29.930 180.041,31.904 180.041,34.890 C180.041,35.189 179.998,35.722 179.913,36.490 C179.827,37.344 179.657,38.581 179.401,40.202 C178.761,45.066 178.441,48.416 178.441,50.250 C178.441,52.554 178.846,53.706 179.657,53.706 C180.169,53.706 180.894,53.215 181.833,52.234 C183.326,50.655 184.670,48.341 185.865,45.290 C185.947,45.081 186.007,44.879 186.086,44.670 C185.725,43.267 185.544,41.628 185.544,39.754 C185.544,37.493 185.821,34.378 186.376,30.410 C186.674,28.405 186.824,27.040 186.824,26.314 C186.824,25.973 186.802,25.760 186.760,25.674 C186.888,25.632 187.154,25.589 187.560,25.546 C187.965,25.504 188.488,25.482 189.128,25.482 C190.834,25.482 192.306,25.824 193.544,26.506 C194.781,27.189 195.400,28.448 195.400,30.282 C195.400,30.752 195.378,31.114 195.336,31.370 C194.824,34.698 194.568,37.450 194.568,39.626 C194.568,42.613 195.186,44.106 196.424,44.106 C196.978,44.106 197.682,43.808 198.536,43.210 C199.901,42.272 201.256,40.832 202.600,38.890 C202.680,38.776 202.745,38.662 202.823,38.548 C202.824,38.544 202.824,38.541 202.824,38.538 C203.506,34.400 205.117,31.466 207.656,29.738 C210.194,28.010 212.893,27.146 215.752,27.146 C216.861,27.146 217.778,27.253 218.504,27.466 C219.442,27.765 220.232,28.320 220.872,29.130 C221.512,29.941 221.832,30.901 221.832,32.010 C221.832,33.248 221.405,34.570 220.552,35.978 C219.698,37.344 218.493,38.272 216.936,38.762 C215.378,39.253 213.810,39.477 212.232,39.434 C212.146,40.373 212.104,41.013 212.104,41.354 C212.104,43.957 212.893,45.258 214.472,45.258 C215.922,45.258 217.789,44.330 220.072,42.474 C222.354,40.618 224.530,38.496 226.600,36.106 C227.443,35.133 228.158,34.264 228.756,33.488 C227.388,31.008 226.696,28.827 226.696,26.954 C226.696,24.949 227.304,23.338 228.520,22.122 C229.736,20.906 231.112,20.000 232.648,19.402 C234.184,18.805 234.952,18.570 234.952,18.698 C234.653,19.424 234.504,20.213 234.504,21.066 C234.504,22.389 234.845,23.861 235.528,25.482 C236.210,27.104 237.149,28.896 238.344,30.858 C240.008,29.920 241.864,29.450 243.912,29.450 C245.490,29.450 247.016,29.685 248.488,30.154 C249.960,30.624 251.229,31.136 252.296,31.690 C253.362,32.245 253.896,32.544 253.896,32.586 L254.152,34.122 C253.896,33.994 253.277,33.706 252.296,33.258 ZM34.410,31.946 C32.682,32.629 31.818,33.973 31.818,35.978 C31.818,37.472 32.372,38.218 33.482,38.218 C34.250,38.218 35.178,37.856 36.266,37.130 C37.354,36.405 38.367,35.552 39.306,34.570 C39.476,32.949 39.626,31.733 39.754,30.922 C37.919,30.922 36.138,31.264 34.410,31.946 ZM93.066,34.762 C93.322,34.250 93.450,33.674 93.450,33.034 C93.450,32.480 93.300,32.010 93.002,31.626 C92.703,31.242 92.212,31.029 91.530,30.986 C89.098,30.773 87.476,33.056 86.666,37.834 C89.823,38.048 91.956,37.024 93.066,34.762 ZM117.897,34.442 L117.641,30.986 C115.763,30.986 113.769,31.360 111.657,32.106 C109.545,32.853 108.489,34.229 108.489,36.234 C108.489,37.770 109.171,38.538 110.537,38.538 C111.561,38.538 112.798,38.133 114.249,37.322 C115.699,36.512 116.915,35.573 117.897,34.506 L117.897,34.442 ZM118.281,43.978 C111.795,49.098 108.553,53.279 108.553,56.522 C108.553,57.247 108.723,57.951 109.065,58.634 C110.131,60.639 111.347,62.335 112.713,63.722 C114.078,65.108 115.273,65.802 116.297,65.802 C117.534,65.802 118.217,64.714 118.345,62.538 C118.430,59.551 118.473,57.076 118.473,55.114 C118.473,51.316 118.409,47.605 118.281,43.978 ZM149.961,30.378 C149.534,29.845 149.001,29.578 148.361,29.578 C147.763,29.578 147.038,29.856 146.185,30.410 C146.270,30.581 146.441,30.794 146.697,31.050 C147.038,31.392 147.401,31.648 147.785,31.818 C147.998,31.989 148.233,32.096 148.489,32.138 C148.574,32.138 148.702,32.170 148.873,32.234 C149.043,32.298 149.193,32.330 149.321,32.330 C149.833,32.458 150.345,32.522 150.857,32.522 C150.686,31.626 150.387,30.912 149.961,30.378 ZM148.873,36.298 C148.745,36.298 148.563,36.288 148.329,36.266 C148.094,36.245 147.827,36.192 147.529,36.106 C147.230,36.064 146.782,35.957 146.185,35.786 C145.459,35.573 144.713,35.189 143.945,34.634 L143.433,34.250 C143.347,34.464 143.134,34.997 142.793,35.850 C142.366,37.173 142.153,38.538 142.153,39.946 C142.153,41.312 142.387,42.421 142.857,43.274 C143.326,44.128 143.987,44.554 144.841,44.554 C145.865,44.554 146.899,43.968 147.945,42.794 C148.990,41.621 149.790,40.117 150.345,38.282 C150.515,37.770 150.686,37.088 150.857,36.234 C150.003,36.320 149.342,36.341 148.873,36.298 ZM218.888,34.762 C219.144,34.250 219.272,33.674 219.272,33.034 C219.272,32.480 219.122,32.010 218.824,31.626 C218.525,31.242 218.034,31.029 217.352,30.986 C214.920,30.773 213.298,33.056 212.488,37.834 C215.645,38.048 217.778,37.024 218.888,34.762 ZM237.960,46.698 C237.106,45.269 235.634,43.168 233.544,40.394 C233.202,41.120 232.925,41.952 232.712,42.890 C232.456,44.128 232.349,45.301 232.392,46.410 L232.584,48.074 L232.968,49.610 C233.181,50.420 233.586,51.188 234.184,51.914 C234.568,52.340 235.144,52.810 235.912,53.322 L236.296,53.514 C236.680,53.684 237.106,53.770 237.576,53.770 C238.301,53.770 238.770,53.386 238.984,52.618 C239.154,52.106 239.240,51.551 239.240,50.954 C239.240,49.546 238.813,48.128 237.960,46.698 ZM191.752,21.962 C190.429,21.962 189.298,21.493 188.360,20.554 C187.421,19.616 186.952,18.485 186.952,17.162 C186.952,15.840 187.421,14.709 188.360,13.770 C189.298,12.832 190.429,12.362 191.752,12.362 C193.074,12.362 194.205,12.832 195.144,13.770 C196.082,14.709 196.552,15.840 196.552,17.162 C196.552,18.485 196.082,19.616 195.144,20.554 C194.205,21.493 193.074,21.962 191.752,21.962 Z"/>
</svg>
