<svg xmlns="http://www.w3.org/2000/svg" xmlns:xlink="http://www.w3.org/1999/xlink" preserveAspectRatio="xMidYMid" width="477.845" height="66.437" viewBox="0 0 477.845 66.437">
  <path fill="#ffffff" d="M474.905,44.204 C473.753,46.364 471.784,48.513 469.001,50.648 C466.217,52.784 462.737,53.733 458.561,53.492 C456.592,53.348 455.213,52.664 454.421,51.440 C453.629,50.216 453.233,48.524 453.233,46.364 C453.233,45.116 453.352,43.653 453.593,41.972 C452.729,43.509 451.397,44.913 449.597,46.184 C447.797,47.456 445.913,48.092 443.945,48.092 C443.369,48.092 442.793,48.020 442.217,47.876 C441.008,47.612 440.040,47.136 439.307,46.455 C439.009,46.894 438.707,47.297 438.402,47.660 C437.729,48.428 437.178,48.981 436.746,49.316 L436.242,49.676 L435.666,49.964 C435.618,49.964 435.497,50.012 435.306,50.108 L435.090,50.108 C435.090,50.156 435.065,50.180 435.018,50.180 L434.730,50.180 L434.658,50.180 L434.514,50.180 L434.298,50.180 C433.962,50.180 433.674,50.084 433.434,49.892 C433.098,49.748 432.858,49.508 432.714,49.172 C432.522,48.932 432.390,48.632 432.318,48.272 C432.246,47.912 432.185,47.685 432.138,47.588 C432.041,46.916 431.994,45.980 431.994,44.780 C432.041,43.581 432.162,41.828 432.354,39.524 C432.450,38.372 432.498,37.533 432.498,37.004 C432.498,35.949 432.473,35.229 432.426,34.844 C432.378,34.653 432.257,34.509 432.066,34.412 C431.922,34.316 431.730,34.388 431.490,34.628 L431.058,35.060 C430.722,35.492 430.385,36.068 430.050,36.788 C429.809,37.220 429.498,37.868 429.114,38.732 C428.394,40.604 427.937,41.853 427.746,42.476 C427.122,44.301 426.546,46.245 426.018,48.308 L425.370,50.684 C424.362,54.525 422.202,56.444 418.890,56.444 C417.018,56.444 415.686,55.700 414.894,54.212 C414.102,52.725 413.706,50.684 413.706,48.092 C413.706,47.916 413.707,47.737 413.711,47.553 C412.433,49.498 410.980,51.370 409.351,53.168 C406.111,56.744 402.306,58.532 397.939,58.532 C395.682,58.532 394.110,57.644 393.223,55.868 C392.334,54.093 391.891,51.645 391.891,48.524 C391.891,47.181 391.914,46.173 391.963,45.500 C389.227,48.236 386.298,49.604 383.179,49.604 C380.922,49.604 379.230,49.040 378.103,47.912 C377.955,47.764 377.817,47.610 377.689,47.452 C376.541,48.819 375.315,50.173 373.999,51.512 C371.238,54.320 368.491,56.228 365.755,57.236 C365.035,57.572 364.675,57.740 364.675,57.740 C364.675,57.740 364.243,57.740 363.379,57.740 C363.235,57.788 362.994,57.812 362.659,57.812 L362.587,57.812 C359.163,57.812 357.347,51.112 357.136,37.712 C356.662,37.559 356.205,37.404 355.675,37.256 C354.043,36.800 352.459,36.572 350.923,36.572 C348.666,36.572 346.891,37.148 345.595,38.300 C346.747,40.028 347.635,41.300 348.259,42.116 C350.995,46.148 353.035,49.388 354.379,51.836 C355.722,54.284 356.395,56.541 356.395,58.604 C356.395,61.099 355.146,63.092 352.651,64.580 C350.155,65.828 347.946,66.452 346.027,66.452 C345.354,66.452 344.683,66.380 344.011,66.236 L343.939,66.236 C343.795,66.236 343.698,66.211 343.651,66.164 C343.027,66.067 342.427,65.900 341.851,65.660 C341.178,65.468 340.339,65.059 339.331,64.436 C338.226,63.716 337.315,62.899 336.595,61.988 C335.683,60.836 335.011,59.540 334.579,58.100 L334.507,57.524 L334.435,57.380 L334.435,57.236 L334.363,56.948 L334.291,56.732 L334.291,56.444 C334.243,56.300 334.219,56.109 334.219,55.868 C334.075,55.148 334.003,54.381 334.003,53.564 C334.003,51.836 334.194,50.228 334.579,48.740 C335.011,47.253 335.634,45.741 336.451,44.204 L336.595,43.988 C335.827,42.933 335.035,41.781 334.219,40.532 C332.059,37.076 330.979,34.100 330.979,31.604 C330.979,29.348 331.663,27.536 333.031,26.168 C334.399,24.800 335.947,23.781 337.675,23.108 C339.403,22.436 340.267,22.172 340.267,22.316 C339.931,23.133 339.763,24.020 339.763,24.980 C339.763,26.468 340.147,28.124 340.915,29.948 C341.682,31.773 342.739,33.789 344.083,35.996 C345.955,34.941 348.043,34.412 350.347,34.412 C352.122,34.412 353.839,34.676 355.495,35.204 C356.076,35.390 356.593,35.588 357.118,35.785 C357.117,35.520 357.115,35.258 357.115,34.988 C357.115,28.220 357.522,19.940 358.339,10.148 C358.627,7.268 358.866,5.228 359.059,4.028 C359.250,2.829 359.599,1.844 360.103,1.076 C360.607,0.309 361.363,-0.051 362.371,-0.004 C362.803,-0.004 363.474,0.104 364.387,0.320 C365.298,0.536 366.282,1.004 367.339,1.724 C368.730,2.636 370.003,3.981 371.155,5.756 C372.402,7.916 373.243,10.436 373.675,13.316 C373.914,14.997 374.035,16.437 374.035,17.636 C374.035,21.140 373.290,24.236 371.803,26.924 C370.939,28.508 369.882,29.924 368.635,31.172 C368.491,35.108 368.419,38.780 368.419,42.188 L368.419,45.284 C368.514,46.868 368.658,47.973 368.851,48.596 C369.042,49.220 369.355,49.532 369.787,49.532 C370.170,49.532 370.890,49.197 371.947,48.524 C373.613,47.468 375.131,46.219 376.505,44.784 C376.444,44.414 376.411,44.030 376.411,43.628 C376.411,41.948 376.890,40.256 377.851,38.552 C378.810,36.849 380.130,35.492 381.811,34.484 C384.354,32.900 387.186,32.108 390.307,32.108 C391.410,32.108 392.442,32.205 393.403,32.396 C393.450,31.868 393.475,31.100 393.475,30.092 C393.475,29.037 393.403,28.196 393.259,27.572 C393.403,27.525 393.750,27.464 394.303,27.392 C394.854,27.320 395.466,27.284 396.139,27.284 C398.394,27.284 400.374,27.860 402.079,29.012 C403.782,30.164 404.635,32.300 404.635,35.420 L404.563,36.716 C404.322,39.981 404.203,42.548 404.203,44.420 C404.203,49.364 404.898,51.836 406.291,51.836 C406.962,51.836 407.826,51.236 408.883,50.036 C410.802,47.876 412.398,45.633 413.671,43.304 C413.805,43.059 413.933,42.819 414.060,42.580 C414.234,40.930 414.428,39.333 414.642,37.796 C415.218,33.380 415.506,30.405 415.506,28.868 C415.506,27.860 415.434,26.972 415.290,26.204 C415.434,26.157 415.746,26.096 416.226,26.024 C416.705,25.952 417.258,25.916 417.882,25.916 C419.994,25.916 421.842,26.612 423.426,28.004 C425.010,29.397 425.802,31.964 425.802,35.708 L425.730,37.148 L425.730,37.508 C426.690,35.828 427.746,34.340 428.898,33.044 C430.050,31.748 431.177,31.100 432.282,31.100 C433.913,31.100 434.730,32.637 434.730,35.708 C434.730,36.476 434.610,37.940 434.370,40.100 C434.370,40.485 434.322,41.012 434.226,41.684 L434.226,42.116 C434.129,42.692 434.034,43.604 433.938,44.852 C433.938,45.957 433.962,46.724 434.010,47.156 L434.226,47.876 L434.298,47.948 L434.442,48.020 L434.514,48.020 L434.730,47.948 L434.874,47.948 L434.946,47.948 C434.946,47.901 434.993,47.876 435.090,47.876 C435.137,47.829 435.198,47.804 435.270,47.804 C435.342,47.804 435.402,47.780 435.450,47.732 L435.810,47.444 C435.954,47.348 436.386,46.940 437.106,46.220 C437.479,45.781 437.829,45.320 438.162,44.841 C437.802,44.068 437.609,43.213 437.609,42.260 C437.609,40.532 438.149,38.804 439.229,37.076 C440.309,35.348 441.737,33.980 443.513,32.972 C445.817,31.724 448.312,31.100 451.001,31.100 C452.344,31.100 453.737,31.269 455.177,31.604 C455.705,27.525 456.088,22.928 456.329,17.816 C456.569,12.704 456.689,8.157 456.689,4.172 C456.689,2.012 456.664,0.836 456.617,0.644 C456.617,0.453 457.672,0.489 459.785,0.752 C461.897,1.016 463.792,1.808 465.473,3.128 C467.153,4.449 467.993,6.548 467.993,9.428 C467.993,9.813 467.945,10.436 467.849,11.300 C467.705,12.452 467.392,14.732 466.913,18.140 C466.240,22.845 465.713,26.900 465.329,30.308 C464.944,33.717 464.753,36.692 464.753,39.236 C464.753,43.700 465.497,45.932 466.985,45.932 C467.417,45.932 467.896,45.764 468.425,45.428 C470.153,44.276 471.581,43.052 472.709,41.756 C473.836,40.460 474.689,39.297 475.265,38.264 C475.841,37.232 476.129,36.669 476.129,36.572 L477.857,37.796 C477.040,39.909 476.057,42.044 474.905,44.204 ZM343.651,53.816 C342.690,52.208 341.034,49.845 338.683,46.724 C338.298,47.541 337.987,48.477 337.747,49.532 C337.459,50.925 337.339,52.244 337.387,53.492 L337.603,55.364 L338.035,57.092 C338.275,58.003 338.730,58.867 339.403,59.684 C339.835,60.163 340.483,60.692 341.347,61.268 L341.779,61.484 C342.211,61.675 342.690,61.772 343.219,61.772 C344.035,61.772 344.562,61.340 344.803,60.476 C344.994,59.900 345.091,59.276 345.091,58.604 C345.091,57.020 344.611,55.425 343.651,53.816 ZM371.803,20.084 C371.803,20.037 371.826,19.484 371.875,18.428 C371.922,17.373 371.778,16.052 371.443,14.468 C371.106,12.884 370.579,11.564 369.859,10.508 C369.378,16.892 369.018,22.652 368.779,27.788 C370.410,25.532 371.418,22.964 371.803,20.084 ZM387.031,37.220 C385.087,37.988 384.115,39.500 384.115,41.756 C384.115,43.437 384.738,44.276 385.987,44.276 C386.851,44.276 387.895,43.869 389.119,43.052 C390.343,42.236 391.482,41.277 392.539,40.172 C392.730,38.348 392.899,36.980 393.043,36.068 C390.978,36.068 388.975,36.453 387.031,37.220 ZM448.373,36.104 C446.381,36.752 445.385,38.228 445.385,40.532 C445.385,41.252 445.540,41.804 445.853,42.188 C446.165,42.573 446.609,42.764 447.185,42.764 C448.337,42.764 449.657,42.044 451.145,40.604 C452.632,39.164 453.784,37.364 454.601,35.204 C452.441,35.157 450.364,35.456 448.373,36.104 ZM324.319,60.656 C322.471,61.544 320.851,61.988 319.459,61.988 C317.058,61.988 315.379,60.307 314.419,56.948 C313.458,53.589 312.979,49.004 312.979,43.196 C312.979,39.981 313.087,36.716 313.303,33.404 C313.519,30.092 313.843,25.700 314.275,20.228 C314.322,19.364 314.479,17.337 314.743,14.144 C315.006,10.952 315.139,8.445 315.139,6.620 C315.139,5.036 315.042,3.932 314.851,3.308 C314.995,3.261 315.379,3.200 316.003,3.128 C316.626,3.056 317.323,3.020 318.091,3.020 C320.635,3.020 322.867,3.668 324.787,4.964 C326.706,6.260 327.667,8.661 327.667,12.164 C327.667,12.740 327.642,13.197 327.595,13.532 C326.587,27.500 326.083,38.012 326.083,45.068 C326.083,52.700 326.611,56.852 327.667,57.524 C327.282,58.723 326.166,59.767 324.319,60.656 ZM279.284,57.092 C276.692,57.092 274.879,56.084 273.848,54.068 C273.421,53.236 273.088,52.282 272.838,51.221 C272.188,52.292 271.472,53.361 270.681,54.428 C267.585,58.604 263.949,60.692 259.773,60.692 C255.165,60.692 252.908,56.660 253.005,48.596 C250.557,52.388 247.436,54.188 243.645,53.996 C239.326,53.809 237.121,50.293 237.025,43.451 C236.829,43.773 236.626,44.105 236.410,44.456 C234.034,48.320 231.142,51.872 227.734,55.112 C224.325,58.352 220.750,59.972 217.006,59.972 C215.518,59.972 214.461,59.407 213.838,58.280 C213.214,57.153 212.902,55.556 212.902,53.492 C212.902,51.236 213.334,47.708 214.198,42.908 C214.294,42.285 214.497,40.964 214.810,38.948 C215.122,36.932 215.278,35.276 215.278,33.980 C215.278,31.388 214.558,30.092 213.118,30.092 C212.830,30.092 212.614,30.117 212.470,30.164 C212.422,30.164 212.398,30.189 212.398,30.236 C211.678,30.477 211.005,30.909 210.382,31.532 C209.614,32.396 209.014,33.285 208.582,34.196 C208.102,35.204 207.670,36.453 207.286,37.940 L206.422,42.332 L206.206,43.556 L206.062,44.204 C205.965,44.396 205.918,44.540 205.918,44.636 L205.630,45.140 L205.270,45.500 L204.910,45.644 L204.622,45.716 L204.478,45.716 C204.190,45.716 203.926,45.644 203.686,45.500 L203.326,45.212 L202.966,44.636 C202.869,44.445 202.822,44.301 202.822,44.204 C202.725,43.869 202.630,43.412 202.534,42.836 L202.174,40.244 L201.958,37.724 L201.598,35.348 C201.550,35.157 201.465,34.833 201.346,34.376 C201.226,33.920 201.094,33.573 200.950,33.332 L200.734,33.044 L200.518,33.260 L200.014,34.124 L199.150,36.068 L198.502,38.084 C198.070,39.428 197.710,40.724 197.422,41.972 L196.054,47.876 L195.694,49.892 C194.733,53.733 192.526,55.652 189.070,55.652 C187.150,55.652 185.805,54.885 185.038,53.348 C184.334,51.940 183.957,50.000 183.898,47.542 C182.619,49.490 181.164,51.366 179.531,53.168 C176.291,56.744 172.486,58.532 168.119,58.532 C165.862,58.532 164.291,57.644 163.403,55.868 C162.514,54.093 162.071,51.645 162.071,48.524 C162.071,47.181 162.095,46.173 162.143,45.500 C159.407,48.236 156.479,49.604 153.359,49.604 C151.102,49.604 149.410,49.040 148.283,47.912 C147.155,46.785 146.591,45.356 146.591,43.628 C146.591,41.948 147.070,40.256 148.031,38.552 C148.991,36.849 150.310,35.492 151.991,34.484 C154.535,32.900 157.366,32.108 160.487,32.108 C161.591,32.108 162.622,32.205 163.583,32.396 C163.630,31.868 163.655,31.100 163.655,30.092 C163.655,29.037 163.583,28.196 163.439,27.572 C163.583,27.525 163.931,27.464 164.483,27.392 C165.034,27.320 165.646,27.284 166.319,27.284 C168.575,27.284 170.555,27.860 172.259,29.012 C173.962,30.164 174.815,32.300 174.815,35.420 L174.743,36.716 C174.502,39.981 174.383,42.548 174.383,44.420 C174.383,49.364 175.078,51.836 176.471,51.836 C177.143,51.836 178.007,51.236 179.063,50.036 C180.982,47.876 182.579,45.633 183.851,43.304 C183.936,43.149 184.015,42.998 184.097,42.846 C184.264,40.937 184.529,38.655 184.894,35.996 C184.990,35.324 185.146,34.016 185.362,32.072 C185.578,30.128 185.686,28.533 185.686,27.284 C185.686,26.324 185.614,25.484 185.470,24.764 C185.614,24.717 185.938,24.656 186.442,24.584 C186.946,24.512 187.510,24.476 188.134,24.476 C190.246,24.476 192.082,25.100 193.642,26.348 C195.201,27.597 195.982,29.924 195.982,33.332 L195.910,34.700 C195.910,35.180 195.862,35.805 195.766,36.572 L196.342,34.988 C196.677,34.172 197.037,33.404 197.422,32.684 C197.806,32.012 198.070,31.604 198.214,31.460 L198.790,30.884 C199.030,30.644 199.341,30.428 199.726,30.236 C199.917,30.140 200.133,30.092 200.374,30.092 C200.470,30.092 200.542,30.068 200.590,30.020 L200.734,30.020 L200.878,30.092 L201.094,30.092 C201.573,30.189 201.958,30.333 202.246,30.524 C202.581,30.812 202.846,31.076 203.038,31.316 L203.470,32.108 L203.974,33.476 C204.070,33.812 204.165,34.268 204.262,34.844 C204.358,35.468 204.453,36.356 204.550,37.508 C204.646,38.660 204.694,39.500 204.694,40.028 L204.694,40.244 C205.270,38.228 205.533,37.292 205.486,37.436 C205.918,35.996 206.469,34.676 207.142,33.476 C207.718,32.372 208.485,31.388 209.446,30.524 C210.166,29.901 211.005,29.420 211.966,29.084 L212.326,29.012 C212.902,28.821 213.838,28.724 215.134,28.724 C217.390,28.724 219.382,29.312 221.110,30.488 C222.838,31.665 223.702,33.812 223.702,36.932 L223.630,38.156 C223.533,39.837 223.342,41.804 223.054,44.060 C222.718,46.988 222.550,49.053 222.550,50.252 C222.550,52.172 222.982,53.132 223.846,53.132 C224.518,53.132 225.621,52.509 227.158,51.260 C229.126,49.676 230.962,47.888 232.666,45.896 C234.369,43.905 235.726,42.164 236.734,40.676 C236.872,40.473 237.000,40.282 237.124,40.099 C237.262,37.950 237.539,35.384 237.957,32.396 C238.292,30.140 238.461,28.605 238.461,27.788 C238.461,27.404 238.436,27.165 238.389,27.068 C238.533,27.021 238.832,26.972 239.289,26.924 C239.744,26.877 240.333,26.852 241.053,26.852 C242.972,26.852 244.628,27.237 246.021,28.004 C247.412,28.772 248.109,30.189 248.109,32.252 C248.109,32.781 248.084,33.188 248.037,33.476 C247.317,38.276 246.957,41.853 246.957,44.204 C246.957,46.844 247.436,48.164 248.397,48.164 C249.117,48.164 250.028,47.588 251.133,46.436 C252.668,44.852 253.725,42.789 254.301,40.244 C254.877,37.700 255.165,35.157 255.165,32.612 C255.165,31.845 255.140,31.208 255.093,30.704 C255.044,30.200 255.021,29.876 255.021,29.732 C255.165,29.685 255.512,29.624 256.065,29.552 C256.616,29.480 257.228,29.444 257.901,29.444 C260.156,29.444 262.149,30.020 263.877,31.172 C265.605,32.324 266.469,34.460 266.469,37.580 L266.397,38.876 L265.893,44.348 C265.556,47.804 265.389,50.180 265.389,51.476 C265.389,53.396 265.724,54.356 266.397,54.356 C266.973,54.356 267.909,53.612 269.205,52.124 C270.421,50.686 271.459,49.012 272.322,47.107 C272.309,46.747 272.300,46.381 272.300,46.004 C272.300,43.460 272.611,39.956 273.236,35.492 C273.571,33.236 273.740,31.701 273.740,30.884 C273.740,30.500 273.715,30.261 273.668,30.164 C273.812,30.117 274.111,30.068 274.568,30.020 C275.023,29.973 275.612,29.948 276.332,29.948 C278.251,29.948 279.907,30.333 281.300,31.100 C282.691,31.868 283.388,33.285 283.388,35.348 C283.388,35.877 283.363,36.284 283.316,36.572 C282.740,40.316 282.452,43.412 282.452,45.860 C282.452,49.220 283.147,50.900 284.540,50.900 C285.163,50.900 285.955,50.565 286.916,49.892 C288.451,48.837 289.976,47.217 291.488,45.032 C293.000,42.848 294.319,40.676 295.448,38.516 C296.575,36.356 297.140,35.229 297.140,35.132 L299.228,35.924 C299.084,36.212 297.511,39.812 294.512,46.724 C291.511,53.636 286.435,57.092 279.284,57.092 ZM157.211,37.220 C155.267,37.988 154.295,39.500 154.295,41.756 C154.295,43.437 154.918,44.276 156.167,44.276 C157.031,44.276 158.075,43.869 159.299,43.052 C160.523,42.236 161.663,41.277 162.719,40.172 C162.910,38.348 163.079,36.980 163.223,36.068 C161.159,36.068 159.155,36.453 157.211,37.220 ZM279.284,25.988 C277.795,25.988 276.523,25.460 275.468,24.404 C274.411,23.349 273.884,22.076 273.884,20.588 C273.884,19.101 274.411,17.828 275.468,16.772 C276.523,15.717 277.795,15.188 279.284,15.188 C280.771,15.188 282.043,15.717 283.100,16.772 C284.155,17.828 284.684,19.101 284.684,20.588 C284.684,22.076 284.155,23.349 283.100,24.404 C282.043,25.460 280.771,25.988 279.284,25.988 ZM134.927,62.600 C132.095,63.056 128.759,63.356 124.919,63.500 C122.039,63.596 120.311,63.763 119.735,64.004 C119.687,63.860 119.579,63.511 119.411,62.960 C119.243,62.408 119.087,61.724 118.943,60.908 C118.799,60.091 118.727,59.252 118.727,58.388 C118.727,54.212 120.743,52.005 124.775,51.764 C130.007,51.524 133.655,51.164 135.719,50.684 C137.783,50.205 138.815,49.485 138.815,48.524 C138.815,48.189 138.695,47.780 138.455,47.300 C137.783,46.052 136.847,44.877 135.647,43.772 C134.447,42.668 132.791,41.300 130.679,39.668 C128.423,37.940 126.599,36.453 125.207,35.204 C123.815,33.956 122.639,32.480 121.679,30.776 C120.719,29.073 120.239,27.212 120.239,25.196 C120.239,20.397 123.239,14.637 129.239,7.916 C130.583,6.573 131.519,5.684 132.047,5.252 C134.255,3.524 136.271,2.660 138.095,2.660 C138.767,2.660 139.367,2.757 139.895,2.948 C143.111,3.956 144.719,6.164 144.719,9.572 C144.719,10.628 144.575,11.780 144.287,13.028 C143.711,15.236 143.219,17.852 142.811,20.876 C142.403,23.900 142.199,26.060 142.199,27.356 L139.247,27.356 C139.295,26.540 139.427,24.933 139.643,22.532 C139.859,20.132 140.111,17.612 140.399,14.972 C140.495,14.540 140.399,14.324 140.111,14.324 C139.679,14.324 138.551,15.236 136.727,17.060 C132.407,21.380 130.247,25.340 130.247,28.940 C130.247,31.148 130.895,33.164 132.191,34.988 C133.487,36.813 135.407,38.996 137.951,41.540 C140.207,43.700 141.923,45.561 143.099,47.120 C144.275,48.680 144.935,50.349 145.079,52.124 C145.367,55.340 144.455,57.776 142.343,59.432 C140.231,61.088 137.759,62.143 134.927,62.600 ZM96.733,50.036 C94.980,52.437 93.193,53.636 91.369,53.636 C89.688,53.636 88.464,52.496 87.697,50.216 C86.929,47.937 86.257,44.661 85.681,40.388 C85.201,36.980 84.720,34.437 84.241,32.756 C83.761,31.076 83.017,30.236 82.009,30.236 C81.145,30.236 80.508,30.968 80.101,32.432 C79.693,33.897 79.297,36.212 78.913,39.380 C78.337,43.268 77.761,46.425 77.185,48.848 C76.609,51.272 75.625,53.384 74.233,55.184 C72.840,56.984 70.945,57.859 68.545,57.812 C64.645,57.955 62.679,51.921 62.643,39.719 L60.913,40.460 C60.193,40.748 59.304,41.061 58.249,41.396 L57.097,41.684 C56.953,42.548 56.737,43.412 56.449,44.276 C55.441,47.397 53.796,49.953 51.517,51.944 C49.237,53.936 46.825,54.932 44.281,54.932 C43.369,54.932 42.481,54.788 41.617,54.500 C39.457,53.828 37.740,52.448 36.469,50.360 C35.791,49.246 35.299,48.031 34.982,46.719 C34.424,47.726 33.783,48.713 33.049,49.676 C33.001,49.773 32.593,50.324 31.825,51.332 C31.537,51.717 31.033,52.268 30.313,52.988 C29.881,53.468 29.257,53.996 28.441,54.572 L27.289,55.220 C27.001,55.364 26.521,55.533 25.849,55.724 C25.081,55.821 24.505,55.844 24.121,55.796 L23.185,55.580 L22.753,55.436 L22.537,55.292 L22.393,55.220 L22.321,55.220 L22.321,55.148 L22.177,55.148 L22.033,55.004 L21.817,54.932 L21.673,54.788 C21.385,54.644 21.169,54.476 21.025,54.284 C20.881,54.188 20.521,53.852 19.945,53.276 C19.369,52.556 18.865,51.836 18.433,51.116 C17.713,49.917 17.305,49.220 17.209,49.028 C16.633,47.829 16.033,46.412 15.409,44.780 C15.217,44.348 14.737,43.028 13.969,40.820 C13.441,39.045 13.177,38.181 13.177,38.228 C13.129,39.524 13.105,41.421 13.105,43.916 C13.105,51.884 13.633,56.181 14.689,56.804 C14.305,58.003 13.189,59.047 11.341,59.936 C9.493,60.824 7.873,61.268 6.481,61.268 C4.081,61.268 2.401,59.587 1.441,56.228 C0.481,52.869 0.001,48.284 0.001,42.476 C0.001,39.261 0.109,35.996 0.325,32.684 C0.541,29.372 0.865,24.980 1.297,19.508 C1.345,18.644 1.501,16.617 1.765,13.424 C2.029,10.232 2.161,7.725 2.161,5.900 C2.161,4.316 2.065,3.212 1.873,2.588 C2.017,2.541 2.401,2.480 3.025,2.408 C3.649,2.336 4.345,2.300 5.113,2.300 C7.657,2.300 9.889,2.948 11.809,4.244 C13.729,5.540 14.689,7.941 14.689,11.444 C14.689,12.020 14.665,12.477 14.617,12.812 L13.897,23.252 C14.953,21.621 16.333,20.096 18.037,18.680 C19.741,17.265 21.865,15.668 24.409,13.892 C24.601,13.748 25.237,13.305 26.317,12.560 C27.397,11.816 28.057,11.228 28.297,10.796 C28.297,10.700 28.801,11.096 29.809,11.984 C30.817,12.873 31.717,13.892 32.509,15.044 C33.301,16.196 33.697,17.396 33.697,18.644 C33.697,20.372 32.785,21.884 30.961,23.180 C30.145,23.804 29.401,24.357 28.729,24.836 C28.057,25.316 27.457,25.748 26.929,26.132 C25.057,27.428 23.725,28.412 22.933,29.084 C22.141,29.757 21.553,30.428 21.169,31.100 C20.785,31.773 20.593,32.612 20.593,33.620 C20.593,34.052 20.641,34.797 20.737,35.852 L20.737,36.212 L20.737,36.500 C20.833,37.652 20.929,38.588 21.025,39.308 C21.217,41.084 21.385,42.357 21.529,43.124 C21.817,44.852 22.081,46.148 22.321,47.012 C22.417,47.444 22.609,48.092 22.897,48.956 C23.185,49.724 23.425,50.277 23.617,50.612 C23.809,50.900 23.929,51.116 23.977,51.260 L24.193,51.476 C24.193,51.524 24.217,51.548 24.265,51.548 L24.265,51.620 L24.337,51.620 L24.337,51.692 L24.481,51.764 L24.553,51.764 L24.553,51.836 C24.649,51.836 24.721,51.861 24.769,51.908 L25.201,51.908 C25.633,51.908 26.089,51.764 26.569,51.476 C27.241,51.092 27.745,50.756 28.081,50.468 L29.449,49.244 L30.745,47.876 C31.369,47.109 32.089,46.196 32.905,45.140 L34.584,42.762 C34.614,41.077 34.880,39.351 35.425,37.580 C36.433,34.412 38.077,31.856 40.357,29.912 C42.636,27.968 45.073,26.996 47.665,26.996 C48.673,26.996 49.537,27.116 50.257,27.356 C52.225,27.980 53.832,29.240 55.081,31.136 C56.329,33.033 57.049,35.229 57.241,37.724 L57.457,37.724 C58.656,37.484 59.473,37.317 59.905,37.220 C60.289,37.173 61.081,36.957 62.281,36.572 L62.674,36.425 C62.724,33.991 62.832,31.320 63.001,28.400 C63.241,24.249 63.505,20.348 63.793,16.700 C64.321,10.268 64.585,5.997 64.585,3.884 C64.585,2.541 64.513,1.580 64.369,1.004 C64.513,0.957 64.861,0.896 65.413,0.824 C65.964,0.752 66.576,0.716 67.249,0.716 C69.505,0.716 71.485,1.292 73.189,2.444 C74.892,3.596 75.745,5.732 75.745,8.852 L75.673,10.076 C74.856,20.732 74.352,29.660 74.161,36.860 C74.977,33.116 76.033,30.032 77.329,27.608 C78.625,25.185 80.233,23.972 82.153,23.972 C83.689,23.972 84.889,24.728 85.753,26.240 C86.617,27.752 87.229,29.564 87.589,31.676 C87.949,33.789 88.320,36.548 88.705,39.956 C89.040,43.268 89.377,45.716 89.713,47.300 C90.048,48.884 90.601,49.796 91.369,50.036 C92.473,50.324 93.792,49.508 95.329,47.588 C96.865,45.669 98.328,43.473 99.721,41.000 C101.113,38.528 101.809,37.220 101.809,37.076 L103.177,37.508 C103.177,37.749 102.540,39.297 101.269,42.152 C99.997,45.008 98.485,47.636 96.733,50.036 ZM53.569,35.456 C53.089,34.856 52.489,34.556 51.769,34.556 C51.096,34.556 50.281,34.869 49.321,35.492 C49.417,35.684 49.609,35.924 49.897,36.212 C50.281,36.597 50.689,36.885 51.121,37.076 C51.361,37.268 51.625,37.389 51.913,37.436 C52.009,37.436 52.153,37.472 52.345,37.544 C52.536,37.616 52.705,37.652 52.849,37.652 C53.425,37.796 54.001,37.868 54.577,37.868 C54.385,36.860 54.048,36.057 53.569,35.456 ZM52.345,42.116 C52.201,42.116 51.996,42.105 51.733,42.080 C51.469,42.056 51.168,41.997 50.833,41.900 C50.497,41.853 49.993,41.732 49.321,41.540 C48.504,41.300 47.665,40.868 46.801,40.244 L46.225,39.812 C46.128,40.053 45.889,40.652 45.505,41.612 C45.025,43.100 44.785,44.636 44.785,46.220 C44.785,47.757 45.048,49.004 45.577,49.964 C46.105,50.925 46.848,51.404 47.809,51.404 C48.961,51.404 50.124,50.745 51.301,49.424 C52.477,48.104 53.377,46.412 54.001,44.348 C54.192,43.772 54.385,43.005 54.577,42.044 C53.616,42.141 52.873,42.164 52.345,42.116 Z"/>
</svg>
