<svg xmlns="http://www.w3.org/2000/svg" xmlns:xlink="http://www.w3.org/1999/xlink" preserveAspectRatio="xMidYMid" width="468.967" height="81.875" viewBox="0 0 468.967 81.875">
  <defs>
    <style>
      .cls-1 {
        fill: #fff;
        fill-rule: evenodd;
      }
    </style>
  </defs>
  <path d="M468.920,36.746 C468.877,36.960 468.440,38.944 467.608,42.698 C466.776,46.453 464.984,50.186 462.232,53.898 C459.480,57.610 456.248,59.466 452.536,59.466 C448.440,59.466 446.434,55.882 446.520,48.714 C444.344,52.085 441.570,53.685 438.200,53.514 C434.274,53.344 432.312,50.080 432.312,43.722 C432.312,42.857 432.352,41.874 432.430,40.773 L430.777,41.482 C430.137,41.738 429.347,42.016 428.409,42.314 L427.385,42.570 C427.257,43.338 427.065,44.106 426.809,44.874 C425.913,47.648 424.451,49.920 422.425,51.690 C420.398,53.461 418.254,54.346 415.993,54.346 C415.182,54.346 414.393,54.218 413.625,53.962 C411.705,53.365 410.179,52.138 409.049,50.282 C408.129,48.774 407.591,47.058 407.419,45.141 L402.681,51.146 C404.131,57.247 404.857,62.580 404.857,67.146 C404.857,70.474 404.515,73.162 403.833,75.210 C403.150,77.258 402.393,78.719 401.561,79.594 C400.729,80.468 399.993,81.034 399.353,81.290 C398.542,81.674 397.689,81.866 396.793,81.866 C394.403,81.866 392.771,79.423 391.897,74.538 C391.022,69.652 390.585,63.284 390.585,55.434 C390.585,52.917 390.627,49.568 390.713,45.386 C389.731,48.160 388.409,50.442 386.745,52.234 C385.081,54.026 382.990,54.922 380.473,54.922 C378.169,54.922 376.558,54.026 375.641,52.234 C374.723,50.442 374.265,48.053 374.265,45.066 C374.265,42.762 374.542,39.626 375.097,35.658 C375.395,33.653 375.545,32.288 375.545,31.562 C375.545,31.221 375.523,31.008 375.481,30.922 C375.609,30.880 375.865,30.837 376.249,30.794 C376.633,30.752 377.123,30.730 377.721,30.730 C379.427,30.730 380.921,31.072 382.201,31.754 C383.481,32.437 384.121,33.674 384.121,35.466 C384.121,35.978 384.099,36.362 384.057,36.618 C383.417,40.885 383.097,44.064 383.097,46.154 C383.097,48.501 383.523,49.674 384.377,49.674 C385.017,49.674 385.827,49.162 386.809,48.138 C388.174,46.730 389.113,44.906 389.625,42.666 C390.137,40.426 390.393,38.176 390.393,35.914 L390.265,33.354 C390.435,33.312 390.819,33.226 391.417,33.098 C392.014,32.970 392.697,32.906 393.465,32.906 C395.470,32.906 397.198,33.504 398.649,34.698 C400.099,35.893 400.825,38.069 400.825,41.226 L400.761,50.250 C402.894,47.946 404.825,45.770 406.553,43.722 C406.863,43.354 407.157,43.004 407.442,42.662 C407.534,41.438 407.728,40.196 408.121,38.922 C409.017,36.106 410.478,33.834 412.505,32.106 C414.531,30.378 416.697,29.514 419.001,29.514 C419.897,29.514 420.665,29.621 421.305,29.834 C423.054,30.389 424.483,31.509 425.593,33.194 C426.702,34.880 427.342,36.832 427.513,39.050 L427.705,39.050 C428.771,38.837 429.497,38.688 429.881,38.602 C430.222,38.560 430.926,38.368 431.993,38.026 L432.505,37.834 L432.709,37.783 C432.828,36.705 432.971,35.555 433.144,34.314 C433.442,32.309 433.592,30.944 433.592,30.218 C433.592,29.877 433.570,29.664 433.528,29.578 C433.656,29.536 433.922,29.493 434.328,29.450 C434.733,29.408 435.256,29.386 435.896,29.386 C437.602,29.386 439.074,29.728 440.312,30.410 C441.549,31.093 442.168,32.352 442.168,34.186 C442.168,34.656 442.146,35.018 442.104,35.274 C441.464,39.541 441.144,42.720 441.144,44.810 C441.144,47.157 441.570,48.330 442.424,48.330 C443.064,48.330 443.874,47.818 444.856,46.794 C446.221,45.386 447.160,43.552 447.672,41.290 C448.184,39.029 448.440,36.768 448.440,34.506 C448.440,33.824 448.418,33.258 448.376,32.810 C448.333,32.362 448.312,32.074 448.312,31.946 C448.440,31.904 448.749,31.850 449.240,31.786 C449.730,31.722 450.274,31.690 450.872,31.690 C452.877,31.690 454.648,32.202 456.184,33.226 C457.720,34.250 458.488,36.149 458.488,38.922 L458.424,40.074 L457.976,44.938 C457.677,48.010 457.528,50.122 457.528,51.274 C457.528,52.981 457.826,53.834 458.424,53.834 C458.936,53.834 459.768,53.173 460.920,51.850 C462.328,50.186 463.469,48.170 464.344,45.802 C465.218,43.434 465.848,41.280 466.232,39.338 C466.616,37.397 466.808,36.256 466.808,35.914 C466.893,35.872 467.032,35.829 467.224,35.786 C467.416,35.744 467.661,35.722 467.960,35.722 C468.813,35.722 469.133,36.064 468.920,36.746 ZM400.761,51.210 L400.761,54.410 C400.761,61.791 400.974,67.274 401.401,70.858 C402.254,68.255 402.681,65.418 402.681,62.346 C402.681,60.084 402.478,57.983 402.073,56.042 C401.667,54.101 401.230,52.490 400.761,51.210 ZM424.249,37.034 C423.822,36.501 423.289,36.234 422.649,36.234 C422.051,36.234 421.326,36.512 420.473,37.066 C420.558,37.237 420.729,37.450 420.985,37.706 C421.326,38.048 421.689,38.304 422.073,38.474 C422.286,38.645 422.521,38.752 422.777,38.794 C422.862,38.794 422.990,38.826 423.161,38.890 C423.331,38.954 423.481,38.986 423.609,38.986 C424.121,39.114 424.633,39.178 425.145,39.178 C424.974,38.282 424.675,37.568 424.249,37.034 ZM423.161,42.954 C423.033,42.954 422.851,42.944 422.617,42.922 C422.382,42.901 422.115,42.848 421.817,42.762 C421.518,42.720 421.070,42.613 420.473,42.442 C419.747,42.229 419.001,41.845 418.233,41.290 L417.721,40.906 C417.635,41.120 417.422,41.653 417.081,42.506 C416.654,43.829 416.441,45.194 416.441,46.602 C416.441,47.968 416.675,49.077 417.145,49.930 C417.614,50.784 418.275,51.210 419.129,51.210 C420.153,51.210 421.187,50.624 422.233,49.450 C423.278,48.277 424.078,46.773 424.633,44.938 C424.803,44.426 424.974,43.744 425.145,42.890 C424.291,42.976 423.630,42.997 423.161,42.954 ZM359.514,46.346 C358.298,50.869 356.100,55.349 352.922,59.786 C349.743,64.223 346.319,66.356 342.650,66.186 C340.815,66.100 339.514,65.258 338.746,63.658 C337.978,62.058 337.594,59.892 337.594,57.162 C337.594,55.413 337.711,53.557 337.946,51.594 C338.180,49.632 338.511,47.285 338.938,44.554 C339.236,42.549 339.492,40.608 339.706,38.730 C336.890,38.688 334.735,38.432 333.242,37.962 C333.150,37.933 333.078,37.900 332.990,37.870 L332.730,38.026 L331.962,38.538 C331.492,38.752 331.215,38.901 331.130,38.986 C330.959,39.114 330.799,39.210 330.650,39.274 C330.500,39.338 330.362,39.413 330.234,39.498 L329.786,39.754 L329.530,39.882 L329.274,40.010 L328.762,40.266 L328.250,40.522 L326.010,41.482 C325.370,41.738 324.580,42.016 323.642,42.314 L322.618,42.570 C322.490,43.338 322.298,44.106 322.042,44.874 C321.146,47.648 319.684,49.920 317.658,51.690 C315.631,53.461 313.487,54.346 311.226,54.346 C310.415,54.346 309.626,54.218 308.858,53.962 C306.938,53.365 305.412,52.138 304.282,50.282 C303.151,48.426 302.586,46.261 302.586,43.786 C302.586,42.208 302.842,40.586 303.354,38.922 C303.514,38.418 303.699,37.939 303.895,37.470 L296.635,35.914 C297.445,40.650 297.851,45.152 297.851,49.418 C297.851,57.610 296.592,63.071 294.075,65.802 C291.557,68.532 289.253,70.047 287.163,70.346 L287.099,70.346 C285.307,70.303 284.037,67.519 283.291,61.994 C282.544,56.469 282.171,49.397 282.171,40.778 C282.171,34.250 282.331,27.541 282.651,20.650 C282.971,13.760 283.195,9.909 283.323,9.098 C283.579,6.496 283.792,4.661 283.963,3.594 C284.133,2.528 284.443,1.653 284.891,0.970 C285.339,0.288 285.989,-0.032 286.843,0.010 C287.227,0.010 287.824,0.117 288.635,0.330 C289.445,0.544 290.341,0.970 291.323,1.610 C292.688,2.506 293.797,3.701 294.651,5.194 C295.803,6.986 296.571,9.226 296.955,11.914 C297.168,13.322 297.275,14.560 297.275,15.626 C297.275,18.656 296.613,21.429 295.291,23.946 C294.608,25.184 293.755,26.357 292.731,27.466 C292.389,37.536 292.219,45.066 292.219,50.058 C292.219,54.496 292.304,57.908 292.475,60.298 C294.309,56.032 295.227,50.933 295.227,45.002 C295.227,43.125 295.141,41.376 294.971,39.754 C294.800,38.133 294.629,36.832 294.459,35.850 C294.288,34.869 294.181,34.250 294.139,33.994 C296.357,34.293 299.323,34.890 303.035,35.786 C303.572,35.916 304.059,36.034 304.519,36.146 C305.356,34.573 306.427,33.224 307.738,32.106 C309.764,30.378 311.930,29.514 314.234,29.514 C315.130,29.514 315.898,29.621 316.538,29.834 C318.287,30.389 319.716,31.509 320.826,33.194 C321.935,34.880 322.575,36.832 322.746,39.050 L322.938,39.050 C324.004,38.837 324.730,38.688 325.114,38.602 C325.455,38.560 326.159,38.368 327.226,38.026 L327.738,37.834 L328.250,37.706 L328.506,37.578 L328.762,37.514 L329.210,37.322 L330.170,36.938 C330.350,36.878 330.545,36.803 330.747,36.722 C330.554,36.556 330.392,36.383 330.266,36.202 C329.775,35.498 329.530,34.634 329.530,33.610 C329.530,33.312 329.572,32.778 329.658,32.010 L329.722,30.474 C329.722,29.749 329.636,29.130 329.466,28.618 C329.594,28.576 329.871,28.480 330.298,28.330 C330.724,28.181 331.268,28.032 331.930,27.882 C332.591,27.733 333.263,27.658 333.946,27.658 C335.268,27.658 336.324,28.042 337.114,28.810 C337.903,29.578 338.234,30.901 338.106,32.778 C338.063,33.504 338.372,33.962 339.034,34.154 C339.695,34.346 340.303,34.442 340.858,34.442 C342.906,34.272 344.868,34.666 346.746,35.626 C348.623,36.586 349.562,38.560 349.562,41.546 C349.562,41.845 349.519,42.378 349.434,43.146 C349.348,44.000 349.178,45.237 348.922,46.858 C348.282,51.722 347.962,55.072 347.962,56.906 C347.962,59.210 348.367,60.362 349.178,60.362 C349.690,60.362 350.415,59.871 351.354,58.890 C352.847,57.311 354.191,54.997 355.386,51.946 C356.580,48.896 357.540,45.920 358.266,43.018 C358.991,40.117 359.354,38.538 359.354,38.282 C359.396,38.282 359.503,38.261 359.674,38.218 C359.844,38.176 360.058,38.154 360.314,38.154 C361.295,38.154 361.658,38.517 361.402,39.242 C361.359,39.456 360.730,41.824 359.514,46.346 ZM295.291,17.930 C295.291,17.888 295.312,17.397 295.355,16.458 C295.397,15.520 295.269,14.346 294.971,12.938 C294.672,11.530 294.203,10.357 293.563,9.418 L293.435,11.786 C293.136,17.504 292.944,21.706 292.859,24.394 C294.139,22.517 294.949,20.362 295.291,17.930 ZM319.482,37.034 C319.055,36.501 318.522,36.234 317.882,36.234 C317.284,36.234 316.559,36.512 315.706,37.066 C315.791,37.237 315.962,37.450 316.218,37.706 C316.559,38.048 316.922,38.304 317.306,38.474 C317.519,38.645 317.754,38.752 318.010,38.794 C318.095,38.794 318.223,38.826 318.394,38.890 C318.564,38.954 318.714,38.986 318.842,38.986 C319.354,39.114 319.866,39.178 320.378,39.178 C320.207,38.282 319.908,37.568 319.482,37.034 ZM318.394,42.954 C318.266,42.954 318.084,42.944 317.850,42.922 C317.615,42.901 317.348,42.848 317.050,42.762 C316.751,42.720 316.303,42.613 315.706,42.442 C314.980,42.229 314.234,41.845 313.466,41.290 L312.954,40.906 C312.868,41.120 312.655,41.653 312.314,42.506 C311.887,43.829 311.674,45.194 311.674,46.602 C311.674,47.968 311.908,49.077 312.378,49.930 C312.847,50.784 313.508,51.210 314.362,51.210 C315.386,51.210 316.420,50.624 317.466,49.450 C318.511,48.277 319.311,46.773 319.866,44.938 C320.036,44.426 320.207,43.744 320.378,42.890 C319.524,42.976 318.863,42.997 318.394,42.954 ZM252.349,54.666 C249.618,56.160 247.143,56.906 244.925,56.906 C242.834,56.906 241.181,56.224 239.965,54.858 C239.775,54.645 239.606,54.411 239.446,54.166 C238.456,56.046 237.333,57.921 235.997,59.786 C232.818,64.223 229.394,66.356 225.725,66.186 C223.890,66.100 222.589,65.258 221.821,63.658 C221.053,62.058 220.669,59.892 220.669,57.162 C220.669,55.413 220.786,53.557 221.021,51.594 C221.255,49.632 221.586,47.285 222.013,44.554 C222.311,42.549 222.567,40.608 222.781,38.730 C221.329,38.708 220.061,38.627 218.960,38.492 C216.964,42.212 214.634,45.461 211.966,48.234 C209.278,51.029 206.568,53.173 203.838,54.666 C201.107,56.160 198.632,56.906 196.414,56.906 C194.323,56.906 192.670,56.224 191.454,54.858 C190.343,53.611 189.746,51.806 189.650,49.455 C189.524,49.633 189.407,49.819 189.279,49.994 C187.721,52.128 186.132,53.194 184.511,53.194 C183.017,53.194 181.929,52.181 181.247,50.154 C180.564,48.128 179.967,45.216 179.455,41.418 C179.028,38.389 178.601,36.128 178.175,34.634 C177.748,33.141 177.087,32.394 176.191,32.394 C175.423,32.394 174.857,33.045 174.495,34.346 C174.132,35.648 173.780,37.706 173.439,40.522 C172.927,43.978 172.415,46.784 171.903,48.938 C171.391,51.093 170.516,52.970 169.279,54.570 C168.041,56.170 166.356,56.948 164.223,56.906 C160.724,57.034 158.975,51.573 158.975,40.522 C158.975,37.706 159.081,34.453 159.295,30.762 C159.508,27.072 159.743,23.605 159.999,20.362 C160.468,14.645 160.703,10.848 160.703,8.970 C160.703,7.776 160.639,6.922 160.511,6.410 C160.639,6.368 160.948,6.314 161.439,6.250 C161.929,6.186 162.473,6.154 163.071,6.154 C165.076,6.154 166.836,6.666 168.351,7.690 C169.865,8.714 170.623,10.613 170.623,13.386 L170.559,14.474 C169.833,23.946 169.385,31.882 169.215,38.282 C169.940,34.954 170.879,32.213 172.031,30.058 C173.183,27.904 174.612,26.826 176.319,26.826 C177.684,26.826 178.751,27.498 179.519,28.842 C180.287,30.186 180.831,31.797 181.151,33.674 C181.471,35.552 181.801,38.005 182.143,41.034 C182.441,43.978 182.740,46.154 183.039,47.562 C183.337,48.970 183.828,49.781 184.511,49.994 C185.492,50.250 186.665,49.525 188.031,47.818 C188.686,46.999 189.325,46.120 189.951,45.188 C190.633,41.053 192.244,38.121 194.782,36.394 C197.320,34.666 200.019,33.802 202.878,33.802 C203.987,33.802 204.904,33.909 205.630,34.122 C206.568,34.421 207.358,34.976 207.998,35.786 C208.638,36.597 208.958,37.557 208.958,38.666 C208.958,39.904 208.531,41.226 207.678,42.634 C206.824,44.000 205.619,44.928 204.062,45.418 C202.504,45.909 200.936,46.133 199.358,46.090 C199.272,47.029 199.230,47.669 199.230,48.010 C199.230,50.613 200.019,51.914 201.598,51.914 C203.048,51.914 204.915,50.986 207.198,49.130 C209.480,47.274 211.656,45.152 213.726,42.762 C215.373,40.861 216.545,39.344 217.260,38.199 C216.929,38.125 216.600,38.051 216.317,37.962 C214.823,37.493 213.831,36.906 213.341,36.202 C212.850,35.498 212.605,34.634 212.605,33.610 C212.605,33.312 212.647,32.778 212.733,32.010 L212.797,30.474 C212.797,29.749 212.711,29.130 212.541,28.618 C212.669,28.576 212.946,28.480 213.373,28.330 C213.799,28.181 214.343,28.032 215.005,27.882 C215.666,27.733 216.338,27.658 217.021,27.658 C218.343,27.658 219.399,28.042 220.189,28.810 C220.978,29.578 221.309,30.901 221.181,32.778 C221.138,33.504 221.447,33.962 222.109,34.154 C222.770,34.346 223.378,34.442 223.933,34.442 C225.981,34.272 227.943,34.666 229.821,35.626 C231.698,36.586 232.637,38.560 232.637,41.546 C232.637,41.845 232.594,42.378 232.509,43.146 C232.423,44.000 232.253,45.237 231.997,46.858 C231.357,51.722 231.037,55.072 231.037,56.906 C231.037,59.210 231.442,60.362 232.253,60.362 C232.765,60.362 233.490,59.871 234.429,58.890 C235.922,57.311 237.266,54.997 238.461,51.946 C238.470,51.923 238.478,51.901 238.487,51.878 C238.261,50.965 238.141,49.937 238.141,48.778 C238.141,47.797 238.247,46.602 238.461,45.194 C239.143,41.056 240.754,38.122 243.293,36.394 C245.831,34.666 248.530,33.802 251.389,33.802 C252.498,33.802 253.415,33.909 254.141,34.122 C255.079,34.421 255.869,34.976 256.509,35.786 C257.149,36.597 257.469,37.557 257.469,38.666 C257.469,39.904 257.042,41.226 256.189,42.634 C255.335,44.000 254.130,44.928 252.573,45.418 C251.015,45.909 249.447,46.133 247.869,46.090 C247.783,47.029 247.741,47.669 247.741,48.010 C247.741,50.613 248.530,51.914 250.109,51.914 C251.559,51.914 253.426,50.986 255.709,49.130 C257.991,47.274 260.167,45.152 262.237,42.762 C264.306,40.373 265.639,38.581 266.237,37.386 L267.517,38.410 C265.511,42.165 263.165,45.440 260.477,48.234 C257.789,51.029 255.079,53.173 252.349,54.666 ZM206.014,41.418 C206.270,40.906 206.398,40.330 206.398,39.690 C206.398,39.136 206.248,38.666 205.950,38.282 C205.651,37.898 205.160,37.685 204.478,37.642 C202.046,37.429 200.424,39.712 199.614,44.490 C202.771,44.704 204.904,43.680 206.014,41.418 ZM254.525,41.418 C254.781,40.906 254.909,40.330 254.909,39.690 C254.909,39.136 254.759,38.666 254.461,38.282 C254.162,37.898 253.671,37.685 252.989,37.642 C250.557,37.429 248.935,39.712 248.125,44.490 C251.282,44.704 253.415,43.680 254.525,41.418 ZM129.152,54.666 C126.421,56.160 123.946,56.906 121.728,56.906 C119.637,56.906 117.984,56.224 116.768,54.858 C116.579,54.645 116.409,54.411 116.249,54.166 C115.260,56.046 114.137,57.921 112.801,59.786 C109.622,64.223 106.198,66.356 102.529,66.186 C100.694,66.100 99.393,65.258 98.625,63.658 C97.857,62.058 97.473,59.892 97.473,57.162 C97.473,55.413 97.590,53.557 97.825,51.594 C98.059,49.632 98.390,47.285 98.817,44.554 C99.115,42.549 99.371,40.608 99.585,38.730 C96.769,38.688 94.614,38.432 93.121,37.962 C91.627,37.493 90.635,36.906 90.145,36.202 C89.654,35.498 89.409,34.634 89.409,33.610 C89.409,33.312 89.451,32.778 89.537,32.010 L89.601,30.474 C89.601,29.749 89.515,29.130 89.345,28.618 C89.473,28.576 89.750,28.480 90.177,28.330 C90.603,28.181 91.147,28.032 91.809,27.882 C92.470,27.733 93.142,27.658 93.825,27.658 C95.147,27.658 96.203,28.042 96.993,28.810 C97.782,29.578 98.113,30.901 97.985,32.778 C97.942,33.504 98.251,33.962 98.913,34.154 C99.574,34.346 100.182,34.442 100.737,34.442 C102.785,34.272 104.747,34.666 106.625,35.626 C108.502,36.586 109.441,38.560 109.441,41.546 C109.441,41.845 109.398,42.378 109.313,43.146 C109.227,44.000 109.057,45.237 108.801,46.858 C108.161,51.722 107.841,55.072 107.841,56.906 C107.841,59.210 108.246,60.362 109.057,60.362 C109.569,60.362 110.294,59.871 111.233,58.890 C112.726,57.311 114.070,54.997 115.265,51.946 C115.274,51.923 115.281,51.901 115.290,51.878 C115.064,50.965 114.944,49.937 114.944,48.778 C114.944,47.797 115.050,46.602 115.264,45.194 C115.946,41.056 117.557,38.122 120.096,36.394 C122.634,34.666 125.333,33.802 128.192,33.802 C129.301,33.802 130.218,33.909 130.944,34.122 C131.882,34.421 132.672,34.976 133.312,35.786 C133.952,36.597 134.272,37.557 134.272,38.666 C134.272,39.904 133.845,41.226 132.992,42.634 C132.138,44.000 130.933,44.928 129.376,45.418 C127.818,45.909 126.250,46.133 124.672,46.090 C124.586,47.029 124.544,47.669 124.544,48.010 C124.544,50.613 125.333,51.914 126.912,51.914 C128.362,51.914 130.229,50.986 132.512,49.130 C134.794,47.274 136.970,45.152 139.040,42.762 C141.109,40.373 142.442,38.581 143.040,37.386 L144.320,38.410 C142.314,42.165 139.968,45.440 137.280,48.234 C134.592,51.029 131.882,53.173 129.152,54.666 ZM131.328,41.418 C131.584,40.906 131.712,40.330 131.712,39.690 C131.712,39.136 131.562,38.666 131.264,38.282 C130.965,37.898 130.474,37.685 129.792,37.642 C127.360,37.429 125.738,39.712 124.928,44.490 C128.085,44.704 130.218,43.680 131.328,41.418 ZM80.001,23.626 L78.209,22.602 C78.294,22.432 78.454,22.058 78.689,21.482 C78.923,20.906 79.158,20.181 79.393,19.306 C79.627,18.432 79.745,17.568 79.745,16.714 C79.745,14.666 78.977,13.280 77.441,12.554 C78.337,11.914 79.169,11.381 79.937,10.954 C80.705,10.528 81.515,10.314 82.369,10.314 C83.521,10.314 84.353,10.848 84.865,11.914 C85.377,12.938 85.633,14.005 85.633,15.114 C85.633,16.778 85.121,18.378 84.097,19.914 C83.073,21.450 81.707,22.688 80.001,23.626 ZM62.978,51.914 C64.428,51.914 66.295,50.986 68.578,49.130 C70.860,47.274 73.036,45.152 75.106,42.762 C77.175,40.373 78.508,38.581 79.106,37.386 L80.386,38.410 C78.380,42.165 76.034,45.440 73.346,48.234 C70.658,51.029 67.948,53.173 65.218,54.666 C62.487,56.160 60.012,56.906 57.794,56.906 C55.703,56.906 54.050,56.224 52.834,54.858 C51.618,53.493 51.010,51.466 51.010,48.778 C51.010,47.797 51.116,46.602 51.330,45.194 C52.012,41.056 53.623,38.122 56.162,36.394 C58.700,34.666 61.399,33.802 64.258,33.802 C65.367,33.802 66.284,33.909 67.010,34.122 C67.948,34.421 68.738,34.976 69.378,35.786 C70.018,36.597 70.338,37.557 70.338,38.666 C70.338,39.904 69.911,41.226 69.058,42.634 C68.204,44.000 66.999,44.928 65.442,45.418 C63.884,45.909 62.316,46.133 60.738,46.090 C60.652,47.029 60.610,47.669 60.610,48.010 C60.610,50.613 61.399,51.914 62.978,51.914 ZM67.394,41.418 C67.650,40.906 67.778,40.330 67.778,39.690 C67.778,39.136 67.628,38.666 67.330,38.282 C67.031,37.898 66.540,37.685 65.858,37.642 C63.426,37.429 61.804,39.712 60.994,44.490 C64.151,44.704 66.284,43.680 67.394,41.418 ZM53.698,16.842 C53.655,16.885 53.602,16.906 53.538,16.906 C53.474,16.906 53.420,16.928 53.378,16.970 L51.010,17.482 C48.748,17.781 47.532,17.930 47.362,17.930 C47.447,18.101 47.490,18.272 47.490,18.442 C47.703,19.253 47.938,20.426 48.194,21.962 C48.663,24.608 48.898,27.552 48.898,30.794 C48.898,32.544 48.834,34.250 48.706,35.914 C48.535,37.792 48.194,39.925 47.682,42.314 C47.084,44.661 46.466,46.538 45.826,47.946 C45.015,49.738 44.183,51.253 43.330,52.490 C42.562,53.600 41.666,54.624 40.642,55.562 C40.343,55.861 39.639,56.416 38.530,57.226 C38.188,57.396 37.975,57.524 37.890,57.610 L37.698,57.738 L37.698,57.674 C36.503,58.399 35.500,58.847 34.690,59.018 C34.092,59.103 33.687,59.146 33.474,59.146 C31.084,59.146 29.207,57.642 27.842,54.634 C26.476,51.626 25.410,47.626 24.642,42.634 C23.746,45.920 22.210,49.301 20.034,52.778 C17.858,56.256 14.892,58.356 11.138,59.082 L10.434,59.210 C10.306,59.252 10.092,59.274 9.794,59.274 C7.490,59.274 5.740,57.535 4.546,54.058 C3.351,50.581 2.552,46.496 2.146,41.802 C1.741,37.109 1.432,31.328 1.218,24.458 C1.048,19.637 0.898,16.256 0.770,14.314 C0.642,12.373 0.386,10.997 0.002,10.186 C0.002,10.144 0.536,10.005 1.602,9.770 C2.669,9.536 3.735,9.418 4.802,9.418 C6.978,9.418 8.823,10.005 10.338,11.178 C11.852,12.352 12.674,14.410 12.802,17.354 C13.399,32.842 14.295,43.616 15.490,49.674 C15.703,50.656 16.002,51.146 16.386,51.146 C16.684,51.146 17.026,50.890 17.410,50.378 C17.410,50.592 17.847,49.642 18.722,47.530 C19.596,45.418 20.375,42.869 21.058,39.882 C21.740,36.896 22.082,33.653 22.082,30.154 C22.082,27.893 21.890,25.525 21.506,23.050 L21.890,23.946 C21.804,23.690 21.676,23.392 21.506,23.050 C21.634,23.008 21.975,22.890 22.530,22.698 C23.084,22.506 23.778,22.325 24.610,22.154 C25.442,21.984 26.306,21.898 27.202,21.898 C29.122,21.898 30.786,22.442 32.194,23.530 C33.602,24.618 34.476,26.528 34.818,29.258 C35.756,37.365 36.802,43.445 37.954,47.498 C37.996,47.541 38.018,47.626 38.018,47.754 C38.274,48.650 38.743,49.098 39.426,49.098 C40.151,49.098 40.876,48.416 41.602,47.050 L41.986,46.218 C41.986,46.133 42.007,46.069 42.050,46.026 L42.114,45.834 C42.668,44.640 43.202,43.146 43.714,41.354 C44.226,39.264 44.588,37.301 44.802,35.466 C45.015,33.760 45.122,31.626 45.122,29.066 C45.122,26.720 44.972,24.522 44.674,22.474 C44.546,21.365 44.354,20.277 44.098,19.210 C44.055,18.912 43.948,18.464 43.778,17.866 L43.522,17.802 L42.178,17.610 C41.623,17.482 41.132,17.333 40.706,17.162 C40.023,16.906 39.532,16.672 39.234,16.458 C38.722,16.202 38.231,15.840 37.762,15.370 C37.207,14.730 36.844,14.197 36.674,13.770 C36.290,12.960 36.162,12.213 36.290,11.530 C36.290,11.232 36.375,10.826 36.546,10.314 C36.759,9.888 37.015,9.525 37.314,9.226 C37.570,8.885 37.932,8.608 38.402,8.394 C38.658,8.266 39.084,8.160 39.682,8.074 L40.322,8.074 L40.642,8.074 L40.770,8.138 L40.898,8.138 L40.962,8.138 L41.026,8.138 L41.090,8.202 L41.218,8.202 L41.282,8.202 L41.602,8.330 L42.178,8.586 C42.476,8.757 42.775,8.992 43.074,9.290 C43.372,9.461 43.628,9.696 43.842,9.994 C44.140,10.378 44.503,10.912 44.930,11.594 C45.570,12.661 46.082,13.792 46.466,14.986 C46.508,15.029 46.530,15.093 46.530,15.178 L47.106,15.178 C48.215,15.136 49.367,15.029 50.562,14.858 L52.802,14.410 C52.972,14.410 53.079,14.389 53.122,14.346 C53.250,14.346 53.335,14.325 53.378,14.282 L53.570,14.282 L54.210,16.778 L53.954,16.778 C53.911,16.821 53.826,16.842 53.698,16.842 ZM42.114,13.258 C41.858,12.789 41.602,12.405 41.346,12.106 C41.047,11.765 40.791,11.530 40.578,11.402 L40.450,11.338 C40.407,11.338 40.386,11.317 40.386,11.274 L40.322,11.274 L40.258,11.274 L40.194,11.274 L40.130,11.274 C40.087,11.232 40.023,11.210 39.938,11.210 C39.895,11.253 39.810,11.274 39.682,11.274 L39.554,11.402 C39.426,11.445 39.362,11.594 39.362,11.850 L39.362,12.042 C39.362,12.256 39.383,12.426 39.426,12.554 C39.554,12.810 39.724,13.045 39.938,13.258 C40.279,13.600 40.556,13.834 40.770,13.962 C40.898,14.048 41.218,14.197 41.730,14.410 C41.858,14.496 41.922,14.538 41.922,14.538 C41.922,14.538 42.039,14.570 42.274,14.634 C42.508,14.698 42.690,14.752 42.818,14.794 C42.434,13.898 42.199,13.386 42.114,13.258 Z" class="cls-1"/>
</svg>
