<svg xmlns="http://www.w3.org/2000/svg" xmlns:xlink="http://www.w3.org/1999/xlink" preserveAspectRatio="xMidYMid" width="295.717" height="60.031" viewBox="0 0 295.717 60.031">
  <path fill="#00143b" d="M288.690,42.078 C286.001,44.873 283.292,47.017 280.562,48.510 C277.831,50.004 275.356,50.750 273.138,50.750 C271.047,50.750 269.394,50.068 268.178,48.702 C267.988,48.489 267.818,48.255 267.658,48.010 C266.669,49.890 265.546,51.765 264.210,53.630 C261.031,58.067 257.607,60.200 253.938,60.030 C252.103,59.944 250.802,59.102 250.034,57.502 C249.266,55.902 248.882,53.736 248.882,51.006 C248.882,49.257 248.999,47.401 249.234,45.438 C249.468,43.476 249.799,41.129 250.226,38.398 C250.524,36.393 250.780,34.452 250.994,32.574 C250.092,32.561 249.282,32.517 248.516,32.460 C248.114,33.462 247.565,34.747 246.866,36.318 C245.223,40.009 242.962,43.444 240.082,46.622 C237.202,49.801 233.820,51.390 229.938,51.390 C227.932,51.390 226.535,50.601 225.746,49.022 C224.956,47.444 224.562,45.268 224.562,42.494 C224.562,41.300 224.583,40.404 224.626,39.806 C222.194,42.238 219.591,43.454 216.818,43.454 C214.812,43.454 213.308,42.953 212.306,41.950 C211.303,40.948 210.802,39.678 210.802,38.142 C210.802,36.649 211.228,35.145 212.082,33.630 C212.935,32.116 214.108,30.910 215.602,30.014 C217.863,28.606 220.380,27.902 223.154,27.902 C224.135,27.902 225.052,27.988 225.906,28.158 C225.948,27.689 225.970,27.006 225.970,26.110 C225.970,25.172 225.906,24.425 225.778,23.870 C225.906,23.828 226.215,23.774 226.706,23.710 C227.196,23.646 227.740,23.614 228.338,23.614 C230.343,23.614 232.103,24.126 233.618,25.150 C235.132,26.174 235.890,28.073 235.890,30.846 L235.826,31.998 C235.612,34.900 235.506,37.182 235.506,38.846 C235.506,43.241 236.124,45.438 237.362,45.438 C237.959,45.438 238.727,44.905 239.666,43.838 C241.372,41.918 242.791,39.924 243.922,37.854 C245.052,35.785 245.884,33.993 246.418,32.478 C246.448,32.391 246.475,32.314 246.504,32.232 C245.764,32.116 245.086,31.981 244.530,31.806 C243.036,31.337 242.044,30.750 241.554,30.046 C241.063,29.342 240.818,28.478 240.818,27.454 C240.818,27.156 240.860,26.622 240.946,25.854 L241.010,24.318 C241.010,23.593 240.924,22.974 240.754,22.462 C240.882,22.420 241.159,22.324 241.586,22.174 C242.012,22.025 242.556,21.876 243.218,21.726 C243.879,21.577 244.551,21.502 245.234,21.502 C246.556,21.502 247.612,21.886 248.402,22.654 C249.191,23.422 249.522,24.745 249.394,26.622 C249.351,27.348 249.660,27.806 250.322,27.998 C250.983,28.190 251.591,28.286 252.146,28.286 C254.194,28.116 256.156,28.510 258.034,29.470 C259.911,30.430 260.850,32.404 260.850,35.390 C260.850,35.689 260.807,36.222 260.722,36.990 C260.636,37.844 260.466,39.081 260.210,40.702 C259.570,45.566 259.250,48.916 259.250,50.750 C259.250,53.054 259.655,54.206 260.466,54.206 C260.978,54.206 261.703,53.715 262.642,52.734 C264.135,51.155 265.479,48.841 266.674,45.790 C266.683,45.767 266.691,45.745 266.699,45.722 C266.474,44.809 266.354,43.781 266.354,42.622 C266.354,41.641 266.460,40.446 266.674,39.038 C267.356,34.900 268.967,31.966 271.506,30.238 C274.044,28.510 276.743,27.646 279.602,27.646 C280.710,27.646 281.628,27.753 282.354,27.966 C283.292,28.265 284.082,28.820 284.721,29.630 C285.361,30.441 285.682,31.401 285.682,32.510 C285.682,33.748 285.255,35.070 284.402,36.478 C283.548,37.844 282.343,38.772 280.786,39.262 C279.227,39.753 277.660,39.977 276.082,39.934 C275.996,40.873 275.954,41.513 275.954,41.854 C275.954,44.457 276.743,45.758 278.322,45.758 C279.772,45.758 281.639,44.830 283.921,42.974 C286.204,41.118 288.380,38.996 290.450,36.606 C292.519,34.217 293.852,32.425 294.450,31.230 L295.730,32.254 C293.723,36.009 291.378,39.284 288.690,42.078 ZM220.242,32.446 C218.514,33.129 217.650,34.473 217.650,36.478 C217.650,37.972 218.204,38.718 219.314,38.718 C220.082,38.718 221.010,38.356 222.098,37.630 C223.186,36.905 224.199,36.052 225.138,35.070 C225.308,33.449 225.458,32.233 225.586,31.422 C223.751,31.422 221.970,31.764 220.242,32.446 ZM282.738,35.262 C282.994,34.750 283.122,34.174 283.122,33.534 C283.122,32.980 282.972,32.510 282.674,32.126 C282.375,31.742 281.884,31.529 281.202,31.486 C278.770,31.273 277.148,33.556 276.337,38.334 C279.495,38.548 281.628,37.524 282.738,35.262 ZM180.979,48.510 C178.248,50.004 175.773,50.750 173.555,50.750 C171.464,50.750 169.811,50.068 168.595,48.702 C167.379,47.337 166.771,45.310 166.771,42.622 C166.771,41.641 166.877,40.446 167.091,39.038 C167.259,38.019 167.484,37.074 167.765,36.201 C167.546,36.214 167.322,36.222 167.092,36.222 C166.324,36.222 165.534,36.137 164.724,35.966 C164.425,37.886 164.062,39.486 163.636,40.766 C163.081,42.473 162.462,43.881 161.780,44.990 C161.097,46.185 160.286,47.252 159.348,48.190 C158.793,48.830 158.132,49.406 157.364,49.918 C156.169,50.771 154.740,51.432 153.076,51.902 C152.777,51.987 152.372,52.030 151.860,52.030 C149.897,52.030 148.382,50.931 147.316,48.734 C146.249,46.537 145.438,43.646 144.884,40.062 C143.860,42.622 142.420,44.788 140.564,46.558 C138.708,48.329 136.329,49.385 133.428,49.726 C133.257,49.769 133.001,49.790 132.660,49.790 C130.782,49.790 129.396,48.948 128.500,47.262 C127.604,45.577 127.060,43.561 126.868,41.214 C126.676,38.868 126.580,35.860 126.580,32.190 C126.580,29.588 126.537,27.582 126.452,26.174 C126.366,24.766 126.153,23.657 125.812,22.846 C126.025,22.761 126.516,22.633 127.284,22.462 C128.052,22.292 128.884,22.206 129.780,22.206 C131.657,22.206 133.278,22.750 134.644,23.838 C136.009,24.926 136.756,26.878 136.884,29.694 L137.076,35.006 C137.161,38.036 137.289,40.201 137.460,41.502 C137.630,42.804 137.972,43.454 138.484,43.454 C138.953,43.454 139.721,42.665 140.788,41.086 C142.324,38.740 143.476,36.350 144.244,33.918 C143.988,31.145 143.817,29.502 143.732,28.990 C143.860,28.948 144.126,28.841 144.532,28.670 C144.937,28.500 145.470,28.340 146.132,28.190 C146.793,28.041 147.465,27.966 148.148,27.966 C149.598,27.966 150.868,28.414 151.956,29.310 C153.044,30.206 153.758,31.742 154.100,33.918 C154.910,39.252 155.700,42.857 156.468,44.734 C157.022,44.265 157.598,43.582 158.196,42.686 C158.836,41.790 159.412,40.702 159.924,39.422 C160.478,37.929 160.862,36.564 161.076,35.326 L161.204,34.814 C160.094,34.302 159.369,33.940 159.028,33.726 C158.217,33.300 157.534,32.830 156.980,32.318 C156.212,31.636 155.657,30.889 155.316,30.078 C155.102,29.609 154.953,29.076 154.868,28.478 L154.868,28.030 C154.868,27.817 154.910,27.412 154.996,26.814 C155.337,25.662 155.998,24.766 156.980,24.126 C157.961,23.358 159.049,23.038 160.244,23.166 C160.884,23.166 161.481,23.337 162.036,23.678 C162.548,23.892 163.038,24.276 163.508,24.830 C163.849,25.257 164.148,25.748 164.404,26.302 C164.532,26.644 164.681,27.156 164.852,27.838 C164.980,28.350 165.044,28.841 165.044,29.310 C165.086,29.481 165.108,29.737 165.108,30.078 L165.108,30.718 C165.108,31.913 165.044,33.086 164.916,34.238 C165.001,34.281 165.236,34.324 165.620,34.366 C166.004,34.409 166.430,34.430 166.900,34.430 C167.460,34.430 168.005,34.376 168.534,34.271 C169.374,32.549 170.503,31.205 171.923,30.238 C174.461,28.510 177.160,27.646 180.019,27.646 C181.128,27.646 182.045,27.753 182.771,27.966 C183.709,28.265 184.499,28.820 185.139,29.630 C185.779,30.441 186.099,31.401 186.099,32.510 C186.099,33.748 185.672,35.070 184.819,36.478 C183.965,37.844 182.760,38.772 181.203,39.262 C179.645,39.753 178.077,39.977 176.499,39.934 C176.413,40.873 176.371,41.513 176.371,41.854 C176.371,44.457 177.160,45.758 178.739,45.758 C180.189,45.758 182.056,44.830 184.339,42.974 C186.621,41.118 188.797,38.996 190.867,36.606 C192.936,34.217 194.269,32.425 194.867,31.230 L196.147,32.254 C194.141,36.009 191.795,39.284 189.107,42.078 C186.419,44.873 183.709,47.017 180.979,48.510 ZM161.780,29.502 C161.780,29.033 161.758,28.670 161.716,28.414 C161.545,27.646 161.353,27.092 161.140,26.750 C160.841,26.324 160.457,26.068 159.988,25.982 L159.732,25.982 C159.348,25.982 158.921,26.110 158.452,26.366 C157.982,26.622 157.641,27.028 157.428,27.582 C157.385,27.710 157.364,27.924 157.364,28.222 C157.364,28.649 157.406,28.948 157.492,29.118 C157.662,29.588 158.004,30.121 158.516,30.718 C159.198,31.316 159.732,31.742 160.116,31.998 L161.524,32.830 C161.566,32.574 161.609,32.265 161.652,31.902 C161.694,31.540 161.716,31.102 161.716,30.590 C161.758,30.505 161.780,30.313 161.780,30.014 L161.780,29.502 ZM183.155,35.262 C183.411,34.750 183.539,34.174 183.539,33.534 C183.539,32.980 183.389,32.510 183.091,32.126 C182.792,31.742 182.301,31.529 181.619,31.486 C179.187,31.273 177.565,33.556 176.755,38.334 C179.912,38.548 182.045,37.524 183.155,35.262 ZM113.268,30.974 C113.182,31.017 113.097,31.060 113.012,31.102 L112.436,31.486 L111.796,31.870 L111.028,32.382 C110.558,32.596 110.281,32.745 110.196,32.830 C110.025,32.958 109.865,33.054 109.716,33.118 C109.566,33.182 109.428,33.257 109.300,33.342 L108.852,33.598 L108.596,33.726 L108.340,33.854 L107.828,34.110 L107.316,34.366 L105.076,35.326 C104.436,35.582 103.646,35.860 102.708,36.158 L101.684,36.414 C101.556,37.182 101.364,37.950 101.108,38.718 C100.212,41.492 98.750,43.764 96.724,45.534 C94.697,47.305 92.553,48.190 90.292,48.190 C89.481,48.190 88.692,48.062 87.924,47.806 C86.004,47.209 84.478,45.982 83.348,44.126 C82.979,43.519 82.676,42.876 82.427,42.203 C82.065,42.761 81.690,43.306 81.301,43.838 C79.743,45.972 78.154,47.038 76.533,47.038 C75.039,47.038 73.951,46.025 73.269,43.998 C72.586,41.972 71.989,39.060 71.477,35.262 C71.050,32.233 70.623,29.972 70.197,28.478 C69.770,26.985 69.109,26.238 68.213,26.238 C67.445,26.238 66.879,26.889 66.517,28.190 C66.154,29.492 65.802,31.550 65.461,34.366 C64.949,37.822 64.437,40.628 63.925,42.782 C63.413,44.937 62.538,46.814 61.301,48.414 C60.063,50.014 58.378,50.792 56.245,50.750 C52.746,50.878 50.997,45.417 50.997,34.366 C50.997,31.550 51.103,28.297 51.317,24.606 C51.530,20.916 51.765,17.449 52.021,14.206 C52.114,13.079 52.197,12.029 52.271,11.051 L50.997,11.326 C48.735,11.625 47.519,11.774 47.349,11.774 C47.434,11.945 47.477,12.116 47.477,12.286 C47.690,13.097 47.925,14.270 48.181,15.806 C48.650,18.452 48.885,21.396 48.885,24.638 C48.885,26.388 48.821,28.094 48.693,29.758 C48.522,31.636 48.181,33.769 47.669,36.158 C47.071,38.505 46.453,40.382 45.813,41.790 C45.002,43.582 44.170,45.097 43.317,46.334 C42.549,47.444 41.653,48.468 40.629,49.406 C40.330,49.705 39.626,50.260 38.517,51.070 C38.175,51.240 37.962,51.368 37.877,51.454 L37.685,51.582 L37.685,51.518 C36.490,52.243 35.487,52.691 34.677,52.862 C34.079,52.947 33.674,52.990 33.461,52.990 C31.071,52.990 29.194,51.486 27.829,48.478 C26.463,45.470 25.397,41.470 24.629,36.478 C23.733,39.764 22.197,43.145 20.021,46.622 C17.845,50.100 14.879,52.200 11.125,52.926 L10.421,53.054 C10.293,53.096 10.079,53.118 9.781,53.118 C7.477,53.118 5.727,51.379 4.533,47.902 C3.338,44.425 2.539,40.340 2.133,35.646 C1.728,30.953 1.419,25.172 1.205,18.302 C1.035,13.481 0.885,10.100 0.757,8.158 C0.629,6.217 0.373,4.841 -0.011,4.030 C-0.011,3.988 0.523,3.849 1.589,3.614 C2.656,3.380 3.722,3.262 4.789,3.262 C6.965,3.262 8.810,3.849 10.325,5.022 C11.839,6.196 12.661,8.254 12.789,11.198 C13.386,26.686 14.282,37.460 15.477,43.518 C15.690,44.500 15.989,44.990 16.373,44.990 C16.671,44.990 17.013,44.734 17.397,44.222 C17.397,44.436 17.834,43.486 18.709,41.374 C19.583,39.262 20.362,36.713 21.045,33.726 C21.727,30.740 22.069,27.497 22.069,23.998 C22.069,21.737 21.877,19.369 21.493,16.894 L21.877,17.790 C21.791,17.534 21.663,17.236 21.493,16.894 C21.621,16.852 21.962,16.734 22.517,16.542 C23.071,16.350 23.765,16.169 24.597,15.998 C25.429,15.828 26.293,15.742 27.189,15.742 C29.109,15.742 30.773,16.286 32.181,17.374 C33.589,18.462 34.463,20.372 34.805,23.102 C35.743,31.209 36.789,37.289 37.941,41.342 C37.983,41.385 38.005,41.470 38.005,41.598 C38.261,42.494 38.730,42.942 39.413,42.942 C40.138,42.942 40.863,42.260 41.589,40.894 L41.973,40.062 C41.973,39.977 41.994,39.913 42.037,39.870 L42.101,39.678 C42.655,38.484 43.189,36.990 43.701,35.198 C44.213,33.108 44.575,31.145 44.789,29.310 C45.002,27.604 45.109,25.470 45.109,22.910 C45.109,20.564 44.959,18.366 44.661,16.318 C44.533,15.209 44.341,14.121 44.085,13.054 C44.042,12.756 43.935,12.308 43.765,11.710 L43.509,11.646 L42.165,11.454 C41.610,11.326 41.119,11.177 40.693,11.006 C40.010,10.750 39.519,10.516 39.221,10.302 C38.709,10.046 38.218,9.684 37.749,9.214 C37.194,8.574 36.831,8.041 36.661,7.614 C36.277,6.804 36.149,6.057 36.277,5.374 C36.277,5.076 36.362,4.670 36.533,4.158 C36.746,3.732 37.002,3.369 37.301,3.070 C37.557,2.729 37.919,2.452 38.389,2.238 C38.645,2.110 39.071,2.004 39.669,1.918 L40.309,1.918 L40.629,1.918 L40.757,1.982 L40.885,1.982 L40.949,1.982 L41.013,1.982 L41.077,2.046 L41.205,2.046 L41.269,2.046 L41.589,2.174 L42.165,2.430 C42.463,2.601 42.762,2.836 43.061,3.134 C43.359,3.305 43.615,3.540 43.829,3.838 C44.127,4.222 44.490,4.756 44.917,5.438 C45.557,6.505 46.069,7.636 46.453,8.830 C46.495,8.873 46.517,8.937 46.517,9.022 L47.093,9.022 C48.202,8.980 49.354,8.873 50.549,8.702 L52.468,8.318 C52.639,5.786 52.725,3.948 52.725,2.814 C52.725,1.620 52.661,0.766 52.533,0.254 C52.661,0.212 52.970,0.158 53.461,0.094 C53.951,0.030 54.495,-0.002 55.093,-0.002 C57.098,-0.002 58.858,0.510 60.373,1.534 C61.887,2.558 62.645,4.457 62.645,7.230 L62.581,8.318 C61.855,17.790 61.407,25.726 61.237,32.126 C61.962,28.798 62.901,26.057 64.053,23.902 C65.205,21.748 66.634,20.670 68.341,20.670 C69.706,20.670 70.773,21.342 71.541,22.686 C72.309,24.030 72.853,25.641 73.173,27.518 C73.493,29.396 73.823,31.849 74.165,34.878 C74.463,37.822 74.762,39.998 75.061,41.406 C75.359,42.814 75.850,43.625 76.533,43.838 C77.514,44.094 78.687,43.369 80.053,41.662 C80.631,40.939 81.196,40.162 81.751,39.351 C81.687,38.795 81.652,38.222 81.652,37.630 C81.652,36.052 81.908,34.430 82.420,32.766 C83.316,29.950 84.777,27.678 86.804,25.950 C88.830,24.222 90.996,23.358 93.300,23.358 C94.196,23.358 94.964,23.465 95.604,23.678 C97.353,24.233 98.782,25.353 99.892,27.038 C101.001,28.724 101.641,30.676 101.812,32.894 L102.004,32.894 C103.070,32.681 103.796,32.532 104.180,32.446 C104.521,32.404 105.225,32.212 106.292,31.870 L106.804,31.678 L107.316,31.550 L107.572,31.422 L107.828,31.358 L108.276,31.166 L109.236,30.782 C109.492,30.697 109.769,30.590 110.068,30.462 C110.409,30.292 110.665,30.185 110.836,30.142 L111.540,29.822 C111.625,29.780 111.721,29.737 111.828,29.694 C111.934,29.652 112.030,29.588 112.116,29.502 L112.692,29.310 L113.652,28.798 L114.420,30.142 L113.524,30.782 C113.438,30.868 113.353,30.932 113.268,30.974 ZM42.101,7.102 C41.845,6.633 41.589,6.249 41.333,5.950 C41.034,5.609 40.778,5.374 40.565,5.246 L40.437,5.182 C40.394,5.182 40.373,5.161 40.373,5.118 L40.309,5.118 L40.245,5.118 L40.181,5.118 L40.117,5.118 C40.074,5.076 40.010,5.054 39.925,5.054 C39.882,5.097 39.797,5.118 39.669,5.118 L39.541,5.246 C39.413,5.289 39.349,5.438 39.349,5.694 L39.349,5.886 C39.349,6.100 39.370,6.270 39.413,6.398 C39.541,6.654 39.711,6.889 39.925,7.102 C40.266,7.444 40.543,7.678 40.757,7.806 C40.885,7.892 41.205,8.041 41.717,8.254 C41.845,8.340 41.909,8.382 41.909,8.382 C41.909,8.382 42.026,8.414 42.261,8.478 C42.495,8.542 42.677,8.596 42.805,8.638 C42.421,7.742 42.186,7.230 42.101,7.102 ZM98.548,30.878 C98.121,30.345 97.588,30.078 96.948,30.078 C96.350,30.078 95.625,30.356 94.772,30.910 C94.857,31.081 95.028,31.294 95.284,31.550 C95.625,31.892 95.988,32.148 96.372,32.318 C96.585,32.489 96.820,32.596 97.076,32.638 C97.161,32.638 97.289,32.670 97.460,32.734 C97.630,32.798 97.780,32.830 97.908,32.830 C98.420,32.958 98.932,33.022 99.444,33.022 C99.273,32.126 98.974,31.412 98.548,30.878 ZM97.460,36.798 C97.332,36.798 97.150,36.788 96.916,36.766 C96.681,36.745 96.414,36.692 96.116,36.606 C95.817,36.564 95.369,36.457 94.772,36.286 C94.046,36.073 93.300,35.689 92.532,35.134 L92.020,34.750 C91.934,34.964 91.721,35.497 91.380,36.350 C90.953,37.673 90.740,39.038 90.740,40.446 C90.740,41.812 90.974,42.921 91.444,43.774 C91.913,44.628 92.574,45.054 93.428,45.054 C94.452,45.054 95.486,44.468 96.532,43.294 C97.577,42.121 98.377,40.617 98.932,38.782 C99.102,38.270 99.273,37.588 99.444,36.734 C98.590,36.820 97.929,36.841 97.460,36.798 Z"/>
</svg>
