<svg xmlns="http://www.w3.org/2000/svg" xmlns:xlink="http://www.w3.org/1999/xlink" preserveAspectRatio="xMidYMid" width="127.997" height="127.997" viewBox="0 0 48 48">
  <defs>
    <style>
      .cls-1 {
        fill: #d03e2a;
      }

      .cls-2 {
        fill: #67c9d3;
      }

      .cls-2, .cls-3 {
        fill-rule: evenodd;
      }

      .cls-3, .cls-4 {
        fill: #fff;
      }

      .cls-5 {
        fill: #00153b;
      }
    </style>
  </defs>
  <g>
    <circle cx="24" cy="24" r="24" class="cls-1"/>
    <path d="M11.000,14.000 L37.000,14.000 C38.105,14.000 39.000,14.895 39.000,16.000 L39.000,32.000 C39.000,33.105 38.105,34.000 37.000,34.000 L11.000,34.000 C9.895,34.000 9.000,33.105 9.000,32.000 L9.000,16.000 C9.000,14.895 9.895,14.000 11.000,14.000 Z" class="cls-2"/>
    <path d="M11.000,24.066 L30.000,24.066 L30.000,26.031 L11.000,26.031 L11.000,24.066 ZM33.000,24.066 L37.000,24.066 L37.000,26.031 L33.000,26.031 L33.000,24.066 Z" class="cls-3"/>
    <rect x="11" y="29" width="6" height="3" class="cls-4"/>
    <rect x="9" y="17" width="30" height="5" class="cls-5"/>
  </g>
</svg>
