<svg xmlns="http://www.w3.org/2000/svg" xmlns:xlink="http://www.w3.org/1999/xlink" preserveAspectRatio="xMidYMid" width="211.03" height="432.53" viewBox="0 0 211.03 432.53">
  <g>
    <path fill="#e1e9f3" d="M47.482,308.260 L46.338,309.727 L47.015,307.648 L47.482,308.260 ZM211.024,403.751 L208.898,407.360 L205.483,409.535 L203.027,412.436 L201.706,416.198 L202.914,418.664 L201.488,420.219 L199.676,420.541 L199.483,421.935 L196.785,423.232 L196.374,425.907 L194.626,424.989 L192.854,422.620 L190.655,423.232 L189.834,424.731 L187.756,421.725 L187.667,418.640 L186.225,418.237 L183.302,415.280 L178.872,417.528 L177.269,418.535 L173.089,418.527 L171.736,420.630 L168.844,422.120 L167.354,421.379 L166.629,421.830 L165.260,424.618 L165.655,427.164 L158.994,432.530 L157.866,429.186 L155.192,425.746 L153.332,425.391 L150.940,422.201 L152.534,420.638 L152.027,419.816 L153.082,416.440 L156.344,416.545 L158.591,412.887 L157.471,411.759 L157.842,409.801 L157.270,408.730 L158.865,406.168 L154.878,403.960 L156.352,402.018 L158.551,401.124 L157.407,398.803 L157.761,398.207 L156.803,397.539 L152.744,397.942 L150.489,395.992 L148.443,398.151 L146.542,398.401 L145.140,397.490 L144.126,398.683 L142.756,396.096 L143.150,395.101 L143.143,395.081 L143.377,392.527 L141.991,392.382 L142.072,388.394 L139.599,386.589 L138.222,386.807 L137.577,384.172 L135.846,386.178 L132.833,387.669 L127.864,384.849 L127.107,385.437 L125.134,384.913 L123.974,383.238 L122.234,382.891 L120.390,383.801 L117.192,382.416 L116.540,380.659 L114.437,378.992 L115.033,375.737 L113.624,374.842 L113.431,373.255 L112.504,373.287 L112.198,374.182 L110.177,374.037 L108.521,372.316 L106.746,374.037 L107.245,376.180 L106.472,377.904 L107.422,380.369 L105.924,380.369 L106.295,384.672 L104.176,389.723 L102.936,384.769 L102.018,384.841 L102.694,381.811 L101.671,381.473 L100.890,383.737 L98.595,382.150 L96.742,378.702 L94.737,379.983 L94.664,378.202 L96.066,377.525 L94.825,374.883 L93.947,376.091 L93.271,374.343 L92.369,374.254 L92.925,372.167 L92.328,371.499 L92.159,372.579 L90.790,372.619 L88.656,368.840 L88.334,369.654 L86.836,369.549 L85.402,366.221 L84.025,366.512 L82.357,364.876 L80.980,365.214 L79.925,362.846 L80.481,362.467 L80.191,360.324 L81.487,359.792 L81.189,359.011 L80.183,359.599 L79.522,357.254 L80.344,356.577 L79.522,355.240 L80.956,353.242 L81.262,353.830 L83.226,350.392 L81.262,350.148 L79.345,351.228 L78.862,347.892 L76.059,349.979 L74.867,349.391 L71.387,343.397 L71.991,342.027 L73.465,341.688 L74.851,338.103 L75.568,338.522 L74.714,337.015 L73.554,339.980 L71.782,341.237 L70.687,340.657 L70.952,333.946 L69.333,336.846 L69.366,341.503 L68.560,341.986 L64.525,340.665 L61.440,336.838 L62.020,335.525 L60.860,330.530 L59.958,329.772 L59.161,330.353 L58.509,329.345 L59.644,329.192 L59.966,327.959 L58.186,324.745 L58.114,323.206 L57.341,323.875 L56.890,323.190 L57.172,321.490 L57.172,321.490 L52.814,319.178 L52.307,317.808 L50.599,316.567 L50.092,312.917 L48.658,312.820 L48.682,311.556 L46.629,310.879 L48.336,306.439 L46.999,307.197 L48.698,305.634 L48.650,304.723 L44.704,309.002 L43.077,306.173 L41.611,306.673 L39.984,303.668 L40.781,302.999 L38.703,301.025 L38.751,300.195 L36.625,299.905 L37.841,300.832 L36.609,301.895 L35.497,301.493 L34.595,302.910 L32.372,300.493 L30.770,300.759 L30.351,301.726 L28.869,298.866 L29.980,295.917 L29.666,294.781 L28.748,295.603 L29.787,291.977 L28.385,289.730 L28.659,288.255 L28.176,287.764 L27.717,290.970 L27.242,285.814 L24.093,288.118 L23.690,287.071 L22.844,287.377 L23.343,282.825 L25.132,282.092 L23.996,280.609 L24.898,279.715 L24.922,277.975 L24.922,277.974 L24.898,279.691 L23.754,280.440 L24.511,282.027 L22.635,282.221 L21.966,280.746 L20.968,283.300 L16.908,285.234 L16.352,284.339 L15.732,285.645 L12.285,286.048 L13.840,287.071 L14.250,291.059 L12.962,292.566 L12.333,295.490 L11.214,294.120 L9.885,296.071 L8.411,292.719 L7.090,293.146 L6.591,291.841 L4.150,291.816 L2.725,282.833 L-0.006,272.850 L0.485,272.206 L1.847,273.455 L2.797,275.557 L2.910,273.511 L0.969,271.916 L1.887,270.723 L1.331,269.080 L2.233,267.364 L1.573,263.666 L0.550,262.852 L1.742,262.876 L3.006,261.426 L2.531,258.847 L3.168,256.132 L6.325,250.009 L6.921,249.630 L8.403,250.654 L9.611,252.410 L8.282,249.308 L9.490,248.784 L8.371,248.414 L10.489,246.545 L7.734,248.293 L6.107,246.593 L7.654,244.668 L9.740,245.441 L9.232,244.498 L9.909,243.958 L8.870,244.128 L9.055,242.935 L7.936,243.225 L7.420,240.220 L5.995,237.771 L6.736,236.232 L7.461,238.520 L7.638,236.321 L9.434,237.852 L8.701,236.015 L7.517,235.241 L8.846,233.509 L8.419,232.977 L9.345,232.486 L10.122,229.473 L10.118,229.472 L10.360,226.434 L11.536,226.185 L13.550,217.653 L14.307,217.516 L13.840,218.047 L14.653,219.675 L15.305,219.183 L16.167,220.432 L15.901,218.249 L17.851,217.354 L16.433,215.920 L14.081,215.453 L13.992,214.083 L14.830,213.761 L16.175,215.211 L16.441,214.792 L15.990,213.785 L16.699,212.488 L15.901,212.810 L15.160,210.981 L16.489,211.682 L17.520,211.143 L18.994,208.645 L19.002,207.581 L15.990,208.033 L16.650,207.187 L16.352,205.632 L18.012,205.656 L20.122,203.150 L19.945,202.667 L17.947,204.673 L16.820,201.764 L17.786,201.506 L17.528,200.653 L18.277,199.927 L19.043,200.507 L19.735,198.010 L20.621,197.510 L21.620,193.893 L25.542,187.109 L29.626,176.111 L29.795,172.365 L32.904,168.135 L32.429,167.353 L33.387,164.985 L32.364,160.682 L30.842,159.820 L31.317,156.614 L36.601,150.644 L37.100,151.272 L38.461,152.722 L37.374,156.332 L37.399,156.313 L38.486,152.706 L37.124,151.256 L38.002,150.877 L39.001,148.364 L40.918,149.177 L43.745,146.752 L43.125,143.070 L44.446,140.516 L46.274,141.781 L47.458,141.370 L48.739,138.139 L51.272,137.086 L51.276,137.068 L52.025,136.745 L52.798,134.369 L55.279,132.910 L55.279,131.065 L57.373,127.826 L58.629,128.423 L59.781,126.932 L59.153,125.192 L60.812,123.073 L60.031,121.421 L60.885,120.342 L61.698,120.543 L62.906,118.440 L64.912,117.481 L64.501,113.493 L65.910,112.430 L67.111,112.535 L67.425,110.907 L68.802,109.537 L67.940,106.782 L68.472,105.042 L70.630,103.865 L71.822,104.679 L73.804,104.413 L75.117,100.820 L77.637,98.862 L77.847,95.454 L79.152,93.552 L76.840,93.029 L76.188,91.063 L75.020,90.829 L74.577,86.962 L75.318,86.285 L75.237,84.206 L72.249,82.958 L72.080,80.178 L74.094,75.795 L71.081,75.658 L69.768,76.706 L68.770,76.504 L69.962,73.354 L68.697,70.816 L69.390,68.729 L68.133,68.012 L66.651,64.910 L67.344,61.381 L66.217,60.318 L66.168,59.037 L64.920,58.465 L65.137,57.289 L66.209,56.700 L65.991,53.365 L66.982,51.616 L65.516,49.812 L63.720,49.812 L61.859,48.426 L61.513,47.266 L59.185,46.379 L59.451,45.759 L57.792,43.543 L56.165,43.842 L55.214,38.323 L53.249,36.856 L53.072,33.496 L51.976,32.578 L53.740,30.975 L53.724,29.065 L49.899,26.431 L48.553,24.521 L50.390,22.000 L50.414,19.429 L49.464,18.777 L49.834,17.762 L51.679,16.996 L53.926,17.826 L54.570,17.077 L55.617,17.359 L57.872,20.324 L60.732,18.744 L60.691,16.368 L62.173,15.135 L67.054,18.350 L68.125,18.455 L69.084,17.447 L70.671,18.567 L71.468,16.932 L74.480,17.633 L77.654,17.367 L79.184,16.674 L79.256,12.718 L81.431,10.776 L84.298,9.495 L89.654,10.341 L91.563,2.502 L93.134,0.794 L92.788,0.214 L95.623,1.583 L97.201,1.116 L97.991,0.004 L99.054,0.423 L101.398,3.203 L101.720,4.951 L100.069,5.829 L98.635,8.480 L97.354,8.125 L97.370,10.035 L94.849,12.138 L94.261,13.773 L96.646,15.490 L98.474,18.253 L101.051,19.816 L101.051,24.062 L102.799,25.448 L99.529,30.508 L95.574,42.851 L94.986,48.845 L94.962,48.852 L95.043,51.786 L96.549,55.331 L95.977,56.217 L96.259,59.859 L97.532,65.208 L95.961,69.156 L98.393,73.330 L95.695,76.327 L95.285,79.074 L94.221,79.316 L90.315,83.691 L88.245,87.042 L87.174,90.217 L88.390,92.900 L87.399,92.699 L86.449,93.859 L87.496,95.663 L86.272,96.469 L87.125,98.234 L86.054,97.823 L82.849,100.820 L77.726,110.375 L73.006,122.146 L73.216,125.264 L74.682,127.190 L74.521,128.117 L73.796,128.769 L72.676,127.416 L71.548,127.907 L69.599,130.880 L70.018,139.495 L70.058,139.501 L69.776,142.248 L71.331,144.440 L70.799,145.850 L70.123,146.486 L69.245,145.020 L68.496,145.922 L67.070,145.954 L65.548,151.884 L62.632,155.808 L63.196,156.686 L62.608,157.274 L62.101,156.275 L60.587,156.863 L58.396,160.682 L58.017,163.970 L56.084,164.340 L56.302,165.823 L57.647,165.484 L57.164,166.355 L55.738,166.604 L55.496,167.797 L58.509,171.189 L58.517,173.872 L57.905,174.387 L56.922,173.847 L56.100,174.887 L53.579,173.332 L51.091,174.871 L51.735,177.827 L53.620,179.157 L54.304,178.859 L54.183,180.035 L55.150,181.324 L56.551,180.978 L54.699,182.259 L53.652,182.017 L51.155,187.021 L51.397,189.921 L53.040,191.718 L52.693,193.305 L51.840,193.103 L51.340,194.151 L52.121,201.483 L50.615,203.569 L51.767,209.966 L49.512,210.538 L47.385,209.966 L47.047,210.820 L48.336,212.198 L47.208,212.827 L43.399,209.596 L42.931,209.991 L37.930,208.226 L36.134,208.484 L34.692,209.958 L30.544,210.885 L30.423,214.083 L28.933,215.566 L28.023,214.083 L23.972,212.238 L24.640,211.046 L23.923,210.603 L22.852,206.655 L23.166,205.318 L27.910,201.120 L28.023,199.533 L29.859,197.374 L31.197,196.471 L31.196,196.471 L29.835,197.390 L27.999,199.549 L27.886,201.136 L23.142,205.334 L22.828,206.671 L23.899,210.619 L24.616,211.062 L23.948,212.255 L27.999,214.100 L28.909,215.582 L28.877,216.621 L29.980,217.081 L30.496,218.684 L26.485,222.777 L25.132,222.970 L25.768,224.670 L25.252,225.218 L23.940,225.113 L23.980,227.256 L25.285,227.232 L24.946,229.061 L21.990,229.778 L20.645,228.368 L18.471,228.747 L16.283,231.569 L17.424,232.228 L17.617,234.516 L15.764,237.449 L16.095,240.019 L14.983,240.357 L14.895,241.670 L15.636,243.999 L14.476,244.982 L15.297,247.560 L16.538,248.680 L13.284,250.291 L12.994,254.134 L16.256,254.948 L16.715,256.044 L17.891,256.173 L18.938,258.582 L21.314,259.508 L21.072,264.149 L17.987,266.977 L21.596,268.822 L24.036,267.017 L25.430,266.937 L27.008,268.516 L27.009,268.526 L28.015,268.653 L29.400,266.211 L31.994,268.073 L32.252,267.259 L34.603,267.275 L39.581,272.343 L40.257,279.843 L45.485,283.268 L49.762,283.002 L57.381,286.531 L58.905,285.936 L58.903,285.935 L58.025,283.832 L56.141,282.994 L55.826,281.955 L57.188,278.555 L59.113,277.217 L58.790,276.516 L59.524,276.879 L61.086,275.848 L61.473,274.647 L62.705,275.727 L65.379,274.091 L65.137,272.738 L67.819,270.168 L67.425,268.524 L68.214,267.573 L69.124,267.710 L69.809,265.043 L71.460,263.746 L71.879,261.539 L71.194,257.430 L73.473,256.592 L73.345,255.206 L74.376,253.297 L75.970,252.402 L77.219,253.272 L78.258,252.273 L80.924,251.983 L80.803,249.856 L82.486,249.526 L83.614,245.022 L83.574,240.712 L82.486,239.866 L84.041,236.377 L83.743,232.421 L84.894,230.802 L85.692,231.076 L86.602,230.987 L86.980,232.051 L88.454,231.704 L89.139,234.508 L90.959,236.957 L90.613,240.719 L92.482,243.064 L92.763,253.361 L95.148,269.636 L95.872,270.772 L97.830,271.287 L102.203,280.440 L104.869,281.786 L106.770,281.850 L105.441,279.078 L106.343,276.895 L106.061,275.719 L103.629,274.647 L106.552,275.509 L108.663,278.103 L112.505,289.447 L115.653,306.685 L115.678,306.689 L122.419,334.155 L125.198,340.560 L128.975,346.740 L127.179,346.804 L123.313,343.493 L121.348,343.759 L119.808,342.766 L119.794,342.776 L121.356,343.783 L121.104,343.903 L118.336,342.454 L117.901,340.963 L117.893,340.810 L117.901,340.415 L117.828,340.190 L117.828,340.189 L117.869,340.319 L113.938,346.007 L106.883,347.876 L105.876,349.310 L103.443,348.408 L100.818,349.930 L100.813,349.952 L103.435,348.432 L105.868,349.334 L106.875,347.900 L113.930,346.031 L117.860,340.343 L117.885,340.415 L117.877,340.810 L117.877,340.850 L117.885,340.955 L118.320,342.446 L121.090,343.896 L120.220,344.307 L119.085,344.710 L118.505,346.289 L119.769,346.490 L120.196,348.633 L121.896,348.746 L122.097,349.584 L122.814,348.915 L123.958,350.156 L127.324,349.705 L129.628,347.739 L128.879,344.887 L139.527,358.721 L142.418,360.074 L143.497,359.478 L146.824,362.483 L151.382,365.070 L155.093,365.206 L155.112,365.190 L161.805,364.723 L165.655,362.701 L167.346,364.038 L168.458,363.563 L169.754,364.207 L170.576,363.442 L169.142,361.581 L168.071,361.331 L167.121,360.219 L164.817,360.912 L167.121,360.034 L171.309,362.709 L180.265,364.755 L181.948,365.771 L191.066,380.410 L196.140,387.258 L199.185,388.676 L203.413,393.325 L210.670,398.336 L210.195,400.971 L211.024,403.751 ZM75.374,53.534 L74.528,51.834 L75.366,53.534 L76.655,53.961 L76.655,53.959 L75.374,53.534 ZM76.760,47.814 L76.759,47.818 L78.185,48.651 L78.191,48.650 L76.760,47.814 ZM93.190,49.369 L93.207,49.364 L92.272,48.676 L92.264,48.681 L93.190,49.369 ZM91.056,49.506 L91.059,49.504 L87.963,49.006 L87.960,49.008 L91.056,49.506 ZM84.339,51.609 L84.346,51.603 L83.839,49.087 L83.824,49.093 L84.339,51.609 ZM83.163,49.352 L83.175,49.347 L82.091,47.878 L82.084,47.880 L83.163,49.352 ZM65.306,141.322 L68.625,139.296 L68.592,139.291 L65.280,141.313 L65.306,141.322 ZM58.315,141.193 L61.861,140.224 L61.843,140.218 L58.299,141.186 L58.315,141.193 ZM40.064,174.484 L39.275,172.091 L37.777,171.866 L36.875,168.627 L38.703,165.903 L41.103,164.155 L39.943,162.503 L41.240,160.594 L40.902,159.933 L40.161,160.183 L40.459,158.781 L39.235,158.145 L39.339,156.856 L38.018,155.849 L37.996,155.866 L39.315,156.872 L39.210,158.161 L40.435,158.797 L40.137,160.199 L40.878,159.949 L41.216,160.610 L39.919,162.519 L41.079,164.171 L38.679,165.919 L36.850,168.643 L37.753,171.882 L39.251,172.107 L40.040,174.500 L37.704,177.932 L38.155,179.189 L36.086,183.492 L37.079,184.950 L37.108,184.942 L36.110,183.475 L38.180,179.173 L37.728,177.916 L40.064,174.484 ZM37.962,192.225 L37.326,190.219 L34.209,190.123 L35.715,188.463 L36.052,185.249 L36.029,185.256 L35.691,188.479 L34.185,190.138 L37.302,190.235 L37.938,192.241 L35.870,194.095 L35.876,194.095 L37.962,192.225 ZM34.684,194.102 L34.668,194.102 L33.036,197.223 L33.049,197.229 L34.684,194.102 ZM13.549,231.164 L13.556,231.165 L14.275,230.447 L14.271,230.443 L13.549,231.164 ZM27.199,270.462 L24.060,276.726 L24.067,276.736 L27.202,270.482 L27.199,270.462 ZM58.801,313.379 L58.798,313.384 L59.609,313.463 L59.612,313.457 L58.801,313.379 ZM68.721,308.204 L66.200,309.749 L66.200,309.751 L68.722,308.206 L68.721,308.204 ZM77.348,302.459 L75.777,303.837 L75.455,305.328 L72.749,307.511 L72.347,309.425 L72.362,309.421 L72.765,307.503 L75.471,305.320 L75.793,303.829 L77.356,302.458 L77.348,302.459 ZM84.733,350.583 L85.873,350.504 L85.861,350.494 L84.701,350.575 L83.783,350.461 L84.733,350.583 ZM86.852,308.969 L85.592,310.783 L85.619,310.782 L86.879,308.968 L86.852,308.969 ZM97.298,351.228 L93.762,344.299 L94.479,342.945 L94.068,340.158 L92.240,339.545 L92.047,336.298 L89.195,332.157 L89.308,331.013 L87.649,329.538 L88.487,327.661 L86.489,325.615 L87.069,323.577 L85.740,322.360 L87.262,322.078 L87.496,320.442 L85.901,319.298 L85.652,316.091 L84.757,315.576 L84.967,314.512 L83.094,310.854 L83.078,310.854 L84.951,314.512 L84.741,315.576 L85.635,316.092 L85.885,319.298 L87.480,320.443 L87.246,322.078 L85.724,322.360 L87.053,323.577 L86.473,325.615 L88.471,327.661 L87.633,329.538 L89.292,331.013 L89.179,332.157 L92.030,336.298 L92.224,339.545 L94.052,340.158 L94.463,342.945 L93.746,344.299 L97.282,351.228 L95.470,352.058 L91.934,352.162 L89.867,353.653 L89.888,353.669 L91.966,352.170 L95.502,352.066 L97.310,351.237 L97.298,351.228 ZM98.927,352.489 L98.941,352.501 L99.529,351.477 L100.459,351.564 L100.460,351.558 L99.513,351.469 L98.927,352.489 ZM114.027,316.551 L112.674,313.804 L112.629,313.811 L114.028,316.562 L114.027,316.551 ZM114.309,306.456 L114.067,307.679 L114.091,307.680 L114.332,306.460 L114.309,306.456 ZM120.494,337.765 L119.408,336.742 L119.407,336.758 L120.496,337.783 L120.494,337.765 ZM118.247,335.452 L118.618,335.484 L118.835,339.239 L120.526,340.641 L120.406,341.805 L120.414,341.801 L120.535,340.633 L118.843,339.231 L118.626,335.476 L118.143,335.420 L118.137,335.429 L118.247,335.452 ZM118.134,330.087 L118.123,330.095 L116.419,331.529 L116.419,331.529 L118.134,330.087 ZM117.056,335.326 L116.234,335.702 L116.234,335.706 L117.055,335.332 L117.056,335.326 ZM115.646,331.045 L115.655,331.042 L115.638,331.045 L115.581,334.123 L116.224,334.298 L116.242,334.292 L115.589,334.123 L115.646,331.045 ZM116.354,338.143 L116.354,338.134 L115.009,337.998 L115.004,337.977 L115.001,338.006 L116.354,338.143 ZM115.306,334.588 L115.299,334.590 L115.293,334.665 L115.306,334.588 ZM113.656,338.981 L113.663,338.977 L113.632,338.200 L113.625,338.193 L113.656,338.981 ZM112.182,329.152 L113.229,329.925 L114.840,325.986 L118.719,326.807 L118.714,326.783 L114.832,325.961 L113.221,329.901 L112.178,329.130 L112.182,329.152 ZM109.597,331.952 L109.718,330.304 L109.708,330.307 L109.589,331.932 L109.597,331.952 ZM105.368,317.784 L106.955,329.128 L106.961,329.133 L105.376,317.808 L108.348,315.101 L111.038,314.835 L111.884,313.957 L112.100,313.896 L111.876,313.932 L111.031,314.811 L108.340,315.076 L106.810,313.602 L104.310,313.866 L104.305,313.884 L106.826,313.618 L108.357,315.092 L105.368,317.784 ZM105.223,310.081 L105.222,310.087 L109.951,308.623 L110.804,307.544 L110.781,307.543 L109.927,308.623 L105.191,310.089 L99.992,311.892 L99.996,311.894 L105.223,310.081 ZM147.757,388.021 L147.734,388.031 L147.162,390.158 L147.806,394.310 L147.831,394.300 L147.186,390.143 L147.757,388.021 ZM150.432,385.341 L149.551,387.223 L149.562,387.218 L150.444,385.343 L150.432,385.341 ZM155.482,382.126 L157.698,379.925 L155.473,382.127 L155.482,382.126 ZM151.713,385.542 L152.985,384.632 L153.946,382.349 L153.928,382.351 L152.961,384.648 L151.712,385.542 L151.713,385.542 ZM153.251,369.444 L153.428,371.375 L153.444,371.354 L153.275,369.420 L153.960,368.670 L153.251,369.444 ZM154.042,366.133 L154.024,366.149 L155.679,366.784 L155.700,366.761 L154.042,366.133 ZM154.870,375.286 L154.733,372.772 L152.711,372.321 L153.219,371.651 L152.687,372.345 L154.709,372.796 L154.846,375.302 L157.529,377.600 L157.552,377.582 L154.870,375.286 ZM156.500,378.431 L156.473,378.452 L157.745,379.878 L157.770,379.854 L156.500,378.431 ZM120.237,344.315 L121.104,343.903 L121.106,343.904 L120.237,344.315 ZM12.212,203.545 L12.849,202.739 L12.559,201.563 L13.308,200.645 L13.582,201.241 L14.395,201.587 L13.356,205.245 L12.212,203.545 ZM10.312,209.129 L9.442,208.420 L11.335,206.300 L12.043,208.283 L9.981,209.942 L10.312,209.129 ZM4.851,237.746 L3.135,239.084 L3.151,237.174 L5.447,234.000 L5.826,234.371 L4.472,237.021 L4.851,237.746 ZM6.687,239.769 L6.864,241.549 L5.737,240.075 L5.785,238.617 L6.687,239.769 ZM6.945,244.297 L5.326,246.303 L2.491,246.851 L2.346,241.541 L2.998,239.414 L4.553,239.269 L6.945,244.297 ZM3.466,247.673 L6.405,249.381 L3.321,255.834 L2.306,253.143 L3.111,250.976 L2.257,248.084 L3.466,247.673 ZM4.199,305.288 L3.514,303.612 L4.295,303.813 L4.666,303.088 L3.506,299.108 L5.189,297.118 L4.223,292.292 L4.738,292.106 L7.146,293.613 L8.016,296.892 L9.095,296.506 L9.804,298.318 L10.859,298.632 L12.358,297.609 L12.905,299.164 L11.125,301.581 L11.987,303.668 L10.223,304.119 L11.584,308.542 L12.792,307.648 L12.986,309.340 L12.221,309.687 L12.575,310.339 L10.465,310.049 L10.175,311.161 L11.101,311.886 L11.206,313.820 L10.296,313.127 L9.933,313.627 L9.337,311.854 L8.677,311.789 L7.581,312.643 L7.243,314.988 L5.729,316.196 L4.279,314.521 L5.044,313.586 L4.585,310.814 L2.990,309.203 L4.513,309.195 L4.875,307.978 L2.829,306.488 L4.199,305.288 ZM21.700,297.585 L20.661,297.698 L19.357,296.481 L20.718,296.554 L21.443,294.572 L23.343,292.832 L22.031,298.600 L21.700,297.585 ZM20.001,298.793 L21.306,298.512 L20.992,299.519 L21.950,300.598 L21.362,301.992 L22.144,304.981 L21.201,309.090 L20.436,307.592 L20.307,308.945 L19.437,305.207 L19.486,303.523 L20.283,303.732 L20.718,302.298 L18.712,301.009 L17.617,299.140 L17.279,298.141 L18.245,297.472 L20.001,298.793 ZM41.780,311.249 L42.400,314.835 L39.605,311.797 L40.676,310.774 L41.780,311.249 ZM42.231,306.923 L43.125,308.494 L42.634,311.177 L41.353,307.261 L42.231,306.923 ZM45.308,310.573 L44.132,311.910 L43.262,310.267 L43.729,309.284 L45.308,310.573 ZM45.453,312.063 L45.767,311.000 L48.352,311.733 L48.602,312.974 L49.858,313.038 L50.156,314.795 L48.183,319.846 L45.380,319.210 L44.389,316.583 L44.784,314.029 L44.091,312.369 L45.453,312.063 ZM46.452,323.637 L45.235,321.852 L45.251,320.177 L46.790,319.959 L49.053,320.072 L49.681,320.821 L50.213,322.158 L49.568,325.486 L49.004,324.656 L47.885,325.067 L47.039,324.390 L47.522,325.011 L47.289,326.912 L49.182,330.715 L48.449,332.004 L44.961,326.565 L44.478,322.352 L45.163,321.981 L46.452,323.637 ZM56.559,380.047 L57.115,381.505 L55.102,382.464 L53.007,382.013 L53.724,380.466 L56.559,380.047 ZM60.136,384.051 L58.549,384.100 L58.146,380.345 L60.812,381.747 L60.136,384.051 ZM64.018,342.099 L64.718,342.881 L67.570,343.549 L65.508,344.210 L63.929,346.224 L62.906,345.225 L63.099,342.929 L64.018,342.099 ZM76.542,353.000 L73.804,352.339 L73.200,350.567 L73.908,351.131 L76.542,353.000 ZM76.453,375.882 L77.879,374.851 L78.000,371.652 L78.966,372.651 L80.255,374.544 L79.957,377.735 L81.052,382.005 L80.755,383.028 L79.836,382.416 L79.675,383.923 L78.765,384.414 L75.447,379.112 L76.341,378.267 L76.453,375.882 Z" />
    <path fill="#e1e9f3" d="M101.196,216.195 L102.316,217.274 L100.463,220.344 L101.398,222.712 L100.085,222.817 L97.926,225.508 L95.462,226.096 L94.737,225.387 L93.537,225.645 L93.818,223.478 L92.949,221.560 L93.754,221.238 L93.794,219.054 L92.618,217.210 L96.372,216.299 L100.246,217.975 L101.196,216.195 ZM28.925,215.566 L30.415,214.083 L30.536,210.885 L34.684,209.958 L36.126,208.484 L37.922,208.226 L42.923,209.991 L43.391,209.596 L47.200,212.827 L48.328,212.198 L47.039,210.820 L47.378,209.966 L49.504,210.538 L51.759,209.966 L51.759,209.966 L52.387,212.641 L54.498,215.542 L56.245,221.947 L59.773,226.765 L58.895,226.443 L57.397,228.658 L54.989,229.996 L55.198,234.346 L56.165,235.563 L57.598,236.441 L59.910,235.136 L61.545,236.973 L62.794,236.602 L63.196,238.004 L65.540,237.142 L68.456,237.545 L69.841,236.707 L71.879,232.832 L76.027,233.774 L78.234,231.736 L80.134,231.277 L80.070,229.964 L82.406,231.333 L84.902,230.777 L84.902,230.777 L83.751,232.397 L84.049,236.352 L82.494,239.841 L83.582,240.687 L83.622,244.997 L82.494,249.501 L80.811,249.832 L80.932,251.959 L78.266,252.249 L77.227,253.248 L75.978,252.378 L74.384,253.272 L73.353,255.181 L73.482,256.567 L71.202,257.405 L71.887,261.514 L71.468,263.722 L69.817,265.019 L69.132,267.686 L68.222,267.549 L67.433,268.499 L67.827,270.143 L65.145,272.713 L65.387,274.067 L62.713,275.702 L61.481,274.623 L61.094,275.823 L59.531,276.854 L58.799,276.492 L59.121,277.193 L57.196,278.530 L55.835,281.930 L56.149,282.969 L58.033,283.807 L58.911,285.910 L58.911,285.910 L57.365,286.515 L49.745,282.986 L45.469,283.251 L40.241,279.827 L39.565,272.327 L34.587,267.259 L32.235,267.242 L31.978,268.056 L29.384,266.195 L27.999,268.636 L26.976,268.507 L26.976,268.507 L25.397,266.928 L24.004,267.009 L21.564,268.814 L17.955,266.968 L21.040,264.141 L21.282,259.500 L18.906,258.573 L17.859,256.164 L16.683,256.036 L16.224,254.940 L12.962,254.126 L13.252,250.283 L16.506,248.671 L15.265,247.552 L14.444,244.973 L15.603,243.990 L14.862,241.662 L14.951,240.349 L16.062,240.010 L15.732,237.440 L17.585,234.508 L17.391,232.219 L16.248,231.558 L16.248,231.558 L18.447,228.722 L20.621,228.344 L21.966,229.754 L24.922,229.037 L25.260,227.208 L23.956,227.232 L23.915,225.089 L25.228,225.194 L25.744,224.646 L25.107,222.946 L26.461,222.753 L30.472,218.660 L29.956,217.056 L28.853,216.597 L28.925,215.566 ZM101.398,210.240 L100.697,211.336 L95.889,208.677 L94.954,205.551 L95.421,204.375 L100.149,205.003 L101.470,206.413 L101.398,210.240 ZM88.607,186.803 L89.590,188.801 L88.052,190.566 L87.375,189.832 L88.020,188.648 L87.584,187.447 L88.607,186.803 Z"/>
  </g>
</svg>
