<svg version="1.1" id="Layer_1" xmlns="http://www.w3.org/2000/svg" xmlns:xlink="http://www.w3.org/1999/xlink" x="0px" y="0px"
	 viewBox="85.001 6.691 430 398.531" preserveAspectRatio="xMidYMid meet" xml:space="preserve">
<g>
	<path style="fill:#67C9D3;" d="M228.203,27.509c1.337-0.538,2.678-1.06,4.024-1.566C230.878,26.451,229.537,26.972,228.203,27.509z
		"/>
	<path style="fill:#67C9D3;" d="M183.78,52.738c1.261-0.958,2.531-1.898,3.808-2.821C186.307,50.842,185.038,51.782,183.78,52.738z"
		/>
	<path style="fill:#67C9D3;" d="M126.7,122.487c-10.705,22.186-17.267,46.744-18.703,72.669c0.003-0.002,0.005-0.004,0.008-0.006
		C109.413,170.128,115.683,145.395,126.7,122.487z"/>
	<path style="fill:#67C9D3;" d="M223.386,29.528c1.149-0.499,2.302-0.988,3.458-1.464C225.685,28.541,224.533,29.029,223.386,29.528
		z"/>
	<path style="fill:#67C9D3;" d="M248.608,20.602c1.738-0.48,3.481-0.934,5.228-1.364C252.084,19.669,250.341,20.122,248.608,20.602z
		"/>
	<path style="fill:#67C9D3;" d="M218.447,31.759c1.131-0.53,2.265-1.053,3.404-1.56C220.71,30.707,219.576,31.229,218.447,31.759z"
		/>
	<path style="fill:#67C9D3;" d="M178.566,56.84c-2.732,2.228-5.407,4.522-8.011,6.894c1.234-1.122,2.484-2.231,3.754-3.327
		C175.715,59.193,177.136,58.006,178.566,56.84z"/>
	<path style="fill:#67C9D3;" d="M113.145,251.503c-0.004-0.001-0.007-0.003-0.011-0.004c1.948,8.011,4.386,15.83,7.3,23.415h0.003
		h0.017C117.503,267.233,115.068,259.412,113.145,251.503z"/>
	<path style="fill:#67C9D3;" d="M233.021,25.641c5.14-1.907,10.339-3.589,15.585-5.039
		C243.317,22.066,238.118,23.747,233.021,25.641z"/>
	<path style="fill:#67C9D3;" d="M193.132,46.058c1.303-0.873,2.615-1.727,3.934-2.565C195.744,44.333,194.432,45.187,193.132,46.058
		z"/>
	<path style="fill:#67C9D3;" d="M188.185,49.482c1.495-1.071,3-2.118,4.516-3.14C191.18,47.367,189.676,48.415,188.185,49.482z"/>
	<path style="fill:#67C9D3;" d="M163.891,70.099c0.286-0.286,0.578-0.567,0.866-0.851C164.47,69.532,164.177,69.813,163.891,70.099z
		"/>
	<path style="fill:#67C9D3;" d="M160.753,73.315c0.057-0.06,0.115-0.119,0.173-0.179C160.869,73.196,160.81,73.255,160.753,73.315z"
		/>
	<path style="fill:#67C9D3;" d="M167.156,66.906c0.877-0.836,1.767-1.664,2.663-2.487C168.926,65.241,168.034,66.066,167.156,66.906
		z"/>
	<path style="fill:#67C9D3;" d="M179.254,56.286c1.206-0.974,2.421-1.931,3.644-2.872C181.671,54.357,180.457,55.315,179.254,56.286
		z"/>
	<path style="fill:#67C9D3;" d="M198.551,42.566c0.989-0.616,1.982-1.222,2.979-1.818C200.53,41.345,199.538,41.952,198.551,42.566z
		"/>
	<path style="fill:#67C9D3;" d="M203.245,39.734c0.975-0.569,1.956-1.126,2.939-1.676C205.199,38.61,204.218,39.166,203.245,39.734z
		"/>
	<path style="fill:#67C9D3;" d="M207.833,37.136c1.273-0.697,2.553-1.375,3.837-2.04C210.384,35.762,209.104,36.441,207.833,37.136z
		"/>
	<path style="fill:#67C9D3;" d="M212.419,34.701c1.534-0.786,3.077-1.546,4.626-2.287C215.492,33.157,213.948,33.917,212.419,34.701
		z"/>
	<g>
		<path style="fill:#00153B;" d="M300,402.267c-63.875,0-123.669-31.075-160.486-83.262c-1.938,0.538-3.943,0.81-5.992,0.81
			c-2.956,0-5.906-0.555-9.021-1.696c-2.229-0.816-4.33-1.82-6.243-2.983c-6.85-4.171-10.594-9.495-11.133-15.829
			c-0.541-6.331,2.243-12.207,8.274-17.463c0.812-0.707,1.653-1.463,2.569-2.312c-0.099-0.244-1.17-2.94-1.266-3.191l-2.073-5.427
			h0.097c-1.889-5.392-3.549-10.891-4.958-16.425c-9.184-3.835-16.174-10.984-19.351-19.884c-3.748-10.5-1.935-22.15,4.976-31.963
			c2.454-3.483,5.384-6.667,8.727-9.485c1.646-25.284,8.026-49.634,18.977-72.403c8.868-18.438,20.564-35.329,34.765-50.201
			l0.177-0.183c0.997-1.041,2.003-2.076,3.027-3.1l0.987-0.972c0.776-0.766,1.552-1.532,2.344-2.288
			c0.896-0.854,1.804-1.697,2.718-2.537l0.75-0.698c1.26-1.146,2.536-2.277,3.831-3.396c1.359-1.174,2.78-2.365,4.345-3.64
			l0.701-0.565c1.232-0.995,2.472-1.972,3.72-2.931l0.9-0.69c1.287-0.978,2.582-1.937,3.885-2.878l0.61-0.444
			c1.534-1.099,3.085-2.178,4.61-3.206l0.444-0.292c1.327-0.89,2.667-1.762,4.013-2.617c0.377-0.24,1.515-0.946,1.515-0.946
			c1.009-0.628,2.022-1.248,3.042-1.856c0.581-0.348,1.165-0.693,1.75-1.034c0.997-0.582,1.997-1.149,3-1.711l0.506-0.284
			c0.392-0.221,0.784-0.441,1.178-0.657c1.3-0.711,2.606-1.404,3.918-2.083l0.763-0.402c1.489-0.763,3.034-1.527,4.724-2.336
			c0.301-0.144,1.431-0.668,1.431-0.668c1.158-0.542,2.315-1.077,3.478-1.594c0.483-0.215,0.972-0.427,1.461-0.64l0.106-0.046
			c1.17-0.509,2.347-1.008,3.528-1.494l1.389-0.567c1.365-0.549,2.734-1.083,4.108-1.599l0.811-0.308
			c5.227-1.94,10.58-3.671,15.912-5.144c1.723-0.477,3.519-0.945,5.338-1.393l0.149-0.038C268.322,11.558,284.14,9.646,300,9.646
			c108.021,0,195.945,87.708,196.31,195.646c4.595,1.565,8.646,4.475,11.632,8.403c4.325,5.692,5.272,15.313-0.627,21.56
			c-1.899,2.01-2.258,5.209-2.622,12.032c-0.062,1.139-0.123,2.271-0.199,3.4c-0.166,2.476-0.322,4.957-0.478,7.438l-0.008,0.122
			c-0.462,7.412-0.94,15.076-1.775,22.746c-0.643,5.918-2.61,11.362-4.449,15.907c-4.924,12.142-16.271,19.986-28.908,19.986
			c-2.16,0-4.316-0.232-6.442-0.692C425.771,370.148,365.27,402.267,300,402.267z"/>
		<path style="fill:#FFFFFF;" d="M300,13.646c106.212,0,192.31,86.099,192.31,192.31c0,0.801-0.018,1.598-0.028,2.396
			c4.94,0.949,9.355,3.658,12.475,7.763c3.317,4.366,4.092,11.689-0.351,16.392c-2.96,3.135-3.323,7.365-3.707,14.566
			c-0.061,1.118-0.122,2.233-0.196,3.345c-0.166,2.484-0.324,4.971-0.479,7.459c-0.462,7.406-0.938,15.064-1.768,22.683
			c-0.592,5.45-2.448,10.56-4.18,14.84c-4.307,10.624-14.201,17.488-25.201,17.488c-2.805,0-5.553-0.451-8.175-1.295
			c-34.383,52.208-93.51,86.674-160.699,86.674c-65.897,0-124.04-33.155-158.691-83.686c-0.08-0.116-0.158-0.23-0.238-0.346
			c-0.006-0.008-0.014-0.019-0.019-0.028c-2.371,1.065-4.883,1.607-7.531,1.607c-2.482,0-4.98-0.476-7.644-1.452
			c-1.995-0.73-3.857-1.621-5.541-2.645c-2.122-1.292-8.585-5.223-9.227-12.751c-0.642-7.522,5.049-12.48,6.919-14.11
			c1.583-1.378,3.137-2.822,4.687-4.302c-0.022-0.053-0.042-0.105-0.064-0.158c-0.429-1.024-0.852-2.05-1.264-3.082
			c-0.155-0.387-0.31-0.777-0.462-1.168c-0.16-0.412-0.329-0.822-0.487-1.234h0.017c-2.952-7.68-5.386-15.501-7.309-23.411
			c-0.004-0.001-0.007-0.003-0.011-0.004c-9.072-3.194-15.915-9.732-18.952-18.239c-3.306-9.262-1.671-19.582,4.479-28.316
			c2.786-3.956,5.987-7.158,9.335-9.787c0.003-0.002,0.005-0.004,0.008-0.006c1.408-25.023,7.678-49.755,18.695-72.663
			c8.523-17.723,19.897-34.346,34.053-49.172c0.057-0.06,0.115-0.119,0.173-0.179c0.977-1.02,1.962-2.034,2.966-3.037
			c0.286-0.286,0.578-0.567,0.866-0.851c0.794-0.784,1.588-1.569,2.399-2.342c0.877-0.836,1.767-1.663,2.663-2.487
			c0.247-0.227,0.487-0.459,0.736-0.685c1.234-1.122,2.484-2.231,3.754-3.327c1.406-1.214,2.827-2.401,4.257-3.567
			c0.228-0.186,0.458-0.369,0.688-0.554c1.206-0.974,2.421-1.931,3.644-2.872c0.294-0.226,0.588-0.453,0.883-0.677
			c1.261-0.958,2.531-1.898,3.808-2.821c0.199-0.144,0.397-0.292,0.597-0.435c1.495-1.071,3-2.118,4.516-3.14
			c0.143-0.096,0.288-0.188,0.431-0.284c1.303-0.873,2.615-1.727,3.934-2.565c0.493-0.313,0.989-0.618,1.484-0.927
			c0.989-0.616,1.982-1.222,2.979-1.818c0.571-0.341,1.142-0.679,1.715-1.014c0.975-0.569,1.956-1.125,2.939-1.676
			c0.55-0.308,1.098-0.621,1.65-0.923c1.273-0.697,2.553-1.375,3.837-2.04c0.25-0.129,0.497-0.266,0.748-0.395
			c1.534-0.786,3.077-1.546,4.626-2.287c0.466-0.223,0.935-0.436,1.402-0.655c1.131-0.53,2.265-1.053,3.404-1.56
			c0.51-0.227,1.023-0.449,1.535-0.671c1.149-0.499,2.301-0.988,3.458-1.464c0.453-0.186,0.906-0.373,1.36-0.555
			c1.337-0.538,2.678-1.06,4.024-1.566c0.265-0.1,0.529-0.204,0.795-0.302c5.14-1.908,10.339-3.589,15.585-5.039
			c0,0,0.001,0,0.001,0c1.738-0.48,3.481-0.934,5.228-1.364c0.035-0.009,0.07-0.019,0.106-0.028c0,0.001-0.001,0.001-0.001,0.002
			C268.699,15.584,284.122,13.646,300,13.646 M300,5.646c-10.28,0-20.544,0.787-30.675,2.348l0.501-0.903l-17.784,4.347
			c-0.06,0.015-0.119,0.03-0.179,0.046c-1.686,0.416-3.359,0.851-4.979,1.294l-0.445,0.074l-0.396,0.158
			c-5.298,1.477-10.613,3.202-15.806,5.13c-0.177,0.066-0.353,0.133-0.53,0.201l-0.298,0.114c-1.394,0.525-2.805,1.073-4.193,1.632
			c-0.434,0.174-0.865,0.352-1.297,0.53l-0.12,0.049c-1.154,0.475-2.367,0.988-3.603,1.525l-0.152,0.066
			c-0.483,0.21-0.966,0.419-1.447,0.634c-1.058,0.471-2.185,0.987-3.546,1.625l-0.496,0.23c-0.323,0.149-0.645,0.299-0.966,0.453
			c-1.715,0.821-3.292,1.6-4.82,2.383c-0.175,0.09-0.349,0.182-0.523,0.275l-0.257,0.136c-1.413,0.732-2.721,1.427-3.997,2.126
			c-0.413,0.226-0.824,0.457-1.235,0.689l-0.484,0.272c-1.024,0.573-2.045,1.153-3.061,1.746c-0.597,0.348-1.192,0.701-1.787,1.056
			c-1.039,0.621-2.073,1.253-3.103,1.894l-0.395,0.245c-0.384,0.238-0.768,0.477-1.151,0.72c-1.411,0.896-2.79,1.795-4.098,2.672
			l-0.117,0.077c-0.111,0.072-0.222,0.145-0.332,0.219c-1.546,1.042-3.129,2.143-4.703,3.27c-0.135,0.096-0.268,0.194-0.401,0.292
			l-0.218,0.16c-1.344,0.97-2.678,1.958-3.967,2.938c-0.263,0.2-0.524,0.401-0.785,0.601l-0.134,0.103
			c-1.283,0.987-2.559,1.993-3.794,2.99l-0.253,0.204l-0.462,0.372c-1.587,1.294-3.037,2.509-4.432,3.713
			c-1.297,1.12-2.611,2.285-3.906,3.462c-0.169,0.154-0.334,0.309-0.499,0.464l-0.268,0.25c-1.076,0.989-1.957,1.811-2.772,2.588
			c-0.817,0.779-1.617,1.569-2.417,2.359l-0.081,0.08l-0.316,0.309c-0.196,0.192-0.392,0.384-0.586,0.577
			c-0.953,0.953-1.963,1.987-3.088,3.163l-0.041,0.042l-0.143,0.148c-14.488,15.173-26.424,32.409-35.473,51.226
			c-10.932,22.732-17.401,47.007-19.248,72.206c-3.07,2.752-5.793,5.806-8.121,9.111c-7.669,10.891-9.664,23.871-5.473,35.612
			c3.341,9.36,10.416,16.978,19.73,21.406c0.85,3.205,1.781,6.395,2.79,9.558h-0.34l4.137,10.858
			c0.084,0.22,0.171,0.439,0.258,0.658c-0.151,0.133-0.3,0.264-0.449,0.393c-7.051,6.143-10.292,13.149-9.637,20.823
			c0.654,7.675,5.04,14.035,13.034,18.902c2.146,1.304,4.483,2.421,6.954,3.326c3.56,1.305,6.962,1.94,10.395,1.94
			c1.443,0,2.869-0.115,4.27-0.342c37.664,51.938,97.907,82.795,162.209,82.795c65.733,0,126.729-31.929,164.272-85.69
			c1.527,0.207,3.064,0.311,4.603,0.311c14.275,0,27.077-8.824,32.615-22.482c1.944-4.805,4.024-10.576,4.72-16.982
			c0.845-7.76,1.326-15.471,1.792-22.93l0.007-0.12c0.154-2.476,0.311-4.951,0.476-7.424c0.077-1.143,0.14-2.292,0.202-3.443
			c0.261-4.896,0.524-8.438,1.535-9.509c7.635-8.082,6.165-19.802,0.905-26.725c-2.878-3.786-6.607-6.758-10.844-8.701
			c-0.424-25.844-5.706-50.921-15.717-74.591c-10.089-23.854-24.531-45.275-42.925-63.668
			c-18.393-18.393-39.815-32.835-63.668-42.924C353.272,10.943,327.039,5.646,300,5.646L300,5.646z"/>
	</g>
	<path style="fill:#69CAD3;" d="M300,13.646c-15.878,0-31.301,1.938-46.059,5.566c-11.896,22.171,2.13,36.316,6.716,40.135
		c-0.878,0.424-1.901,0.927-3.06,1.514c-4.097,2.064-9.871,5.14-16.597,9.16c-3.37,2-6.963,4.255-10.72,6.706
		c-3.746,2.471-7.661,5.126-11.609,8.012c-3.967,2.863-7.973,5.945-11.968,9.168c-3.976,3.251-7.971,6.604-11.799,10.142
		c-3.868,3.489-7.583,7.149-11.163,10.82c-1.801,1.826-3.491,3.729-5.209,5.561c-1.685,1.865-3.289,3.76-4.897,5.594
		c-1.541,1.89-3.06,3.749-4.543,5.569c-1.422,1.87-2.811,3.702-4.161,5.483c-2.609,3.63-5.035,7.091-7.094,10.405
		c-2.164,3.245-3.843,6.41-5.47,9.121c-1.469,2.805-2.78,5.234-3.796,7.265c-1.928,4.111-3.029,6.46-3.029,6.46
		s1.165-2.318,3.206-6.371c1.071-2,2.448-4.391,3.989-7.143c1.701-2.661,3.458-5.763,5.705-8.936
		c2.141-3.242,4.653-6.62,7.348-10.156c1.394-1.735,2.825-3.514,4.285-5.334c1.527-1.765,3.082-3.569,4.667-5.406
		c1.649-1.776,3.292-3.613,5.013-5.417c1.757-1.771,3.483-3.61,5.32-5.373c3.652-3.541,7.434-7.063,11.365-10.416
		c3.89-3.4,7.94-6.609,11.96-9.716c4.045-3.082,8.092-6.017,12.093-8.74c3.987-2.745,7.929-5.262,11.694-7.6
		c3.779-2.318,7.39-4.446,10.768-6.324c2.607-1.462,5.062-2.783,7.335-3.968c-33.623,31.149-1.729,62.826,6.357,69.938
		c-0.857,0.218-1.721,0.441-2.595,0.657c-3.171,0.741-6.371,1.779-9.644,2.744c-3.267,0.99-6.507,2.227-9.785,3.336
		c-3.218,1.278-6.435,2.554-9.578,3.854c-3.093,1.419-6.136,2.811-9.083,4.161c-2.872,1.488-5.652,2.927-8.286,4.294
		c-2.637,1.356-5.005,2.869-7.254,4.142c-2.227,1.314-4.302,2.457-6.034,3.652c-1.757,1.151-3.287,2.152-4.548,2.977
		c-2.52,1.649-3.959,2.592-3.959,2.592s1.477-0.883,4.064-2.424c1.292-0.772,2.861-1.707,4.662-2.78
		c1.771-1.118,3.893-2.172,6.167-3.386c2.293-1.173,4.711-2.578,7.39-3.818c2.675-1.248,5.494-2.559,8.41-3.92
		c2.974-1.215,6.05-2.471,9.174-3.746c3.171-1.159,6.407-2.285,9.636-3.414c3.284-0.96,6.529-2.044,9.788-2.886
		c1.699-0.424,3.375-0.866,5.036-1.278c-26.273,11.07-45.863,25.449-60.384,41.344c0.033,0.008,0.064,0.017,0.094,0.028
		c1.137,0.368,2.039,0.813,2.576,1.079l0.127,0.061c7.425,3.32,24.534,10.895,46.315,10.895c10.377,0,20.774-1.712,30.905-5.09
		c1.751-0.581,3.572-0.877,5.411-0.877c7.373,0,13.899,4.7,16.237,11.7c1.156,3.466,1.192,7.542,0.243,11.401
		c3.035-2.111,6.568-3.204,10.596-3.204c1.486,0,2.91,0.138,3.987,0.26l0.551,0.064c0.299-0.432,0.728-1.12,1.317-2.21
		c1.361-2.515,2.935-4.673,4.324-6.573c0.639-0.88,1.284-1.754,1.884-2.659c3.237-4.875,8.109-7.558,13.725-7.558
		c1.107,0,2.238,0.111,3.372,0.324c3.569,0.47,12.663,1.892,16.442,9.37c2.758-4.346,5.514-8.695,8.253-13.053
		c3.361-5.345,8.469-8.289,14.383-8.289c1.184,0,2.399,0.125,3.616,0.365c9.39,1.865,13.717,7.138,15.695,11.23
		c2.017,4.183,1.411,9.141-1.699,13.971c-2.614,4.056-5.262,8.084-7.912,12.112c6.651-3.289,13.966-3.558,21.101-0.708
		c6.524,0.503,12.118,3.325,15.872,7.959c0.794,0.979,1.469,2.036,2.069,3.135c2.282-2.341,4.493-4.454,6.446-6.275
		c4.828-4.496,10.687-6.869,16.945-6.869c3.425,0,6.905,0.711,10.355,2.119c6.601,0.672,10.997,3.256,13.841,5.898
		c0.205-0.343,0.407-0.689,0.614-1.037c1.037-1.757,2.078-3.514,3.151-5.243c3.818-6.15,10.419-9.821,17.659-9.821
		c1.348,0,2.672,0.134,3.962,0.382c0.01-0.799,0.028-1.595,0.028-2.396C492.31,99.745,406.212,13.646,300,13.646z"/>
	<g>
		<path style="fill:#FFFFFF;" d="M195.008,333.941l-1.184-3.306h-5.315l-1.165,3.306h-3.215l5.589-15.717h2.944l5.588,15.717
			H195.008z M191.177,322.831l-1.688,4.996h3.378L191.177,322.831z"/>
		<path style="fill:#FFFFFF;" d="M216.104,319.616l-1.505,2.418c-0.96-0.822-2.144-1.096-3.215-1.096c-1.3,0-3.104,0.775-3.104,2.85
			v4.587c0,2.075,1.735,2.852,3.079,2.852c1.049,0,2.418-0.205,3.262-0.982l1.461,2.327c-1.118,0.957-3.01,1.527-4.698,1.527
			c-2.922,0-6.23-1.688-6.23-5.063v-5.932c0-3.353,3.353-5.041,6.23-5.041C213.163,318.064,214.895,318.565,216.104,319.616"/>
		<polygon style="fill:#FFFFFF;" points="229.715,321.03 229.715,333.941 226.592,333.941 226.592,321.03 222.417,321.03 
			222.417,318.224 233.868,318.224 233.868,321.03 		"/>
		<rect x="241.437" y="318.224" style="fill:#FFFFFF;" width="3.126" height="15.717"/>
		<polygon style="fill:#FFFFFF;" points="260.139,333.941 256.899,333.941 251.972,318.224 255.281,318.224 258.518,328.945 
			261.735,318.224 265.044,318.224 		"/>
		<polygon style="fill:#FFFFFF;" points="272.152,333.941 272.152,318.224 282.966,318.224 282.966,321.03 275.278,321.03 
			275.278,324.748 281.848,324.748 281.848,327.531 275.278,327.531 275.278,331.18 282.966,331.18 282.966,333.941 		"/>
		<rect x="302.711" y="318.224" style="fill:#FFFFFF;" width="3.126" height="15.717"/>
		<path style="fill:#FFFFFF;" d="M319.839,334.08c-2.258,0-4.219-0.661-6.203-2.305l1.732-2.213
			c1.436,1.073,2.966,1.688,4.493,1.688c1.87,0,2.487-0.822,2.487-1.895c0-1.71-1.962-1.779-3.378-2.122
			c-2.487-0.57-4.54-1.754-4.54-4.562c0-2.786,2.075-4.723,5.362-4.723c1.914,0,3.627,0.639,5.406,1.779l-1.574,2.327
			c-1.436-0.866-2.667-1.3-3.945-1.3c-1.369,0-2.166,0.775-2.166,1.962c0,1.414,2.692,1.688,3.879,2.031
			c2.531,0.705,4.175,1.939,4.175,4.606C325.566,332.367,323.239,334.08,319.839,334.08"/>
		<polygon style="fill:#FFFFFF;" points="333.11,333.941 333.11,318.224 336.192,318.224 336.192,331.136 343.969,331.136 
			343.969,333.941 		"/>
		<path style="fill:#FFFFFF;" d="M360.865,333.941l-1.184-3.306h-5.315l-1.162,3.306h-3.215l5.588-15.717h2.944l5.588,15.717
			H360.865z M357.033,322.831l-1.688,4.996h3.375L357.033,322.831z"/>
		<polygon style="fill:#FFFFFF;" points="380.889,333.941 374.161,324.109 374.161,333.941 371.057,333.941 371.057,318.224 
			373.887,318.224 380.615,328.123 380.615,318.224 383.742,318.224 383.742,333.941 		"/>
		<path style="fill:#FFFFFF;" d="M397.923,333.941h-5.862v-15.717h5.862c2.874,0,5.68,1.688,5.68,5.041v5.633
			C403.603,332.254,400.797,333.941,397.923,333.941 M400.454,323.86c0-2.1-1.618-2.83-2.919-2.83h-2.349v10.151h2.349
			c1.3,0,2.919-0.753,2.919-2.827V323.86z"/>
		<polygon style="fill:#FFFFFF;" points="219.805,365.884 219.805,350.167 230.62,350.167 230.62,352.972 222.931,352.972 
			222.931,356.691 229.502,356.691 229.502,359.474 222.931,359.474 222.931,363.126 230.62,363.126 230.62,365.884 		"/>
		<path style="fill:#FFFFFF;" d="M243.731,366.022c-2.26,0-4.219-0.661-6.205-2.305l1.735-2.213
			c1.436,1.073,2.966,1.688,4.493,1.688c1.87,0,2.487-0.822,2.487-1.895c0-1.71-1.964-1.779-3.378-2.122
			c-2.487-0.57-4.54-1.757-4.54-4.562c0-2.786,2.075-4.723,5.362-4.723c1.914,0,3.627,0.639,5.406,1.779l-1.574,2.327
			c-1.436-0.866-2.667-1.3-3.945-1.3c-1.367,0-2.166,0.775-2.166,1.961c0,1.414,2.692,1.688,3.879,2.031
			c2.531,0.705,4.175,1.939,4.175,4.606C249.455,364.31,247.131,366.022,243.731,366.022"/>
		<path style="fill:#FFFFFF;" d="M267.836,351.559l-1.505,2.418c-0.96-0.822-2.144-1.096-3.218-1.096c-1.3,0-3.104,0.775-3.104,2.85
			v4.587c0,2.075,1.735,2.852,3.079,2.852c1.051,0,2.418-0.205,3.262-0.982l1.461,2.327c-1.118,0.957-3.01,1.527-4.7,1.527
			c-2.919,0-6.228-1.688-6.228-5.063v-5.932c0-3.353,3.353-5.041,6.228-5.041C264.892,350.009,266.627,350.51,267.836,351.559"/>
		<path style="fill:#FFFFFF;" d="M284.892,365.884l-1.184-3.306h-5.315l-1.165,3.306h-3.215l5.588-15.717h2.944l5.588,15.717
			H284.892z M281.06,354.776l-1.688,4.996h3.375L281.06,354.776z"/>
		<path style="fill:#FFFFFF;" d="M301.906,359.953h-3.74v5.932h-3.126v-15.717h6.867c2.808,0,4.493,2.623,4.493,4.905
			C306.399,357.352,304.711,359.953,301.906,359.953 M301.176,352.972h-3.01v4.175h3.01c1.439,0,2.213-0.866,2.213-2.075
			C303.389,353.861,302.59,352.972,301.176,352.972"/>
		<path style="fill:#FFFFFF;" d="M321.267,365.884l-1.184-3.306h-5.315l-1.165,3.306h-3.215l5.588-15.717h2.944l5.589,15.717
			H321.267z M317.435,354.776l-1.688,4.996h3.375L317.435,354.776z"/>
		<path style="fill:#FFFFFF;" d="M337.459,365.884h-5.862v-15.717h5.862c2.874,0,5.68,1.688,5.68,5.041v5.633
			C343.139,364.196,340.334,365.884,337.459,365.884 M339.991,355.803c0-2.1-1.618-2.83-2.919-2.83h-2.352v10.151h2.352
			c1.3,0,2.919-0.753,2.919-2.827V355.803z"/>
		<polygon style="fill:#FFFFFF;" points="351.392,365.884 351.392,350.167 362.204,350.167 362.204,352.972 354.515,352.972 
			354.515,356.691 361.086,356.691 361.086,359.474 354.515,359.474 354.515,363.126 362.204,363.126 362.204,365.884 		"/>
		<path style="fill:#FFFFFF;" d="M375.315,366.022c-2.258,0-4.219-0.661-6.203-2.305l1.732-2.213
			c1.436,1.073,2.966,1.688,4.493,1.688c1.87,0,2.487-0.822,2.487-1.895c0-1.71-1.961-1.779-3.378-2.122
			c-2.487-0.57-4.54-1.757-4.54-4.562c0-2.786,2.075-4.723,5.362-4.723c1.914,0,3.627,0.639,5.406,1.779l-1.574,2.327
			c-1.436-0.866-2.667-1.3-3.945-1.3c-1.369,0-2.166,0.775-2.166,1.961c0,1.414,2.692,1.688,3.879,2.031
			c2.531,0.705,4.175,1.939,4.175,4.606C381.039,364.31,378.715,366.022,375.315,366.022"/>
	</g>
	<g>
		<path style="fill:#FFFFFF;" d="M350.374,279.033c-2.739,3.594-5.251,7.165-8.056,10.491c-2.689,3.19-5.409,6.46-8.626,9.063
			c-2.246,1.818-5.287,3.378-8.095,3.616c-5.204,0.44-8.897-3.763-8.842-9.409c0.028-2.905,0.584-5.832,1.159-8.698
			c0.57-2.844,1.464-5.624,1.84-8.682c-1.923,2.512-3.655,5.201-5.807,7.5c-5.234,5.591-10.538,11.133-16.096,16.397
			c-1.516,1.439-3.965,2.332-6.098,2.601c-6.366,0.802-11.138-4.645-9.998-11.661c0.772-4.759,1.773-9.666,3.765-14.004
			c6.69-14.549,13.866-28.875,20.866-43.28c0.445-0.913,1.029-1.762,1.439-2.689c0.863-1.95,0.29-2.982-1.95-3.096
			c-3.265-0.166-6.524-0.462-10.787-0.775c2.877-4.451,5.818-4.54,10.034-4.064c6.659,1.458,9.744-2.628,12.48-7.691
			c1.602-2.963,3.84-5.58,5.713-8.402c1.577-2.376,3.738-3.179,6.435-2.584c13.318,1.71,8.004,7.575,7.489,8.352
			c-1.801,2.733-3.754,5.367-5.611,8.067c-1.339,1.945-1.018,3.038,1.566,3.295c2.116,0.21,4.252,0.622,6.269,1.275
			c0.899,0.29,2.36,0.415,2.288,2.133c-0.611,1.582-2.044,1.931-3.137,2.017c-2.573,0.207-5.193-0.055-7.785-0.263
			c-3.035-0.246-5.295,0.941-6.856,3.467c-10.812,17.512-20.951,35.365-27.577,54.975c-0.409,1.206-1.198,2.576-0.75,3.782
			c0.141,0.385,0.553,0.766,0.96,0.764c2.368-0.014,3.953-2.75,5.464-4.521c7.921-9.282,16.121-18.376,23.369-28.164
			c5.475-7.395,9.556-15.805,14.45-23.64c8.377-13.407,16.934-26.703,25.35-40.088c1.66-2.642,3.868-3.721,6.856-3.129
			c3.436,0.683,6.565,2.108,8.153,5.395c0.398,0.827-0.404,2.504-1.062,3.527c-8.626,13.387-17.651,26.529-25.926,40.129
			c-8.925,14.671-16.912,29.876-21.936,46.431c-0.362,1.192-0.421,2.479-0.62,3.721c0.279,0.185,0.556,0.373,0.836,0.559
			c1.364-1.043,3.038-1.848,4.045-3.165c8.856-11.556,17.842-23.023,26.283-34.881c5.849-8.217,11.42-16.55,19.421-22.91
			c5.138-4.086,10.621-5.179,16.746-2.493c0.791,0.349,1.737,0.407,2.62,0.476c7.094,0.542,11.443,5.813,10.494,12.964
			c-1.289,9.686-5.276,18.412-10.021,26.8c-5.42,9.583-11.7,18.55-19.966,25.953c-1.762,1.577-3.641,3.054-5.594,4.385
			c-5.766,3.92-11.584,4.728-17.554,0.255c-5.799-4.344-8.972-9.755-7.644-17.219c0.119-0.664,0.249-1.331,0.326-2.003
			C350.714,279.725,350.559,279.52,350.374,279.033 M363.866,289.82c0.105,1.298,0.841,2.565,1.599,2.935
			c0.783,0.382,2.274,0.072,3.071-0.487c1.646-1.151,3.215-2.52,4.51-4.056c10.577-12.555,18.71-26.565,24.504-41.916
			c0.869-2.305,1.433-4.759,1.826-7.193c0.169-1.068,0.288-2.811-0.719-3.4c-1.093-0.636-2.614,0.448-3.591,1.14
			c-1.361,0.96-2.501,2.291-3.566,3.597c-10.211,12.502-18.448,26.224-24.921,40.992
			C365.407,284.082,363.629,286.835,363.866,289.82"/>
		<path style="fill:#FFFFFF;" d="M446.302,279.523c-4.219,4.601-9.014,9.968-13.977,15.172c-1.538,1.616-3.464,2.897-5.323,4.166
			c-5.766,3.94-11.575,4.7-17.529,0.232c-5.918-4.443-8.942-9.99-7.506-17.571c2.562-13.534,8.991-25.275,17.236-36.01
			c4.095-5.331,8.917-10.175,13.849-14.768c4.687-4.366,10.38-5.09,16.373-2.501c0.706,0.304,1.5,0.473,2.269,0.539
			c8.012,0.708,12.076,5.818,10.95,13.802c-0.102,0.722-0.18,1.45-0.271,2.177c0.268,0.219,0.537,0.437,0.805,0.653
			c2.468-2.329,5.373-4.349,7.309-7.058c3.397-4.753,6.175-9.951,9.265-14.928c3.704-5.968,12.248-6.424,16.492-0.841
			c0.479,0.631,0.769,2.169,0.39,2.57c-6.612,7.005-6.214,15.894-6.8,24.534c-0.67,9.907-1.137,19.842-2.21,29.707
			c-0.443,4.078-1.903,8.139-3.461,11.982c-5.085,12.541-20.514,14.668-28.88,3.743C451.581,290.29,449.118,284.508,446.302,279.523
			 M472.825,245.101c-0.805-0.194-1.356,0.642-1.87,1.04c-3.743,2.891-7.467,5.807-11.177,8.74
			c-0.429,0.338-0.852,0.764-1.093,1.242c-3.298,6.529-6.565,13.072-9.879,19.701c1.494,2.224,2.982,4.767,4.792,7.055
			c1.953,2.462,4.006,4.919,6.38,6.952c2.946,2.523,6.026,2.028,8.004-1.298c1.416-2.382,2.839-5.107,3.076-7.785
			c1.026-11.567,1.621-23.17,2.352-34.762C473.42,245.812,473.439,245.248,472.825,245.101 M449.343,245.859
			c0.57-2.224,1.12-4.28,1.616-6.349c0.13-0.539,0.13-1.123,0.113-1.685c-0.075-2.457-1.466-3.121-3.312-1.831
			c-1.82,1.273-3.458,2.913-4.875,4.637c-10.087,12.275-18.121,25.829-24.603,40.298c-1.179,2.631-1.818,5.555-2.318,8.41
			c-0.194,1.104,0.382,3.054,1.173,3.428c0.88,0.418,2.612-0.227,3.597-0.932c1.627-1.167,3.082-2.648,4.388-4.183
			c8.012-9.431,14.229-20.016,19.648-31.082c0.476-0.971,0.288-2.531-0.122-3.619C443.076,248.75,444.805,245.732,449.343,245.859"
			/>
		<path style="fill:#FFFFFF;" d="M179.884,282.143c0.653-5.273,2.634-10.187,5.392-16.273c6.161-13.581,14.334-25.856,26.136-35.351
			c4.919-3.956,10.294-4.739,16.165-2.338c1.004,0.409,2.166,0.487,3.265,0.589c6.427,0.606,10.934,5.99,10.112,12.364
			c-1.535,11.916-6.839,22.371-13.061,32.388c-5.439,8.765-11.65,16.945-19.85,23.391c-1.328,1.043-2.725,2.025-4.197,2.841
			C193.379,305.548,178.022,297.209,179.884,282.143 M193.697,289.892c0.083,1.049,0.656,2.476,1.372,2.764
			c0.927,0.374,2.523,0.127,3.345-0.495c1.959-1.491,3.832-3.193,5.389-5.099c9.658-11.805,17.197-24.88,22.891-39.011
			c1.046-2.595,1.793-5.362,2.266-8.12c0.235-1.364,0.564-3.646-0.741-4.344c-1.322-0.708-2.869,1.007-4.111,1.807
			c-1.013,0.653-1.79,1.718-2.576,2.678c-10.773,13.224-19.551,27.652-26.036,43.444
			C194.693,285.471,193.512,287.532,193.697,289.892"/>
		<path style="fill:#FFFFFF;" d="M231.397,283.905c0.647-7.727,3.84-15.902,8.089-23.668c6.103-11.152,13.194-21.579,23.3-29.613
			c5.038-4.003,10.466-4.93,16.453-2.36c0.891,0.382,1.953,0.421,2.946,0.504c6.499,0.539,10.994,5.73,10.283,12.203
			c-1.107,10.073-5.281,19.081-10.192,27.76c-5.362,9.473-11.578,18.342-19.748,25.657c-2.175,1.945-4.504,3.815-7.027,5.262
			C244.973,305.694,231.234,297.373,231.397,283.905 M245.219,289.872c0.086,1.098,0.692,2.523,1.405,2.8
			c0.935,0.362,2.465,0.064,3.359-0.526c1.577-1.043,3.024-2.388,4.252-3.84c10.53-12.45,18.616-26.363,24.412-41.584
			c1.068-2.811,1.654-5.86,2.053-8.853c0.321-2.418-1.273-3.151-3.187-1.887c-1.668,1.101-3.171,2.57-4.446,4.125
			c-10.759,13.091-19.416,27.467-25.939,43.106C246.27,285.269,245.028,287.438,245.219,289.872"/>
		<path style="fill:#FFFFFF;" d="M281.348,206.643c-1.123-3.361-4.761-5.179-8.117-4.061c-39.781,13.263-71.638-0.227-85.128-6.255
			c-0.487-0.232-0.966-0.498-1.486-0.664c-25.101-8.148-39.034-5.696-54.778-0.672c-9.614,3.068-18.4,7.55-24.432,16.113
			c-8.61,12.226-3.48,26.825,10.895,30.825c1.909,0.531,3.984,0.448,6.72,0.725c-0.844-1.815-1.154-2.642-1.591-3.4
			c-3.951-6.875-3.378-13.617,0.611-20.238c8.054-13.357,30.3-22.891,45.53-19.535c9.694,2.136,12.889,8.012,8.629,16.967
			c-4.703,9.877-9.996,19.468-14.859,29.27c-1.336,2.692-3.295,3.536-6.073,3.931c-6.593,0.941-13.174,2.036-19.69,3.395
			c-6.062,1.264-9.166,6.504-7.926,12.682c0.672,3.353,1.69,3.696,4.474,1.582c6.117-4.651,13.274-6.911,21.084-9.401
			c-0.705,1.284-1.002,1.986-1.436,2.592c-8.469,11.783-17.742,22.86-28.717,32.422c-4.615,4.02-4.435,6.449,0.838,9.658
			c1.151,0.7,2.399,1.278,3.666,1.743c3.893,1.428,7.074,1.085,10.353-2.222c12.408-12.51,23.272-26.233,32.388-41.236
			c3.444-5.671,7.193-9.091,14.029-8.587c1.613,0.119,4.261,0.484,4.938-1.065c1.981-4.518-6.77-2.88-10.424-3.674
			c0.6-1.143,1.12-2.111,1.618-3.093c4.59-9.061,9.398-18.024,13.631-27.248c0.479-1.046,0.836-2.205,1.071-3.408
			c14.862,7.005,48.852,14.375,80.289,3.796C280.817,216.456,282.468,210.004,281.348,206.643"/>
	</g>
	<path style="fill:#00153B;" d="M479.18,178.083c-0.268-3.179-1.215-6.344-3.123-8.933c-2.152-2.913-5.345-4.911-7.246-8.034
		c-1.815-2.974-2.927-6.338-5.337-8.928c-2.974-3.198-6.861-5.334-10.51-7.661c-4.49-2.863-9.155-5.835-12.497-10.062
		c-2.927-3.704-3.906-7.995-4.72-12.538c-1.665-9.298-5.185-18.566-8.723-27.301c-0.993-2.448-2.175-4.836-3.79-6.936
		c-2.96-3.84-7.251-6.2-10.795-9.434c-3.242-2.957-5.81-6.535-8.565-9.929c-2.476-3.043-5.387-5.685-8.159-8.449
		c-4.089-4.075-8.341-8.07-13.448-10.839c-9.387-5.085-20.395-6.56-30.668-8.966c-7.326-1.718-14.314-4.999-21.884-5.6
		c-2.761-0.219-5.533,0.409-8.286,0.097c-3.597-0.404-6.856-2.208-10.46-2.637c-4.059-0.479-8.078-0.105-12.06-1.245
		c-3.92-1.123-9.254,0.36-12.516-2.042c-3.09-2.274-6.338-4.676-10.264-5.14c-3.151-0.376-5.165-3.597-7.354-1.004
		c-3.306,3.917,1.516,8.997,4.634,11.08c2.097,1.403,3.519,3.583,4.374,5.923c0.755,2.075,1.635,5.37,4.136,5.948
		c1.361,0.315,2.186-0.589,3.229,0.714c0.974,1.215,1.439,2.963,2.844,3.779c1.428,0.83,3.206,0.62,4.562-0.252
		c1.101-0.708,1.682-2.075,2.966-2.531c2.028-0.722,4.047,1.176,5.475,2.354c1.945,1.607,3.94,3.447,6.493,3.973
		c2.736,0.567,5.5,0.772,8.12,1.809c2.65,1.046,5.013,2.656,7.331,4.291c1.577,1.115,3.146,1.757,5.099,1.596
		c1.823-0.149,3.511-0.661,5.348-0.313c5.854,1.112,10.552,5.658,12.754,11.047c3.248,7.959,10.026,13.852,18.127,16.55
		c2.022,0.675,4.083,1.245,6.167,1.69c2.695,0.578,4.164,2.772,4.969,5.248c1.159,3.552,1.417,7.307,1.607,11.011
		c0.105,1.981,0.083,3.967,0.21,5.948c0.108,1.721,0.805,3.392,0.672,5.129c-0.191,2.493-1.665,4.77-2.352,7.141
		c-0.451,1.569-0.957,3.123-1.422,4.689c-0.282,0.946-0.401,2.141-0.966,2.969c-0.993,1.472-3.234,0.23-4.653,0.241
		c-1.115,0.011-2.216,0.196-3.314,0.368c-3.433,0.545-6.869,1.187-10.164,2.321c-4.736,1.632-9.218,3.931-13.902,5.702
		c-2.288,0.869-4.781,1.256-7.174,1.748c-3.945,0.819-7.846,1.895-11.6,3.367c-3.912,1.53-7.464,3.693-11.227,5.522
		c-3.558,1.729-6.759,4.078-10.361,5.763c-0.722,0.34-2.678,1.663-3.447,1.405c-1.516-0.506-4.014,0.047-5.417,0.672
		c-1.701,0.755-3.035,2.075-4.305,3.395c-2.346,2.44-4.894,4.689-7.052,7.301c-1.499,1.815-3.301,3.812-3.779,6.183
		c-0.216,1.082,0.138,1.992-0.288,3.074c-0.473,1.201-1.06,2.443-1.14,3.751c-0.31,4.913,4.972,0.816,6.169-0.847
		c1.209-1.671,2.747-3.126,4.194-4.59c1.411-1.425,2.874-2.8,4.794-3.483c2.053-0.73,4.186-1.458,5.807-2.974
		c1.217-1.14,1.649-2.927,2.717-4.175c1.212-1.416,3.104-1.69,4.825-2.105c2.8-0.678,5.647-1.132,8.474-1.663
		c7.589-1.428,15.396-1.63,22.907-3.508c2.158-0.537,4.175-1.397,6.158-2.349c3.688-1.768,7.425-3.425,11.21-4.977
		c3.508-1.436,7.237-3.301,10.983-4.003c2.418-0.451,4.783,0.445,7.171,0.675c3.37,0.318,6.814,0.008,10.084-0.866
		c3.065-0.822,5.89-2.454,8.933-3.406c2.642-0.824,5.868,0.791,8.327,1.61c3.306,1.101,0.556,3.846-0.606,5.464
		c-0.119,0.166-0.232,0.34-0.349,0.512c0.094-0.517,0.196-0.902,0.196-0.902s-3.572,4.88-5.32,7.503
		c-1.743,2.623-1.779,4.476-1.768,5.86c-0.664,0.332-1.096-2.305-1.096-2.305s-1.109,3.561-1.336,5.757
		c-0.227,2.197-0.23,5.464,0.65,8.803c0.88,3.339,2.518,5.024,6.488,8.231c3.97,3.209,6.264,2.457,8.538,3.641
		c2.274,1.184,7.113-0.324,8.225,0.238c3.431,1.281,8.521-0.954,8.521-0.954s-4.33-0.523-3.973-1.381
		c1.638,0.243,5.716-2.684,5.716-2.684s-1.671,0.36-2.299-0.299c6.031-2.545,5.901-4.974,5.901-4.974s-3.151,1.076-5.594,1.179
		c0.683-0.747,1.04-1.433,1.237-2.022c0.207-0.124,0.421-0.238,0.62-0.379c1.679-1.184,1.801-3.082,2.872-4.681
		c0.91-1.361,2.803-1.602,3.301-3.325c0.376-1.295,0.158-2.346,0.783-3.619c1.616-3.284,3.497-7.929,1.469-11.437
		c-1.986-3.433-8.272-6.252-5.577-10.884c-0.019,0.036,1.909,2.022,2.108,2.213c0.93,0.888,1.978,1.599,3.11,2.197
		c3.173,1.685,6.836,2.136,10.126,3.525c5.716,2.41,6.203,10.178,12.043,12.433c2.039,0.786,4.255,1.062,6.288,1.834
		c2.805,1.068,6.311,1.743,8.015,4.482c1.436,2.307,1.535,5.705,1.682,8.344c0.072,1.286,0.108,1.679,1.085,2.531
		c0.531,0.462,0.47,0.119,0.667,0.866c0.266,1.007,0.122,2.064,0.412,3.071c0.266,0.924,1.425,5.691,2.916,4.197
		c0.072-0.072,1.378,0.432,1.665,0.362c0.567-0.133,0.855-0.567,1.104-1.051c1.209-2.36-0.014-5.041,0.717-7.492
		c-0.086,0.338,2.302,0.736,2.565,0.581C480.348,181.215,479.263,179.032,479.18,178.083"/>
</g>
</svg>
