<svg xmlns="http://www.w3.org/2000/svg" xmlns:xlink="http://www.w3.org/1999/xlink" preserveAspectRatio="xMidYMid" width="111" height="111" viewBox="0 0 111 111">
  <defs>
    <style>
      .cls-1 {
        fill: #cdd1d8;
        fill-rule: evenodd;
      }
    </style>
  </defs>
  <path d="M54.936,111.000 C54.936,111.000 54.453,110.502 54.276,110.322 C53.392,109.418 19.082,65.704 14.639,60.028 C13.135,58.108 12.614,56.366 12.948,54.379 C13.434,51.497 15.809,49.337 18.597,49.244 C19.569,49.211 22.027,49.187 24.442,49.187 C25.522,49.187 28.121,49.193 28.933,49.243 C29.131,49.256 29.320,49.262 29.503,49.262 L29.679,49.262 C33.025,49.262 33.226,49.262 34.760,45.352 C35.553,43.333 37.722,38.321 39.157,35.005 C39.673,33.812 40.077,32.878 40.255,32.457 C41.011,30.670 41.710,30.321 42.661,30.321 C43.658,30.325 44.341,30.667 45.094,32.457 C47.626,38.473 57.077,60.192 59.148,64.950 L65.644,50.612 C65.961,49.912 66.634,49.463 67.401,49.441 C69.816,49.373 75.552,49.215 76.661,49.215 C76.726,49.215 76.777,49.215 76.811,49.216 C78.192,49.258 79.135,50.108 79.158,51.331 C79.181,52.572 78.246,53.532 76.936,53.614 C76.279,53.654 71.983,53.682 69.480,53.695 C69.122,53.697 68.798,53.910 68.656,54.238 C67.146,57.722 62.161,69.230 61.392,71.044 C60.685,72.715 59.982,73.063 59.078,73.084 L59.002,73.085 C58.069,73.085 57.390,72.748 56.664,71.029 C54.102,64.957 44.574,43.250 42.505,38.539 L36.215,52.013 C35.725,53.062 34.661,53.740 33.505,53.740 C32.259,53.730 32.132,53.721 32.090,53.718 C31.382,53.664 28.561,53.637 23.703,53.637 C22.224,53.637 20.873,53.640 19.964,53.641 L18.963,53.643 C18.262,53.643 17.661,54.019 17.354,54.650 C17.048,55.281 17.123,55.987 17.556,56.539 L55.341,104.726 C58.853,100.272 87.559,63.863 100.724,46.989 C105.041,41.457 106.918,34.543 106.010,27.521 C105.101,20.479 101.512,14.247 95.906,9.975 C91.240,6.419 85.705,4.540 79.901,4.540 C71.504,4.540 63.822,8.427 58.824,15.203 C58.557,15.566 58.322,15.928 58.095,16.278 C57.870,16.627 57.665,16.942 57.451,17.228 C56.911,17.950 56.229,18.348 55.533,18.348 C54.890,18.348 54.258,18.020 53.705,17.399 C53.355,17.007 53.034,16.539 52.693,16.044 C52.495,15.755 52.296,15.467 52.089,15.186 C47.173,8.518 39.242,4.538 30.875,4.538 C27.386,4.538 23.985,5.215 20.765,6.550 C9.799,11.097 3.079,22.919 4.787,34.660 C5.046,36.440 4.548,37.420 4.229,37.846 C3.965,38.199 3.644,38.417 3.325,38.462 C3.153,38.486 2.986,38.498 2.829,38.498 C2.371,38.498 1.155,38.498 0.615,36.362 C0.581,36.228 0.546,36.095 0.510,35.961 C0.384,35.486 0.254,34.996 0.185,34.463 C-0.281,30.873 0.284,27.357 0.469,26.365 C2.915,13.195 10.389,4.903 23.317,1.017 C24.344,0.708 25.413,0.495 26.544,0.271 C26.770,0.226 28.010,0.000 30.124,0.000 C31.723,0.000 33.444,0.126 35.240,0.375 C42.165,1.336 48.016,4.296 53.126,9.424 C53.434,9.734 53.750,9.984 54.056,10.226 C54.196,10.337 54.315,10.432 54.435,10.532 L55.659,11.551 L56.813,10.452 L57.301,9.991 C57.627,9.684 57.922,9.405 58.210,9.119 C62.648,4.701 68.076,1.820 74.346,0.556 C75.151,0.394 77.313,0.018 80.003,0.018 C81.548,0.018 83.030,0.142 84.407,0.389 C97.541,2.736 105.846,10.089 109.793,22.868 C110.098,23.853 110.361,24.941 110.649,26.397 C110.977,28.063 111.238,30.916 110.615,35.046 L110.590,35.218 C109.863,40.678 107.720,45.613 104.038,50.305 C103.571,50.900 57.323,109.830 56.560,110.566 L56.113,111.000 L54.936,111.000 Z" class="cls-1"/>
</svg>
