<svg version="1.1" id="Layer_1" xmlns="http://www.w3.org/2000/svg" xmlns:xlink="http://www.w3.org/1999/xlink" x="0px" y="0px"
	 viewBox="0 0 197.1 197.1" enable-background="new 0 0 197.1 197.1" xml:space="preserve" width="200" height="200">
<g>
	<circle fill="#70D1DA" cx="98.5" cy="98.5" r="98.5"/>
	<path fill="#FFFFFF" d="M160.1,136.9C163.3,138.6,172.2,143.3,160.1,136.9C158.5,136.1,158.9,136.3,160.1,136.9
		c-5.9-3.1-15.6-4.3-26.7-8.2c0-0.1-1.7-4-2.5-5.5c-1.9-3.6-3.1-4.3-8.1-4.7c-0.9-3.5-0.8-6.6-0.2-9.3c0.7-0.7,1.4-1.4,2.1-2.2
		c2.5-2.6,3.6-9.3,3.9-12.5c0-0.2,0.5-0.5,0.7-0.5c0.9-0.1,1.7-0.2,2.2-1c0.3-0.5,0.5-1.1,0.7-1.7c0.6-1.8,1.2-3.7,2.1-5.3
		c2.3-3.8,4.1-7.6,3.9-12.1c-0.1-2.3-0.4-4.6-0.6-7c-0.1-0.6-0.6-1-1.3-0.7c0,0,0,0,0,0c0,0,0,0,0.1,0c0.3-1.4-0.6-4.5-0.4-5.7
		c0.5,0.2,0.6,0.8,1,1c-0.2-2.6,0.2-5.5,0.4-8.3c0.1-1.8,0.2-3.6,0-5.3c0-0.1,0-0.2,0-0.3c0.1-0.3,0-0.8-0.3-1.5c0,0,0,0,0,0
		c-0.4-1.6-1-3.1-1.7-4.5c-0.2-1.6-0.5-2.9-0.6-3.1c-0.4-0.7-0.7-1.5-1.1-2.2c-2.3-8.8,1-8.1,1-8.1c-7-3.8-12.1-5.6-15.6-6.7
		c-1.9-1.3-3.7-2.3-5.4-2.7c0.4-1.2,5.7,0.1,5.7,0.1c-25.6-10.8-36.7-2-39.9,1.5c-0.5,0.3-0.9,0.6-1.4,0.9c-2-2.1-3.7-3.1-9-0.7
		c-5.3,2.3-4.3,6.8-8.4,10.4c-4.1,3.5-1.4,16.5-1.4,16.5c0.2,1.4,0,3.3,0.1,4.8c0,0.4,0,0.9,0.1,1.3c0.2,2.7,0.5,5.6,0.4,8.1
		c0.4-0.2,0.7-1.1,1.1-1c0,0.1,0,0.2,0,0.4c-0.1,1.4-0.6,3.1-0.5,4.6c0,0.3,0,0.5,0,0.7c-0.7-0.4-1.3,0.1-1.3,0.6
		c-0.3,2.3-0.5,4.6-0.6,7c-0.3,4.5,1.6,8.4,3.9,12.1c1,1.6,1.5,3.6,2.1,5.3c0.2,0.6,0.4,1.2,0.7,1.7c0.5,0.8,1.3,1,2.2,1
		c0.3,0,0.7,0.3,0.7,0.5c0.3,3.3,1,9.8,3.9,12.5c0.6,0.6,1.3,1.3,1.9,2c0.7,3.1,0.7,6.4-0.1,9.5c-5,0.4-6.2,1-8.1,4.6
		c-0.8,1.5-2.5,5.5-2.5,5.8c-10.8,3.8-20.3,4.9-26.1,7.9c-4.3,2.3-7.8,4.8-10.7,8c15.3,23.7,41.9,39.4,72.2,39.4
		c30.3,0,56.9-15.7,72.2-39.4C167.9,141.7,164.4,139.2,160.1,136.9z"/>
</g>
</svg>
