<svg xmlns="http://www.w3.org/2000/svg" xmlns:xlink="http://www.w3.org/1999/xlink" preserveAspectRatio="xMidYMid" width="104.781" height="112.5" viewBox="0 0 104.781 112.5">
  <defs>
    <style>
      .cls-1 {
        fill: #cdd1d8;
        fill-rule: evenodd;
      }
    </style>
  </defs>
  <path d="M91.630,82.277 C91.318,82.504 90.950,82.617 90.581,82.617 C90.220,82.617 89.858,82.508 89.549,82.290 C89.011,81.909 76.372,72.844 76.372,61.523 C76.372,53.769 82.746,47.461 90.581,47.461 C98.416,47.461 104.791,53.769 104.791,61.523 C104.791,72.614 92.168,81.888 91.630,82.277 ZM90.581,50.976 C84.705,50.976 79.924,55.707 79.924,61.523 C79.924,69.315 87.702,76.309 90.570,78.623 C93.435,76.269 101.238,69.156 101.238,61.523 C101.238,55.707 96.458,50.976 90.581,50.976 ZM90.581,68.555 C86.664,68.555 83.476,65.400 83.476,61.523 C83.476,57.646 86.664,54.492 90.581,54.492 C91.562,54.492 92.357,55.279 92.357,56.250 C92.357,57.221 91.562,58.008 90.581,58.008 C88.622,58.008 87.029,59.585 87.029,61.523 C87.029,63.462 88.622,65.039 90.581,65.039 C92.540,65.039 94.134,63.462 94.134,61.523 C94.134,60.552 94.929,59.765 95.910,59.765 C96.891,59.765 97.686,60.552 97.686,61.523 C97.686,65.400 94.499,68.555 90.581,68.555 ZM88.843,43.707 C88.563,43.867 88.257,43.943 87.956,43.943 C87.342,43.943 86.746,43.628 86.416,43.065 C86.244,42.770 86.063,42.479 85.884,42.187 L79.112,42.187 C79.738,43.717 80.306,45.304 80.812,46.945 C81.098,47.874 80.569,48.856 79.630,49.139 C79.458,49.191 79.283,49.216 79.112,49.216 C78.351,49.216 77.647,48.728 77.414,47.970 C76.792,45.951 76.070,44.021 75.258,42.187 L62.044,42.187 C63.201,48.766 63.837,56.062 63.926,63.281 L72.819,63.281 C73.800,63.281 74.595,64.068 74.595,65.039 C74.595,66.010 73.800,66.797 72.819,66.797 L63.926,66.797 C63.845,73.379 63.310,80.024 62.339,86.133 L75.983,86.133 C76.936,83.759 77.730,81.268 78.344,78.697 C78.569,77.752 79.526,77.168 80.481,77.390 C81.435,77.613 82.027,78.560 81.801,79.505 C81.255,81.795 80.585,84.008 79.800,86.133 L86.916,86.133 C87.024,85.939 87.130,85.745 87.235,85.549 C87.693,84.691 88.768,84.363 89.635,84.817 C90.503,85.271 90.834,86.334 90.375,87.192 C82.036,102.802 65.780,112.500 47.952,112.500 C35.142,112.500 23.099,107.563 14.041,98.599 C4.983,89.635 -0.005,77.716 -0.005,65.039 C-0.005,56.218 2.496,47.584 7.125,40.141 C7.206,39.661 7.480,39.247 7.868,38.982 C8.848,37.505 9.913,36.077 11.062,34.710 C11.689,33.964 12.810,33.862 13.564,34.482 C14.318,35.103 14.421,36.212 13.794,36.958 C13.323,37.518 12.869,38.090 12.428,38.671 L19.124,38.671 C19.390,38.609 19.672,38.605 19.948,38.671 L34.536,38.671 C36.072,31.527 38.297,25.387 41.196,21.603 C40.021,21.780 38.855,22.000 37.702,22.270 C36.748,22.492 35.791,21.908 35.566,20.963 C35.340,20.018 35.931,19.072 36.886,18.848 C40.491,18.005 44.215,17.578 47.952,17.578 C56.520,17.578 64.929,19.841 72.270,24.124 C78.601,27.817 84.005,32.922 88.037,38.984 C88.421,39.246 88.693,39.654 88.776,40.126 C89.020,40.516 89.259,40.908 89.491,41.305 C89.983,42.145 89.692,43.220 88.843,43.707 ZM84.750,89.648 L78.359,89.648 C76.023,94.811 72.955,99.346 69.264,103.042 C68.836,103.471 68.402,103.885 67.963,104.285 C74.651,100.948 80.452,95.947 84.750,89.648 ZM66.737,100.571 C69.735,97.569 72.335,93.846 74.412,89.648 L61.719,89.648 C60.242,97.251 58.044,103.756 55.163,107.859 C59.308,106.543 63.227,104.087 66.737,100.571 ZM27.864,104.223 C26.013,102.523 24.268,100.577 22.655,98.393 C20.681,95.720 18.975,92.785 17.550,89.648 L11.181,89.648 C15.394,95.794 21.137,100.832 27.864,104.223 ZM9.007,86.133 L16.101,86.133 C13.889,80.170 12.639,73.607 12.455,66.797 L3.586,66.797 C3.865,73.780 5.797,80.350 9.007,86.133 ZM10.024,42.187 C6.123,48.536 3.888,55.807 3.584,63.281 L12.453,63.281 C12.656,55.859 14.146,48.652 16.801,42.187 L10.024,42.187 ZM35.778,56.355 C35.720,57.323 34.880,58.063 33.899,58.004 C32.920,57.946 32.174,57.113 32.232,56.144 C32.519,51.404 33.060,46.654 33.850,42.187 L20.658,42.187 C17.819,48.565 16.224,55.800 16.008,63.281 L19.533,63.281 C20.514,63.281 21.309,64.068 21.309,65.039 C21.309,66.010 20.514,66.797 19.533,66.797 L16.009,66.797 C16.210,73.780 17.600,80.350 19.912,86.133 L21.309,86.133 C22.290,86.133 23.085,86.920 23.085,87.891 C23.085,88.807 22.377,89.558 21.473,89.640 C25.935,98.684 32.782,105.333 40.762,107.863 C39.629,106.259 38.496,104.139 37.413,101.347 C37.061,100.441 37.519,99.424 38.435,99.076 C39.350,98.729 40.378,99.181 40.729,100.087 C42.922,105.741 45.555,108.984 47.952,108.984 C50.816,108.984 53.938,104.444 56.302,96.839 C56.991,94.623 57.598,92.213 58.120,89.648 L51.505,89.648 C50.524,89.648 49.729,88.861 49.729,87.890 C49.729,86.919 50.524,86.132 51.505,86.132 L58.767,86.132 C59.741,80.226 60.294,73.650 60.374,66.796 L51.505,66.796 C50.524,66.796 49.729,66.010 49.729,65.039 C49.729,64.068 50.524,63.281 51.505,63.281 L60.374,63.281 C60.285,55.739 59.625,48.534 58.460,42.187 L37.450,42.187 C36.652,46.545 36.082,51.336 35.778,56.355 ZM47.952,21.093 C45.507,21.093 42.732,24.615 40.530,30.513 C39.635,32.912 38.842,35.660 38.165,38.672 L57.743,38.672 C57.312,36.759 56.831,34.941 56.302,33.239 C53.938,25.634 50.816,21.093 47.952,21.093 ZM55.166,22.222 C57.821,26.005 59.896,31.829 61.360,38.672 L73.527,38.672 C69.008,30.384 62.506,24.553 55.166,22.222 ZM70.467,27.152 C69.672,26.689 68.863,26.254 68.043,25.842 C71.754,29.233 74.981,33.569 77.521,38.672 L83.473,38.672 C79.955,34.038 75.532,30.107 70.467,27.152 ZM36.568,96.340 C36.256,96.566 35.887,96.679 35.519,96.679 C35.157,96.679 34.795,96.571 34.486,96.352 C33.948,95.972 21.309,86.907 21.309,75.586 C21.309,67.832 27.684,61.523 35.519,61.523 C43.354,61.523 49.729,67.832 49.729,75.586 C49.729,86.677 37.105,95.951 36.568,96.340 ZM35.519,65.039 C29.642,65.039 24.862,69.770 24.862,75.586 C24.862,83.377 32.640,90.372 35.507,92.686 C38.373,90.332 46.176,83.218 46.176,75.586 C46.176,69.770 41.395,65.039 35.519,65.039 ZM35.519,82.617 C31.601,82.617 28.414,79.463 28.414,75.586 C28.414,71.709 31.601,68.555 35.519,68.555 C36.500,68.555 37.295,69.342 37.295,70.312 C37.295,71.283 36.500,72.070 35.519,72.070 C33.560,72.070 31.966,73.647 31.966,75.586 C31.966,77.524 33.560,79.101 35.519,79.101 C37.478,79.101 39.071,77.524 39.071,75.586 C39.071,74.615 39.867,73.828 40.847,73.828 C41.828,73.828 42.624,74.615 42.624,75.586 C42.624,79.463 39.436,82.617 35.519,82.617 ZM20.582,34.816 C20.270,35.043 19.902,35.156 19.533,35.156 C19.171,35.156 18.810,35.047 18.501,34.829 C17.963,34.448 5.323,25.383 5.323,14.062 C5.323,6.308 11.698,-0.000 19.533,-0.000 C27.368,-0.000 33.743,6.308 33.743,14.062 C33.743,25.154 21.120,34.427 20.582,34.816 ZM19.533,3.515 C13.657,3.515 8.876,8.247 8.876,14.062 C8.876,21.854 16.654,28.848 19.522,31.162 C22.387,28.808 30.190,21.695 30.190,14.062 C30.190,8.247 25.409,3.515 19.533,3.515 ZM12.428,14.062 C12.428,10.185 15.615,7.031 19.533,7.031 C20.514,7.031 21.309,7.818 21.309,8.789 C21.309,9.760 20.514,10.547 19.533,10.547 C17.574,10.547 15.981,12.124 15.981,14.062 C15.981,16.001 17.574,17.578 19.533,17.578 C21.492,17.578 23.085,16.001 23.085,14.062 C23.085,13.092 23.881,12.305 24.862,12.305 C25.843,12.305 26.638,13.092 26.638,14.062 C26.638,17.939 23.451,21.093 19.533,21.093 C15.615,21.093 12.428,17.939 12.428,14.062 Z" class="cls-1"/>
</svg>
