<svg version="1.1" id="Layer_1" xmlns="http://www.w3.org/2000/svg" xmlns:xlink="http://www.w3.org/1999/xlink" x="0px" y="0px"
	 viewBox="0 0 197.1 197.1" enable-background="new 0 0 197.1 197.1" xml:space="preserve" width="200" height="200">
<g>
	<circle fill="#70D1DA" cx="98.5" cy="98.5" r="98.5"/>
	<path fill="#FFFFFF" d="M140.6,30.9c-5.6-0.8-10.9,3.1-11.7,8.8l0,0.3c-0.3,2.1-0.7,4.2-1.3,6.1c-0.6,1.9-1.3,3.7-2.1,5.4
		c-1.7,3.3-4,6.1-6.7,8.2c-1.9,1.5-3.9,2.7-6.2,3.6c5.3-3.9,8.6-10.3,8.3-17.4c-0.6-11.2-10.1-19.8-21.2-19.2
		C88.4,27.5,79.8,37,80.4,48.1c0.4,7,4.2,13,9.8,16.4c-1.2-0.4-2.4-0.8-3.6-1.2c-3.5-1.4-6.7-3.4-9.4-5.8c-2.7-2.4-4.9-5.1-6.7-8.3
		c-0.9-1.6-1.7-3.3-2.3-5.1c-0.3-0.9-0.6-1.9-0.9-2.9c-0.1-0.5-0.3-1-0.4-1.5L66.7,39l0-0.2c0-0.1,0-0.1,0-0.2l-0.1-0.5
		c-0.9-4.2-4.2-7.6-8.7-8.3c-5.7-0.9-11,3.1-11.9,8.8l-0.1,0.5c0,0.1,0,0.2,0,0.3l0,0.3L45.7,41c-0.1,0.8-0.1,1.6-0.1,2.5
		c0,1.7,0.1,3.3,0.3,5c0.4,3.4,1.1,6.8,2.3,10.1c2.3,6.6,6.3,12.8,11.4,17.7c5,5,11.1,8.6,17.4,11.1c1.3,0.5,2.7,1,4.1,1.4
		c-0.1,0.9-0.1,1.7-0.2,2.5l-0.6,9.2c-0.4,6.1-1.2,12-2.8,17.6c-1.6,5.7-3.8,11.2-6.7,16.5c-0.7,1.3-1.5,2.7-2.3,4
		c-0.8,1.3-1.6,2.6-2.5,3.9c-1.7,2.6-3.6,5.2-5.6,7.7l-0.1,0.2c-2.8,3.7-2.9,9.1,0.2,12.8c3.6,4.4,10.2,5.1,14.6,1.4
		c1-0.8,2-1.7,3-2.6c0.2-0.3,0.4-0.5,0.7-0.8c0.8-1,1.6-2.1,2.4-3.1c1.5-2.1,3-4.2,4.3-6.3c2.7-4.2,4.9-8.6,6.3-13.1
		c0.7-2.2,1.2-4.5,1.8-6.8c0.3-1.1,0.5-2.3,0.8-3.5l0.4-1.8l0.2-0.9l0.1-0.4c0-0.2,0.1-0.3,0.1-0.5c0.7-2.9,3.6-4.6,6.5-4
		c1.9,0.4,3.3,1.8,3.8,3.5c0.1,0.2,0.1,0.3,0.2,0.5c0,0.2,0.1,0.4,0.1,0.6l0.2,1.1c0.1,0.8,0.2,1.5,0.3,2.3c0.1,1.5,0.2,3.1,0.1,4.7
		c-0.2,3.1-0.9,6.2-1.8,9.1c-1.5,4.8-3.7,9.2-6.3,13.3c-0.1,0.2-0.1,0.4-0.2,0.6l-0.1,0.2c-1.4,4.3,0.4,9.2,4.5,11.6
		c4.8,2.8,10.9,1.3,13.8-3.5c1.9-3.2,3.6-6.6,5.1-10.1c0.7-1.8,1.4-3.6,2.1-5.4c0.6-1.8,1.2-3.7,1.7-5.6c2-7.5,3-15.5,2.7-23.5
		c-0.3-8-1.7-15.8-4.1-23.2c-1.1-3.4-2.6-6.7-4.3-9.8c5.6-2.2,11-5.5,15.5-9.8c5.2-4.9,9.2-11,11.6-17.5c1.2-3.2,2-6.5,2.5-9.8
		c0.5-3.3,0.7-6.5,0.6-9.7C149.3,35.9,145.7,31.7,140.6,30.9z"/>
</g>
</svg>
