<svg version="1.1" id="Layer_1" xmlns="http://www.w3.org/2000/svg" xmlns:xlink="http://www.w3.org/1999/xlink" x="0px" y="0px"
	 viewBox="0 0 197.1 197.1" enable-background="new 0 0 197.1 197.1" xml:space="preserve" width="200" height="200">
<g>
	<circle fill="#70D1DA" cx="98.5" cy="98.5" r="98.5"/>
	<path fill="#FFFFFF" d="M62.1,81.5V50.9c0-7,5.7-12.6,12.6-12.6h30.6c7,0,12.6,5.7,12.6,12.6v30.6c0,6.8-5.5,12.4-12.3,12.6
		c0-2.5,0-5,0-7.2c2.8-0.1,5.1-2.5,5.1-5.4V50.9c0-3-2.4-5.4-5.4-5.4H74.7c-3,0-5.4,2.4-5.4,5.4v30.6c0,3,2.4,5.4,5.4,5.4h0.1
		c0,2.2,0,4.6,0,7.2h-0.1C67.7,94.1,62.1,88.5,62.1,81.5z M140.6,137.7c0.2,8.5,0.5,18.2-5,26.2c-0.8,1.2-2,2.2-3.4,3.4
		c-0.9,0.7-1.5,1.3-1.9,1.7l-0.2,13.7c0,1.5-1.2,2.7-2.7,2.7H87.4c-1.5,0-2.7-1.2-2.7-2.7c0-0.5,0-0.9,0-1.3l0-0.8
		c-0.2-9.8-1.1-12.3-1.6-12.9c-7.3-8-13.8-17.8-21.8-32.7l-0.2-0.4c-0.3-0.6-0.7-1.2-1-1.8c-1.3-2.3-2.6-4.6-3.2-7
		c-0.3-0.9-0.4-1.8-0.4-2.7c0-0.1,0-0.1,0-0.2c0-1.6,0.3-3.1,1-4.4c0.4-0.7,0.9-1.3,1.5-1.9c1.9-2,4.5-3.2,7.2-3.2
		c3.4,0,6.3,1.3,8.5,3.8c2.2,2.6,4,4.8,5.6,6.8c0-0.9,0-2,0-3.1c0-1.7-0.1-41.5-0.1-42.1c0-5.5,4.5-10,10-10c5.5,0,10,4.5,10,10
		c0,0.2,0,0.9,0,2c0,3.9,0.1,12.9,0.1,20.2c1-0.3,2.1-0.5,3.2-0.5c4.5,0,8.5,3.1,9.6,7.4c1.2-0.5,2.5-0.7,3.8-0.7
		c3.2,0,6.1,1.5,8,4.1c0.9,1.1,1.6,2.3,1.9,3.7c1.1-0.4,2.3-0.5,3.6-0.5c0.2,0,0.3,0,0.5,0l0,0c2,0,3.9,0.6,5.5,1.8
		c0.8,0.6,1.4,1.3,2,2.2c0.9,1.2,1.5,2.5,1.7,3.9c0.3,1.2,0.5,2.4,0.5,3.6v9.7C140.6,136.1,140.6,136.9,140.6,137.7L140.6,137.7z
		 M135.1,137.9L135.1,137.9c0-0.9,0-1.7-0.1-2.4v-9.7c0-0.7-0.1-1.5-0.3-2.2c0-0.1,0-0.1,0-0.2c-0.1-0.7-0.4-1.3-0.8-1.8
		c0,0-0.1-0.1-0.1-0.1c-0.3-0.4-0.5-0.7-0.8-0.9c-0.6-0.5-1.4-0.7-2.2-0.7c-0.1,0-0.1,0-0.2,0l-0.3,0c-1,0-2.3,0.2-3.2,1v5.9
		c0,1.5-1.2,2.8-2.8,2.8s-2.8-1.2-2.8-2.8v-6.9c0,0,0,0,0,0c0,0,0,0,0-0.1c0-0.8,0.1-1.6,0-2.1c0-0.1,0-0.2,0-0.3
		c0-1.1-0.3-1.9-1-2.7c-0.1-0.1-0.1-0.1-0.2-0.2c-0.8-1.2-2.2-1.9-3.6-1.9c-1.2,0-2.4,0.5-3.2,1.4v5.9c0,1.5-1.2,2.8-2.8,2.8
		c-1.5,0-2.8-1.2-2.8-2.8v-6.9c0,0,0,0,0,0v-1.5c0-0.6-0.1-1.1-0.3-1.7c0-0.1,0-0.2-0.1-0.2c-0.4-2.1-2.2-3.6-4.4-3.6
		c-1.2,0-2.4,0.5-3.2,1.4v5.9c0,1.5-1.2,2.8-2.8,2.8c-1.5,0-2.8-1.2-2.8-2.8v-6.9c0,0,0,0,0,0c0,0,0,0,0,0c0.1-7.5,0-20.6-0.1-25.5
		c0-1.1,0-1.8,0-2c0-2.5-2-4.5-4.5-4.5c-2.5,0-4.5,2-4.5,4.5c0,0.6,0.1,41.7,0.1,42.1c0,5.2-0.3,9-1,11.1c-0.3,1-1.1,1.7-2.2,1.9
		c-1,0.2-2.1-0.3-2.7-1.1l-0.1-0.2c-2.3-3.4-5.1-6.9-9.3-11.8c-1.1-1.3-2.4-1.9-4.3-1.9c-1.2,0-2.4,0.5-3.2,1.5
		c-0.1,0.1-0.2,0.2-0.2,0.2c-0.2,0.2-0.3,0.4-0.5,0.6c-0.3,0.5-0.4,1-0.4,1.8c0,0,0,0.1,0,0.1c0,0.1,0,0.1,0,0.2
		c0,0.4,0.1,0.8,0.2,1.2c0,0.1,0,0.1,0,0.2c0.4,1.6,1.5,3.6,2.6,5.6c0.4,0.7,0.8,1.3,1.1,2l0.2,0.4c7.8,14.5,14.1,23.9,21.1,31.6
		c2.2,2.4,2.8,8.1,3,15.9h34.6l0.1-11.9c0-0.5,0.1-0.9,0.3-1.3c0.5-0.9,1.6-1.9,3.5-3.5c1-0.8,2-1.7,2.4-2.2
		C135.5,154.3,135.3,145.5,135.1,137.9z"/>
	<circle fill="none" cx="98.5" cy="98.5" r="98.5"/>
</g>
</svg>
