<svg xmlns="http://www.w3.org/2000/svg" xmlns:xlink="http://www.w3.org/1999/xlink" preserveAspectRatio="xMidYMid" width="114.719" height="100.12" viewBox="0 0 114.719 100.12">
  <defs>
    <style>
      .cls-1 {
        fill: #cdd1d8;
        fill-rule: evenodd;
      }
    </style>
  </defs>
  <path d="M100.956,100.120 L13.750,100.120 C6.168,100.120 -0.000,93.995 -0.000,86.467 L-0.000,31.365 C-0.000,23.837 6.168,17.712 13.750,17.712 L13.874,17.712 L13.874,15.622 C13.874,13.519 15.596,11.808 17.714,11.808 L23.660,11.808 C25.777,11.808 27.500,13.519 27.500,15.622 L27.500,17.712 L35.675,17.712 L35.675,9.718 C35.675,4.360 40.065,0.001 45.461,0.001 L69.245,0.001 C74.641,0.001 79.031,4.360 79.031,9.718 L79.031,17.712 L87.206,17.712 L87.206,15.622 C87.206,13.519 88.929,11.808 91.046,11.808 L96.992,11.808 C99.110,11.808 100.832,13.519 100.832,15.622 L100.832,17.712 L100.956,17.712 C108.538,17.712 114.706,23.837 114.706,31.365 L114.706,86.467 C114.706,93.995 108.538,100.120 100.956,100.120 ZM23.783,15.622 C23.783,15.554 23.728,15.499 23.660,15.499 L17.714,15.499 C17.646,15.499 17.590,15.554 17.590,15.622 L17.590,17.712 L23.783,17.712 L23.783,15.622 ZM75.314,9.718 C75.314,6.395 72.592,3.691 69.245,3.691 L45.461,3.691 C42.114,3.691 39.391,6.395 39.391,9.718 L39.391,17.712 L43.603,17.712 L43.603,9.718 C43.603,8.699 44.435,7.873 45.461,7.873 L69.245,7.873 C70.271,7.873 71.103,8.699 71.103,9.718 L71.103,17.712 L75.314,17.712 L75.314,9.718 ZM47.319,11.563 L47.319,17.712 L67.387,17.712 L67.387,11.563 L47.319,11.563 ZM97.116,15.622 C97.116,15.554 97.060,15.499 96.992,15.499 L91.046,15.499 C90.978,15.499 90.922,15.554 90.922,15.622 L90.922,17.712 L97.116,17.712 L97.116,15.622 ZM110.990,31.365 C110.990,25.872 106.489,21.402 100.956,21.402 L13.750,21.402 C8.217,21.402 3.716,25.872 3.716,31.365 L3.716,86.467 C3.716,91.961 8.217,96.430 13.750,96.430 L100.956,96.430 C106.489,96.430 110.990,91.961 110.990,86.467 L110.990,31.365 ZM98.974,80.440 L15.732,80.440 C14.705,80.440 13.874,79.614 13.874,78.595 C13.874,77.577 14.705,76.751 15.732,76.751 L98.974,76.751 C100.000,76.751 100.832,77.577 100.832,78.595 C100.832,79.614 100.000,80.440 98.974,80.440 ZM98.974,60.761 L15.732,60.761 C14.705,60.761 13.874,59.935 13.874,58.916 C13.874,57.897 14.705,57.071 15.732,57.071 L98.974,57.071 C100.000,57.071 100.832,57.897 100.832,58.916 C100.832,59.935 100.000,60.761 98.974,60.761 ZM98.974,41.082 L15.732,41.082 C14.705,41.082 13.874,40.256 13.874,39.237 C13.874,38.218 14.705,37.392 15.732,37.392 L98.974,37.392 C100.000,37.392 100.832,38.218 100.832,39.237 C100.832,40.256 100.000,41.082 98.974,41.082 Z" class="cls-1"/>
</svg>
