<svg version="1.1" id="Layer_1" xmlns="http://www.w3.org/2000/svg" xmlns:xlink="http://www.w3.org/1999/xlink" x="0px" y="0px"
	 viewBox="0 0 197.1 197.1" enable-background="new 0 0 197.1 197.1" xml:space="preserve" width="200" height="200">
<g>
	<circle fill="#70D1DA" cx="98.5" cy="98.5" r="98.5"/>
	<g>
		<polygon fill="#FFFFFF" points="55.4,77 150.3,77 141.7,33.8 46.7,33.8 		"/>
		<polygon fill="#EAEAEA" points="46.7,120.1 141.7,120.1 150.3,77 55.4,77 		"/>
		<path fill="#FFFFFF" d="M55.4,160.2c-0.2,0-0.4,0-0.6,0.1l-8-40.1h95l8,40.1c-1.4,0.3-2.5,1.5-2.5,3h-2.4c0-1.7-1.4-3.1-3.1-3.1
			c-1.7,0-3.1,1.4-3.1,3.1h-2.4c0-1.7-1.4-3.1-3.1-3.1c-1.7,0-3.1,1.4-3.1,3.1h-2.4c0-1.7-1.4-3.1-3.1-3.1s-3.1,1.4-3.1,3.1h-2.4
			c0-1.7-1.4-3.1-3.1-3.1c-1.7,0-3.1,1.4-3.1,3.1h-2.4c0-1.7-1.4-3.1-3.1-3.1c-1.7,0-3.1,1.4-3.1,3.1h-2.4c0-1.7-1.4-3.1-3.1-3.1
			c-1.7,0-3.1,1.4-3.1,3.1H93c0-1.7-1.4-3.1-3.1-3.1c-1.7,0-3.1,1.4-3.1,3.1h-2.4c0-1.7-1.4-3.1-3.1-3.1c-1.7,0-3.1,1.4-3.1,3.1
			h-2.4c0-1.7-1.4-3.1-3.1-3.1c-1.7,0-3.1,1.4-3.1,3.1h-2.4c0-1.7-1.4-3.1-3.1-3.1c-1.7,0-3.1,1.4-3.1,3.1h-2.4
			C58.5,161.6,57.1,160.2,55.4,160.2z"/>
		<g>
			<path fill="#70D1DA" d="M139.6,55.4c0,0.4-0.4,0.6-0.9,0.6H58.4c-0.5,0-0.9-0.3-0.9-0.6c0-0.4,0.4-0.6,0.9-0.6h80.3
				C139.2,54.7,139.6,55,139.6,55.4z"/>
			<g>
				<g>
					<path fill="#70D1DA" d="M141.3,89.9c0,0.4-0.4,0.6-0.9,0.6H60.1c-0.5,0-0.9-0.3-0.9-0.6c0-0.4,0.4-0.6,0.9-0.6h80.3
						C140.9,89.3,141.3,89.6,141.3,89.9z"/>
				</g>
			</g>
			<g>
				<g>
					<path fill="#70D1DA" d="M143,81.3c0,0.4-0.4,0.6-0.9,0.6H61.8c-0.5,0-0.9-0.3-0.9-0.6c0-0.4,0.4-0.6,0.9-0.6h80.3
						C142.6,80.6,143,80.9,143,81.3z"/>
				</g>
			</g>
			<g>
				<g>
					<path fill="#70D1DA" d="M139.6,98.5c0,0.4-0.4,0.6-0.9,0.6H58.4c-0.5,0-0.9-0.3-0.9-0.6c0-0.4,0.4-0.6,0.9-0.6h80.3
						C139.2,97.9,139.6,98.2,139.6,98.5z"/>
				</g>
			</g>
			<path fill="#70D1DA" d="M139.6,128.8c0,0.4-0.4,0.6-0.9,0.6H58.4c-0.5,0-0.9-0.3-0.9-0.6c0-0.4,0.4-0.6,0.9-0.6h80.3
				C139.2,128.1,139.6,128.4,139.6,128.8z"/>
			<g>
				<g>
					<path fill="#70D1DA" d="M80.3,49.2V40h0.9v9.2H80.3z"/>
					<path fill="#70D1DA" d="M87.4,49.2l-3.2-7.6h0v7.6h-0.9V40h1.1l3.2,7.6h0V40h0.8v9.2H87.4z"/>
					<path fill="#70D1DA" d="M93,49.2h-1.2L89.6,40h1l1.9,8.1h0l1.9-8.1h1L93,49.2z"/>
					<path fill="#70D1DA" d="M102.1,44.6c0,0.7-0.1,1.4-0.2,2c-0.1,0.6-0.3,1.1-0.6,1.5c-0.3,0.4-0.6,0.8-0.9,1
						c-0.4,0.2-0.8,0.3-1.3,0.3c-0.5,0-0.9-0.1-1.3-0.3c-0.4-0.2-0.7-0.6-1-1c-0.3-0.4-0.5-0.9-0.6-1.5c-0.1-0.6-0.2-1.2-0.2-2
						c0-0.7,0.1-1.4,0.2-1.9c0.1-0.6,0.3-1.1,0.6-1.5c0.3-0.4,0.6-0.7,1-1c0.4-0.2,0.8-0.4,1.3-0.4c0.5,0,0.9,0.1,1.3,0.4
						c0.4,0.2,0.7,0.6,0.9,1c0.3,0.4,0.5,0.9,0.6,1.5C102,43.2,102.1,43.9,102.1,44.6z M101.1,44.6c0-0.6,0-1.1-0.1-1.6
						s-0.2-0.9-0.4-1.3c-0.2-0.4-0.4-0.6-0.7-0.8c-0.3-0.2-0.6-0.3-0.9-0.3c-0.4,0-0.7,0.1-0.9,0.3c-0.3,0.2-0.5,0.5-0.7,0.8
						c-0.2,0.4-0.3,0.8-0.4,1.3s-0.1,1-0.1,1.6c0,0.6,0,1.1,0.1,1.6c0.1,0.5,0.2,0.9,0.4,1.3c0.2,0.4,0.4,0.6,0.7,0.9
						c0.3,0.2,0.6,0.3,0.9,0.3c0.3,0,0.6-0.1,0.9-0.3c0.3-0.2,0.5-0.5,0.6-0.9c0.2-0.4,0.3-0.8,0.4-1.3
						C101.1,45.6,101.1,45.1,101.1,44.6z"/>
					<path fill="#70D1DA" d="M103.8,49.2V40h0.9v9.2H103.8z"/>
					<path fill="#70D1DA" d="M110.8,49.1c-0.4,0.2-0.8,0.3-1.3,0.3c-0.5,0-0.9-0.1-1.3-0.4c-0.4-0.2-0.7-0.6-1-1
						c-0.3-0.4-0.5-0.9-0.6-1.5c-0.1-0.6-0.2-1.2-0.2-1.9c0-0.7,0.1-1.3,0.2-1.9c0.1-0.6,0.3-1.1,0.6-1.5c0.3-0.4,0.6-0.8,1-1
						s0.8-0.4,1.3-0.4c0.4,0,0.8,0.1,1.2,0.3c0.4,0.2,0.7,0.5,0.9,0.9l-0.6,0.6c-0.2-0.3-0.4-0.5-0.7-0.7c-0.3-0.1-0.5-0.2-0.8-0.2
						c-0.4,0-0.7,0.1-1,0.3c-0.3,0.2-0.5,0.5-0.7,0.9c-0.2,0.4-0.3,0.8-0.4,1.3c-0.1,0.5-0.1,1-0.1,1.5c0,0.5,0,1.1,0.1,1.5
						c0.1,0.5,0.2,0.9,0.4,1.3c0.2,0.4,0.4,0.7,0.7,0.9c0.3,0.2,0.6,0.3,1,0.3c0.3,0,0.6-0.1,0.9-0.3c0.3-0.2,0.5-0.4,0.7-0.7
						l0.6,0.6C111.5,48.5,111.1,48.8,110.8,49.1z"/>
					<path fill="#70D1DA" d="M113,49.2V40h3.7v0.8h-2.8V44h2.6v0.8h-2.6v3.6h2.9v0.8H113z"/>
				</g>
			</g>
			<g>
				<g>
					<g>
						<path fill="#70D1DA" d="M132.9,144.5c0,0.9-1.4,1.5-1.6,2.3c-0.2,0.8,0.6,2.1,0.2,2.8c-0.4,0.7-2,0.6-2.6,1.2
							c-0.6,0.6-0.5,2.1-1.2,2.6c-0.7,0.4-2-0.4-2.8-0.2c-0.8,0.2-1.5,1.6-2.3,1.6c-0.9,0-1.5-1.4-2.3-1.6c-0.8-0.2-2.1,0.6-2.8,0.2
							c-0.7-0.4-0.6-2-1.2-2.6c-0.6-0.6-2.1-0.5-2.6-1.2c-0.4-0.7,0.4-2,0.2-2.8c-0.2-0.8-1.6-1.5-1.6-2.3c0-0.9,1.4-1.5,1.6-2.3
							c0.2-0.8-0.6-2.1-0.2-2.8c0.4-0.7,2-0.6,2.6-1.2c0.6-0.6,0.5-2.1,1.2-2.6c0.7-0.4,2,0.4,2.8,0.2c0.8-0.2,1.5-1.6,2.3-1.6
							c0.9,0,1.5,1.4,2.3,1.6c0.8,0.2,2.1-0.6,2.8-0.2c0.7,0.4,0.6,2,1.2,2.6c0.6,0.6,2.1,0.5,2.6,1.2c0.4,0.7-0.4,2-0.2,2.8
							C131.5,143,132.9,143.6,132.9,144.5z"/>
					</g>
				</g>
				<path fill="#FFFFFF" d="M122.5,152.5c-4.4,0-8-3.6-8-8c0-4.4,3.6-8,8-8c4.4,0,8,3.6,8,8C130.5,148.9,126.9,152.5,122.5,152.5z"
					/>
				<g>
					<g>
						<path fill="#70D1DA" d="M122.5,149.9c-3,0-5.4-2.4-5.4-5.4c0-3,2.4-5.4,5.4-5.4c3,0,5.4,2.4,5.4,5.4
							C127.9,147.5,125.5,149.9,122.5,149.9z"/>
					</g>
				</g>
			</g>
			<g>
				<g>
					<path fill="#70D1DA" d="M70.2,137c2.3,4.6,4.1,9.5,5,14.6c0.2,1.3,0.4,2.7,0.4,4.1c0,0,0.1,0,0.1,0c-0.5-1.8-0.6-3.6-0.6-5.5
						c0.1-1.9,0.3-3.9,1.1-5.7c0.2-0.5,0.5-1.1,0.8-1.5c0,0-0.1,0-0.1,0c0.6,0.7,1.1,1.6,1.6,2.4c0.5,0.8,1,1.7,1.8,2.3
						c0,0,0.1,0,0.1,0c0.3-1.6,0.3-3.3,0.3-4.9c0,0-0.1,0-0.1,0c0.6,0.9,1.5,1.7,2.1,2.6c0,0,0.1,0,0.1,0c-0.3-0.8,0-1.7,0-2.6
						c0,0,0,0-0.1,0c0.7,0.2,1.6,0.2,2.2-0.4c0.6-0.7,0.6-1.7,0.5-2.5c0,0,0,0-0.1,0c2.1-0.1,4.3-0.4,6.3-0.9
						c2.1-0.6,4.2-1.4,6.1-2.5c0,0,0,0-0.1,0c-1.9,1-4,1.9-6.1,2.5c-2.1,0.5-4.2,0.8-6.3,0.9c0,0-0.1,0-0.1,0
						c0.1,0.8,0.1,1.6-0.3,2.3c-0.5,0.7-1.4,0.7-2.2,0.5c0,0-0.1,0-0.1,0c0,0.9-0.3,1.7,0,2.6c0,0,0.1,0,0.1,0
						c-0.6-0.9-1.5-1.7-2.1-2.6c0,0-0.1,0-0.1,0c0,1.6,0,3.3-0.3,4.9c0,0,0.1,0,0.1,0c-0.7-0.6-1.3-1.4-1.8-2.2
						c-0.5-0.8-1-1.7-1.6-2.5c0,0-0.1,0-0.1,0c-1,1.4-1.4,3.3-1.7,5c-0.3,1.9-0.3,3.9,0,5.8c0.1,0.6,0.2,1.3,0.4,1.9
						c0,0,0.1,0,0.1,0c-0.2-5.1-1.7-10.1-3.7-14.8C71.5,139.5,70.9,138.3,70.2,137C70.2,137,70.1,137,70.2,137L70.2,137z"/>
				</g>
			</g>
			<path fill="#70D1DA" d="M136.1,111.5c0-0.4-0.4-0.6-0.9-0.6H96c-0.5,0-0.9,0.3-0.9,0.6c0,0.4,0.4,0.6,0.9,0.6h39.3
				C135.7,112.1,136.1,111.9,136.1,111.5z"/>
			<path fill="#70D1DA" d="M103.7,72.6c0-0.4-0.4-0.6-0.9-0.6H63.6c-0.5,0-0.9,0.3-0.9,0.6c0,0.4,0.4,0.6,0.9,0.6h39.3
				C103.3,73.3,103.7,73,103.7,72.6z"/>
			<path fill="#70D1DA" d="M102,64c0-0.4-0.4-0.6-0.9-0.6H61.8c-0.5,0-0.9,0.3-0.9,0.6s0.4,0.6,0.9,0.6h39.3
				C101.6,64.7,102,64.4,102,64z"/>
		</g>
	</g>
</g>
</svg>
