<svg version="1.1" id="Layer_1" xmlns="http://www.w3.org/2000/svg" xmlns:xlink="http://www.w3.org/1999/xlink" x="0px" y="0px"
	 viewBox="0 0 197.1 197.1" enable-background="new 0 0 197.1 197.1" xml:space="preserve" width="200" height="200">
<g>
	<circle fill="#70D1DA" cx="98.5" cy="98.5" r="98.5"/>
	<path fill="#FFFFFF" d="M83.4,111.8H59.6c-2.3,0-4.2,1.9-4.2,4.2v23.8c0,2.3,1.9,4.2,4.2,4.2h23.8c2.3,0,4.2-1.9,4.2-4.2V116
		C87.6,113.7,85.8,111.8,83.4,111.8z M75.8,132.6c-4.7,5.7-6.1,8.5-6.1,8.5s-2.9-3.9-5.8-6.2c-2.9-2.3-5.7-3.7-5.7-3.7l7.6-4.6
		l3.7,7.1c0,0,1.6-5.3,6-11c4.3-5.7,8.9-8,8.9-8s-0.2,3.9-0.1,6.1c0.2,2.2,0.6,4.2,0.6,4.2S80.4,127,75.8,132.6z M83.4,52.3H59.6
		c-2.3,0-4.2,1.9-4.2,4.2v23.8c0,2.3,1.9,4.2,4.2,4.2h23.8c2.3,0,4.2-1.9,4.2-4.2V56.5C87.6,54.2,85.8,52.3,83.4,52.3z M75.8,73.1
		c-4.7,5.7-6.1,8.5-6.1,8.5s-2.9-3.9-5.8-6.2c-2.9-2.3-5.7-3.7-5.7-3.7l7.6-4.6l3.7,7.1c0,0,1.6-5.3,6-11c4.3-5.7,8.9-8,8.9-8
		s-0.2,3.9-0.1,6.1c0.2,2.2,0.6,4.2,0.6,4.2S80.4,67.5,75.8,73.1z M149.7,35.9H47.4c-3.8,0-7,3.1-7,7v111.3c0,3.8,3.1,7,7,7h102.3
		c3.8,0,7-3.1,7-7V42.9C156.7,39.1,153.5,35.9,149.7,35.9z M93.2,139.8c0,5.4-4.4,9.8-9.8,9.8H59.6c-5.4,0-9.8-4.4-9.8-9.8V116
		c0-5.4,4.4-9.8,9.8-9.8h23.8c5.4,0,9.8,4.4,9.8,9.8V139.8z M93.2,80.3c0,5.4-4.4,9.8-9.8,9.8H59.6c-5.4,0-9.8-4.4-9.8-9.8V56.5
		c0-5.4,4.4-9.8,9.8-9.8h23.8c5.4,0,9.8,4.4,9.8,9.8V80.3z M142.5,144.1h-37.3c-1.5,0-2.8-1.3-2.8-2.8s1.3-2.8,2.8-2.8h37.3
		c1.5,0,2.8,1.3,2.8,2.8S144,144.1,142.5,144.1z M142.5,133h-37.3c-1.5,0-2.8-1.3-2.8-2.8c0-1.5,1.3-2.8,2.8-2.8h37.3
		c1.5,0,2.8,1.3,2.8,2.8C145.3,131.7,144,133,142.5,133z M142.5,121.8h-37.3c-1.5,0-2.8-1.3-2.8-2.8s1.3-2.8,2.8-2.8h37.3
		c1.5,0,2.8,1.3,2.8,2.8S144,121.8,142.5,121.8z M142.5,84.7h-37.3c-1.5,0-2.8-1.3-2.8-2.8c0-1.5,1.3-2.8,2.8-2.8h37.3
		c1.5,0,2.8,1.3,2.8,2.8C145.3,83.4,144,84.7,142.5,84.7z M142.5,73.5h-37.3c-1.5,0-2.8-1.3-2.8-2.8c0-1.5,1.3-2.8,2.8-2.8h37.3
		c1.5,0,2.8,1.3,2.8,2.8C145.3,72.2,144,73.5,142.5,73.5z M142.5,62.3h-37.3c-1.5,0-2.8-1.3-2.8-2.8s1.3-2.8,2.8-2.8h37.3
		c1.5,0,2.8,1.3,2.8,2.8S144,62.3,142.5,62.3z"/>
</g>
</svg>
