<svg xmlns="http://www.w3.org/2000/svg" xmlns:xlink="http://www.w3.org/1999/xlink" preserveAspectRatio="xMidYMid" width="180" height="180" viewBox="0 0 180 180">
  <defs>
    <style>
      .cls-1 {
        fill: #cdd1d8;
        fill-rule: evenodd;
      }
    </style>
  </defs>
  <path d="M105.221,-0.000 L8.778,-0.000 C3.944,-0.000 -0.000,3.922 -0.000,8.729 L-0.000,76.270 C-0.000,81.078 3.944,85.000 8.778,85.000 L105.221,85.000 C110.056,85.000 114.000,81.078 114.000,76.270 L114.000,8.729 C114.000,3.922 110.056,-0.000 105.221,-0.000 ZM106.000,5.000 L58.000,47.000 L8.000,5.000 L106.000,5.000 ZM109.000,75.000 C109.000,76.243 107.622,80.000 104.000,80.000 L9.000,80.000 C5.773,80.000 5.000,76.243 5.000,75.000 L5.000,9.000 L55.485,52.569 C55.509,52.593 55.557,52.616 55.581,52.641 C55.605,52.664 55.653,52.688 55.677,52.712 C55.749,52.760 55.797,52.808 55.870,52.832 C55.894,52.856 55.918,52.856 55.942,52.879 C56.038,52.928 56.134,52.975 56.230,53.023 C56.254,53.023 56.278,53.047 56.302,53.047 C56.375,53.071 56.447,53.119 56.543,53.143 C56.567,53.143 56.615,53.167 56.639,53.167 C56.711,53.191 56.784,53.214 56.856,53.214 C56.880,53.214 56.928,53.238 56.952,53.238 C57.024,53.262 57.120,53.262 57.192,53.286 C57.216,53.286 57.240,53.286 57.264,53.286 C57.361,53.286 57.481,53.310 57.577,53.310 L57.577,53.310 L57.577,53.310 C57.673,53.310 57.794,53.310 57.890,53.286 C57.914,53.286 57.938,53.286 57.962,53.286 C58.034,53.286 58.130,53.262 58.202,53.238 C58.226,53.238 58.275,53.214 58.299,53.214 C58.371,53.191 58.443,53.167 58.515,53.167 C58.539,53.167 58.587,53.143 58.611,53.143 C58.684,53.119 58.756,53.095 58.852,53.047 C58.876,53.047 58.900,53.023 58.924,53.023 C59.020,52.975 59.116,52.928 59.213,52.879 C59.237,52.856 59.261,52.856 59.285,52.832 C59.357,52.784 59.405,52.760 59.477,52.712 C59.501,52.688 59.549,52.664 59.573,52.641 C59.597,52.616 59.646,52.593 59.670,52.569 L109.000,9.000 L109.000,75.000 Z" transform="translate(33 47.5)" class="cls-1"/>
</svg>
