<svg xmlns="http://www.w3.org/2000/svg" xmlns:xlink="http://www.w3.org/1999/xlink" preserveAspectRatio="xMidYMid" width="280.34" height="401" viewBox="0 0 280.34 401">
  <defs>
    <style>
      .cls-1 {
        fill: #cdd1d8;
        fill-rule: evenodd;
      }
    </style>
  </defs>
  <path d="M252.509,27.850 C237.155,27.850 224.663,15.355 224.663,-0.004 L231.527,-0.004 C231.527,11.568 240.939,20.984 252.509,20.984 C264.078,20.984 273.490,11.568 273.490,-0.004 L280.354,-0.004 C280.354,15.355 267.863,27.850 252.509,27.850 ZM225.333,84.490 L225.333,77.584 C240.775,77.584 253.339,90.152 253.339,105.599 C253.339,121.046 240.775,133.613 225.333,133.613 L225.333,126.708 C236.968,126.708 246.435,117.238 246.435,105.599 C246.435,93.959 236.968,84.490 225.333,84.490 ZM266.731,163.870 L275.159,163.870 C275.159,182.729 259.822,198.071 240.969,198.071 C222.116,198.071 206.778,182.729 206.778,163.870 L215.206,163.870 C215.206,178.080 226.763,189.641 240.969,189.641 C255.174,189.641 266.731,178.080 266.731,163.870 ZM170.913,91.986 C170.913,73.128 186.250,57.786 205.103,57.786 L205.103,66.216 C190.898,66.216 179.341,77.777 179.341,91.986 C179.341,106.196 190.898,117.756 205.103,117.756 L205.103,126.187 C186.250,126.187 170.913,110.844 170.913,91.986 ZM150.094,56.948 L150.094,50.082 C161.663,50.082 171.076,40.667 171.076,29.093 C171.076,17.521 161.663,8.106 150.094,8.106 L150.094,1.240 C165.448,1.240 177.939,13.735 177.939,29.093 C177.939,44.452 165.448,56.948 150.094,56.948 ZM110.950,122.760 L110.950,114.330 C125.156,114.330 136.713,102.769 136.713,88.559 C136.713,74.349 125.156,62.789 110.950,62.789 L110.950,54.359 C129.803,54.359 145.141,69.701 145.141,88.559 C145.141,107.417 129.803,122.760 110.950,122.760 ZM130.250,211.103 C118.681,211.103 109.268,220.515 109.268,232.084 C109.268,243.654 118.681,253.066 130.250,253.066 L130.250,259.930 C114.896,259.930 102.404,247.438 102.404,232.084 C102.404,216.731 114.896,204.240 130.250,204.240 L130.250,211.103 ZM69.785,60.375 C69.785,41.516 85.123,26.174 103.976,26.174 L103.976,34.604 C89.770,34.604 78.213,46.165 78.213,60.375 C78.213,74.584 89.770,86.145 103.976,86.145 L103.976,94.575 C85.123,94.575 69.785,79.233 69.785,60.375 ZM34.847,165.568 C15.994,165.568 0.656,150.226 0.656,131.367 C0.656,112.510 15.994,97.167 34.847,97.167 C53.700,97.167 69.038,112.510 69.038,131.367 C69.038,150.226 53.700,165.568 34.847,165.568 ZM34.847,105.597 C20.641,105.597 9.084,117.158 9.084,131.367 C9.084,145.577 20.641,157.138 34.847,157.138 C49.053,157.138 60.610,145.577 60.610,131.367 C60.610,117.158 49.053,105.597 34.847,105.597 ZM0.342,91.148 L0.342,82.718 C14.548,82.718 26.105,71.157 26.105,56.947 C26.105,42.738 14.548,31.178 0.342,31.178 L0.342,22.747 C19.195,22.747 34.533,38.089 34.533,56.947 C34.533,75.806 19.195,91.148 0.342,91.148 ZM27.835,223.977 C39.405,223.977 48.817,214.565 48.817,202.996 L55.681,202.996 C55.681,218.350 43.189,230.841 27.835,230.841 C12.481,230.841 -0.010,218.350 -0.010,202.996 L6.853,202.996 C6.853,214.565 16.266,223.977 27.835,223.977 ZM55.011,329.668 L55.011,336.571 C39.568,336.571 27.005,324.008 27.005,308.565 C27.005,293.123 39.568,280.560 55.011,280.560 L55.011,287.463 C43.376,287.463 33.908,296.930 33.908,308.565 C33.908,320.201 43.376,329.668 55.011,329.668 ZM39.375,392.581 C53.580,392.581 65.138,381.023 65.138,366.819 L73.565,366.819 C73.565,385.671 58.228,401.008 39.375,401.008 C20.522,401.008 5.184,385.671 5.184,366.819 L13.612,366.819 C13.612,381.023 25.169,392.581 39.375,392.581 ZM109.431,294.957 C109.431,313.809 94.093,329.147 75.241,329.147 L75.241,320.719 C89.446,320.719 101.003,309.162 101.003,294.957 C101.003,280.752 89.446,269.195 75.241,269.195 L75.241,260.767 C94.093,260.767 109.431,276.105 109.431,294.957 ZM129.882,349.724 C148.735,349.724 164.072,365.061 164.072,383.914 L155.645,383.914 C155.645,369.708 144.087,358.152 129.882,358.152 C115.676,358.152 104.119,369.708 104.119,383.914 L95.691,383.914 C95.691,365.061 111.029,349.724 129.882,349.724 ZM135.203,291.531 C135.203,272.679 150.541,257.341 169.393,257.341 L169.393,265.769 C155.188,265.769 143.631,277.326 143.631,291.531 C143.631,305.736 155.188,317.294 169.393,317.294 L169.393,325.721 C150.541,325.721 135.203,310.383 135.203,291.531 ZM124.699,180.971 L116.271,180.971 C116.271,162.112 131.609,146.770 150.462,146.770 C169.315,146.770 184.652,162.112 184.652,180.971 L176.224,180.971 C176.224,166.761 164.667,155.201 150.462,155.201 C136.256,155.201 124.699,166.761 124.699,180.971 ZM210.558,263.356 C210.558,282.208 195.221,297.545 176.368,297.545 L176.368,289.118 C190.574,289.118 202.131,277.560 202.131,263.356 C202.131,249.150 190.574,237.593 176.368,237.593 L176.368,229.166 C195.221,229.166 210.558,244.503 210.558,263.356 ZM245.497,300.136 C264.349,300.136 279.688,315.474 279.688,334.326 C279.688,353.178 264.349,368.516 245.497,368.516 C226.644,368.516 211.306,353.178 211.306,334.326 C211.306,315.474 226.644,300.136 245.497,300.136 ZM245.497,360.089 C259.702,360.089 271.260,348.531 271.260,334.326 C271.260,320.121 259.702,308.564 245.497,308.564 C231.291,308.564 219.734,320.121 219.734,334.326 C219.734,348.531 231.291,360.089 245.497,360.089 ZM280.002,285.692 L280.002,294.119 C261.149,294.119 245.811,278.782 245.811,259.929 C245.811,241.077 261.149,225.740 280.002,225.740 L280.002,234.168 C265.796,234.168 254.239,245.724 254.239,259.929 C254.239,274.135 265.796,285.692 280.002,285.692 Z" class="cls-1"/>
</svg>
