<svg xmlns="http://www.w3.org/2000/svg" xmlns:xlink="http://www.w3.org/1999/xlink" preserveAspectRatio="xMidYMid" width="280" height="363.59" viewBox="0 0 280 363.59">
  <defs>
    <style>
      .cls-1 {
        fill: #cdd1d8;
        fill-rule: evenodd;
      }
    </style>
  </defs>
  <path d="M262.981,315.244 L262.981,281.006 L279.996,281.006 L279.996,315.244 L262.981,315.244 ZM264.767,231.095 L264.767,196.857 L274.722,196.857 L274.722,231.095 L264.767,231.095 ZM263.416,36.464 L279.995,36.464 L279.995,67.817 L263.416,67.817 L263.416,36.464 ZM242.027,17.105 L258.605,17.105 L258.605,48.458 L242.027,48.458 L242.027,17.105 ZM225.933,41.935 L238.310,41.935 L238.310,73.287 L225.933,73.287 L225.933,41.935 ZM233.002,309.395 L215.987,309.395 L215.987,275.157 L233.002,275.157 L233.002,309.395 ZM195.916,198.317 L212.494,198.317 L212.494,229.636 L195.916,229.636 L195.916,198.317 ZM191.784,87.657 L208.799,87.657 L208.799,121.931 L191.784,121.931 L191.784,87.657 ZM183.389,39.395 L198.069,39.395 L198.069,67.070 L183.389,67.070 L183.389,39.395 ZM163.117,39.395 L177.797,39.395 L177.797,67.070 L163.117,67.070 L163.117,39.395 ZM144.791,87.657 L161.806,87.657 L161.806,121.931 L144.791,121.931 L144.791,87.657 ZM147.073,176.179 L136.837,176.179 L136.837,159.248 L147.073,159.248 L147.073,176.179 ZM118.194,275.157 L135.209,275.157 L135.209,309.395 L118.194,309.395 L118.194,275.157 ZM118.274,140.706 L131.716,140.706 L131.716,174.981 L118.274,174.981 L118.274,140.706 ZM113.295,10.734 L129.874,10.734 L129.874,42.087 L113.295,42.087 L113.295,10.734 ZM90.400,-0.001 L106.979,-0.001 L106.979,31.352 L90.400,31.352 L90.400,-0.001 ZM67.506,10.734 L84.084,10.734 L84.084,42.087 L67.506,42.087 L67.506,10.734 ZM46.998,87.657 L64.013,87.657 L64.013,121.931 L46.998,121.931 L46.998,87.657 ZM54.067,260.803 L41.690,260.803 L41.690,229.484 L54.067,229.484 L54.067,260.803 ZM23.501,87.657 L40.516,87.657 L40.516,121.931 L23.501,121.931 L23.501,87.657 ZM37.973,236.000 L21.395,236.000 L21.395,204.681 L37.973,204.681 L37.973,236.000 ZM0.004,93.512 L17.019,93.512 L17.019,127.786 L0.004,127.786 L0.004,93.512 ZM5.278,9.273 L15.233,9.273 L15.233,43.548 L5.278,43.548 L5.278,9.273 ZM16.584,255.338 L0.005,255.338 L0.005,224.019 L16.584,224.019 L16.584,255.338 ZM29.906,363.585 L16.464,363.585 L16.464,335.800 L29.906,335.800 L29.906,363.585 ZM48.468,351.517 L35.027,351.517 L35.027,317.279 L48.468,317.279 L48.468,351.517 ZM74.226,174.221 L60.784,174.221 L60.784,139.946 L74.226,139.946 L74.226,174.221 ZM88.216,309.395 L71.201,309.395 L71.201,275.157 L88.216,275.157 L88.216,309.395 ZM81.931,226.947 L96.611,226.947 L96.611,254.592 L81.931,254.592 L81.931,226.947 ZM102.203,226.947 L116.883,226.947 L116.883,254.592 L102.203,254.592 L102.203,226.947 ZM111.713,321.093 L94.698,321.093 L94.698,286.855 L111.713,286.855 L111.713,321.093 ZM143.163,363.585 L132.927,363.585 L132.927,346.673 L143.163,346.673 L143.163,363.585 ZM150.126,198.317 L166.705,198.317 L166.705,229.636 L150.126,229.636 L150.126,198.317 ZM161.726,362.389 L148.284,362.389 L148.284,328.150 L161.726,328.150 L161.726,362.389 ZM185.302,133.642 L168.287,133.642 L168.287,99.367 L185.302,99.367 L185.302,133.642 ZM189.600,218.912 L173.021,218.912 L173.021,187.593 L189.600,187.593 L189.600,218.912 ZM219.216,361.629 L205.774,361.629 L205.774,327.391 L219.216,327.391 L219.216,361.629 ZM231.532,129.823 L244.973,129.823 L244.973,164.098 L231.532,164.098 L231.532,129.823 ZM250.094,148.364 L263.536,148.364 L263.536,176.179 L250.094,176.179 L250.094,148.364 ZM256.499,309.395 L239.484,309.395 L239.484,275.157 L256.499,275.157 L256.499,309.395 Z" class="cls-1"/>
</svg>
