<svg xmlns="http://www.w3.org/2000/svg" xmlns:xlink="http://www.w3.org/1999/xlink" preserveAspectRatio="xMidYMid" width="282" height="368" viewBox="0 0 282 368">
  <defs>
    <style>
      .cls-1 {
        fill: #cdd1d8;
        fill-rule: evenodd;
      }
    </style>
  </defs>
  <path d="M249.137,4.816 L253.936,-0.000 L256.082,-0.000 L281.999,26.005 L276.126,31.897 L249.137,4.816 ZM215.226,75.309 L242.216,48.227 L248.088,54.119 L221.099,81.200 L215.226,75.309 ZM219.937,156.599 L213.793,156.599 L213.793,118.298 L219.937,118.298 L219.937,156.599 ZM188.750,28.898 L197.055,28.898 L197.055,67.197 L188.750,67.197 L188.750,28.898 ZM183.392,124.949 L156.402,97.866 L162.275,91.974 L189.264,119.057 L183.392,124.949 ZM154.370,-0.000 L155.665,-0.000 L155.018,0.649 L154.370,-0.000 ZM158.992,178.998 L150.687,178.998 L150.687,140.698 L158.992,140.698 L158.992,178.998 ZM155.534,264.531 L147.229,264.531 L147.229,226.231 L155.534,226.231 L155.534,264.531 ZM126.466,37.231 L134.771,37.231 L134.771,75.531 L126.466,75.531 L126.466,37.231 ZM126.982,189.649 L126.335,189.000 L127.630,189.000 L126.982,189.649 ZM92.736,308.057 L119.725,280.974 L125.598,286.866 L98.608,313.949 L92.736,308.057 ZM81.661,110.366 L87.534,104.474 L114.524,131.556 L108.651,137.448 L81.661,110.366 ZM55.478,2.911 L93.648,2.911 L93.648,11.244 L55.478,11.244 L55.478,2.911 ZM77.845,63.840 L50.854,90.923 L44.983,85.031 L71.972,57.948 L77.845,63.840 ZM8.546,110.366 L14.418,104.474 L41.408,131.556 L35.535,137.448 L8.546,110.366 ZM0.000,39.535 L5.872,33.644 L32.861,60.726 L26.989,66.618 L0.000,39.535 ZM28.064,189.000 L32.863,193.816 L5.874,220.897 L0.001,215.005 L25.918,189.000 L28.064,189.000 ZM47.282,316.211 L9.113,316.211 L9.113,307.878 L47.282,307.878 L47.282,316.211 ZM39.784,237.227 L66.774,264.309 L60.901,270.200 L33.912,243.119 L39.784,237.227 ZM31.257,163.320 L69.425,163.320 L69.425,171.653 L31.257,171.653 L31.257,163.320 ZM68.207,345.599 L62.063,345.599 L62.063,307.298 L68.207,307.298 L68.207,345.599 ZM93.250,256.197 L84.945,256.197 L84.945,217.898 L93.250,217.898 L93.250,256.197 ZM131.313,367.998 L123.008,367.998 L123.008,329.698 L131.313,329.698 L131.313,367.998 ZM200.339,299.366 L173.349,326.448 L167.476,320.556 L194.466,293.474 L200.339,299.366 ZM188.352,191.911 L226.522,191.911 L226.522,200.244 L188.352,200.244 L188.352,191.911 ZM237.017,274.031 L231.146,279.923 L204.155,252.840 L210.028,246.948 L237.017,274.031 ZM250.743,360.653 L212.575,360.653 L212.575,352.320 L250.743,352.320 L250.743,360.653 ZM240.592,320.556 L267.582,293.474 L273.454,299.366 L246.465,326.448 L240.592,320.556 ZM234.718,118.878 L272.887,118.878 L272.887,127.211 L234.718,127.211 L234.718,118.878 ZM282.000,228.535 L255.011,255.618 L249.139,249.726 L276.128,222.644 L282.000,228.535 Z" class="cls-1"/>
</svg>
