<svg xmlns="http://www.w3.org/2000/svg" xmlns:xlink="http://www.w3.org/1999/xlink" preserveAspectRatio="xMidYMid" width="116" height="116" viewBox="0 0 116 116">
  <defs>
    <style>
      .cls-1 {
        fill: #cdd1d8;
        fill-rule: evenodd;
      }
    </style>
  </defs>
  <path d="M99.075,98.590 C88.071,109.639 73.522,115.820 58.107,115.996 C57.900,115.999 57.692,116.000 57.485,116.000 C26.521,116.000 0.197,89.588 0.000,58.326 C-0.096,43.013 5.881,28.486 16.830,17.422 C27.883,6.253 42.539,0.066 58.098,0.001 L58.330,0.000 C73.436,0.000 87.810,6.074 98.801,17.103 C109.799,28.137 115.905,42.622 115.995,57.888 C116.085,73.091 110.076,87.545 99.075,98.590 ZM58.088,3.898 C57.491,3.898 56.885,3.908 56.287,3.927 C26.234,4.866 3.222,29.200 3.896,59.326 C4.724,89.391 27.919,112.059 57.850,112.060 C57.851,112.060 57.851,112.060 57.852,112.060 C58.567,112.060 59.295,112.046 60.014,112.019 C90.124,110.892 112.972,86.413 112.031,56.289 C111.097,26.422 87.907,3.898 58.088,3.898 ZM79.613,51.377 L79.570,51.376 C74.207,51.349 69.142,46.267 69.148,40.919 C69.154,35.457 74.164,30.483 79.659,30.483 L79.730,30.483 C82.283,30.503 84.914,31.696 86.949,33.757 C88.984,35.817 90.139,38.456 90.118,40.997 C90.074,46.332 84.969,51.377 79.613,51.377 ZM79.645,34.388 L79.612,34.388 C75.618,34.388 73.024,36.938 73.004,40.884 C72.994,42.854 73.602,44.508 74.763,45.668 C75.921,46.824 77.582,47.440 79.566,47.450 L79.616,47.450 C83.650,47.450 86.161,44.964 86.169,40.961 C86.176,36.920 83.676,34.401 79.645,34.388 ZM80.853,68.475 C81.093,68.037 81.311,67.590 81.523,67.158 C81.679,66.839 81.835,66.520 82.000,66.205 C82.455,65.333 83.104,64.853 83.827,64.853 C84.113,64.853 84.411,64.927 84.711,65.074 C85.260,65.342 85.642,65.760 85.788,66.253 C85.930,66.731 85.839,67.261 85.524,67.784 C85.158,68.393 84.797,69.010 84.436,69.629 C82.939,72.190 81.391,74.839 79.411,76.924 C73.453,83.201 65.998,86.129 55.951,86.138 C44.665,85.435 35.884,79.226 30.557,68.180 C30.169,67.375 30.068,66.651 30.266,66.086 C30.418,65.652 30.753,65.308 31.261,65.064 C31.568,64.917 31.867,64.842 32.148,64.842 C33.183,64.842 33.801,65.873 34.078,66.487 C37.525,74.151 43.355,79.158 51.405,81.371 C53.607,81.976 55.867,82.283 58.123,82.283 C67.485,82.283 76.195,76.992 80.853,68.475 ZM36.609,51.367 L36.556,51.367 C31.200,51.335 26.142,46.230 26.148,40.863 C26.154,35.525 31.239,30.478 36.611,30.478 L36.661,30.478 C42.113,30.510 47.093,35.477 47.110,40.899 C47.118,43.479 45.964,46.121 43.944,48.147 C41.904,50.194 39.231,51.367 36.609,51.367 ZM41.552,36.245 C40.390,35.049 38.737,34.410 36.771,34.397 L36.699,34.397 C32.621,34.397 30.153,36.790 30.098,40.798 C30.070,42.805 30.660,44.486 31.805,45.658 C32.936,46.816 34.571,47.439 36.533,47.458 L36.632,47.459 C40.635,47.459 43.174,45.003 43.259,41.050 C43.300,39.097 42.710,37.436 41.552,36.245 Z" class="cls-1"/>
</svg>
