<svg version="1.1" id="Layer_1" xmlns="http://www.w3.org/2000/svg" xmlns:xlink="http://www.w3.org/1999/xlink" x="0px" y="0px"
	 viewBox="0 0 115 115" style="enable-background:new 0 0 115 115;" xml:space="preserve">
<path fill="#CDD1D8" d="M96.7,82.3c-0.3,0.2-0.7,0.3-1,0.3c-0.4,0-0.7-0.1-1-0.3c-0.5-0.4-13.2-9.4-13.2-20.8c0-7.8,6.4-14.1,14.2-14.1
	c7.8,0,14.2,6.3,14.2,14.1C109.9,72.6,97.3,81.9,96.7,82.3z M95.7,51C89.8,51,85,55.7,85,61.5c0,7.8,7.8,14.8,10.6,17.1
	c2.9-2.4,10.7-9.5,10.7-17.1C106.3,55.7,101.6,51,95.7,51z M95.7,68.6c-3.9,0-7.1-3.2-7.1-7s3.2-7,7.1-7c1,0,1.8,0.8,1.8,1.8
	S96.7,58,95.7,58c-2,0-3.6,1.6-3.6,3.5c0,1.9,1.6,3.5,3.6,3.5s3.6-1.6,3.6-3.5c0-1,0.8-1.8,1.8-1.8s1.8,0.8,1.8,1.8
	C102.8,65.4,99.6,68.6,95.7,68.6z M94,43.7c-0.3,0.2-0.6,0.2-0.9,0.2c-0.6,0-1.2-0.3-1.5-0.9c-0.2-0.3-0.4-0.6-0.5-0.9h-6.8
	c0.6,1.5,1.2,3.1,1.7,4.8c0.3,0.9-0.2,1.9-1.2,2.2c-0.2,0.1-0.3,0.1-0.5,0.1c-0.8,0-1.5-0.5-1.7-1.2c-0.6-2-1.3-3.9-2.2-5.8H67.2
	c1.2,6.6,1.8,13.9,1.9,21.1h8.9c1,0,1.8,0.8,1.8,1.8s-0.8,1.8-1.8,1.8H69C69,73.4,68.4,80,67.4,86.1h13.6c1-2.4,1.7-4.9,2.4-7.4
	c0.2-0.9,1.2-1.5,2.1-1.3c1,0.2,1.5,1.2,1.3,2.1c-0.5,2.3-1.2,4.5-2,6.6H92c0.1-0.2,0.2-0.4,0.3-0.6c0.5-0.9,1.5-1.2,2.4-0.7
	c0.9,0.5,1.2,1.5,0.7,2.4c-8.3,15.6-24.6,25.3-42.4,25.3c-12.8,0-24.9-4.9-33.9-13.9S5.1,77.7,5.1,65c0-8.8,2.5-17.5,7.1-24.9
	c0.1-0.5,0.4-0.9,0.7-1.2c1-1.5,2-2.9,3.2-4.3c0.6-0.7,1.7-0.8,2.5-0.2c0.8,0.6,0.9,1.7,0.2,2.5c-0.5,0.6-0.9,1.1-1.4,1.7h6.7
	c0.3-0.1,0.5-0.1,0.8,0h14.6c1.5-7.1,3.8-13.3,6.7-17.1c-1.2,0.2-2.3,0.4-3.5,0.7c-1,0.2-1.9-0.4-2.1-1.3C40.4,20,41,19.1,42,18.8
	c3.6-0.8,7.3-1.3,11.1-1.3c8.6,0,17,2.3,24.3,6.5c6.3,3.7,11.7,8.8,15.8,14.9c0.4,0.3,0.7,0.7,0.7,1.1c0.2,0.4,0.5,0.8,0.7,1.2
	C95.1,42.1,94.8,43.2,94,43.7z M89.9,89.6h-6.4c-2.3,5.2-5.4,9.7-9.1,13.4c-0.4,0.4-0.9,0.8-1.3,1.2C79.8,100.9,85.6,95.9,89.9,89.6
	z M71.8,100.6c3-3,5.6-6.7,7.7-10.9H66.8c-1.5,7.6-3.7,14.1-6.6,18.2C64.4,106.5,68.3,104.1,71.8,100.6z M33,104.2
	c-1.9-1.7-3.6-3.6-5.2-5.8c-2-2.7-3.7-5.6-5.1-8.7h-6.4C20.5,95.8,26.2,100.8,33,104.2z M14.1,86.1h7.1c-2.2-6-3.5-12.5-3.6-19.3
	H8.7C9,73.8,10.9,80.3,14.1,86.1z M15.1,42.2C11.2,48.5,9,55.8,8.7,63.3h8.9c0.2-7.4,1.7-14.6,4.3-21.1H15.1z M40.9,56.4
	c-0.1,1-0.9,1.7-1.9,1.6c-1-0.1-1.7-0.9-1.7-1.9c0.3-4.7,0.8-9.5,1.6-14H25.8c-2.8,6.4-4.4,13.6-4.7,21.1h3.5c1,0,1.8,0.8,1.8,1.8
	s-0.8,1.8-1.8,1.8h-3.5c0.2,7,1.6,13.6,3.9,19.3h1.4c1,0,1.8,0.8,1.8,1.8c0,0.9-0.7,1.7-1.6,1.7c4.5,9,11.3,15.7,19.3,18.2
	c-1.1-1.6-2.3-3.7-3.3-6.5c-0.4-0.9,0.1-1.9,1-2.3c0.9-0.3,1.9,0.1,2.3,1c2.2,5.7,4.8,8.9,7.2,8.9c2.9,0,6-4.5,8.3-12.1
	c0.7-2.2,1.3-4.6,1.8-7.2h-6.6c-1,0-1.8-0.8-1.8-1.8s0.8-1.8,1.8-1.8h7.3c1-5.9,1.5-12.5,1.6-19.3h-8.9c-1,0-1.8-0.8-1.8-1.8
	s0.8-1.8,1.8-1.8h8.9c-0.1-7.5-0.7-14.7-1.9-21.1h-21C41.8,46.5,41.2,51.3,40.9,56.4z M53.1,21.1c-2.4,0-5.2,3.5-7.4,9.4
	c-0.9,2.4-1.7,5.1-2.4,8.2h19.6c-0.4-1.9-0.9-3.7-1.4-5.4C59,25.6,55.9,21.1,53.1,21.1z M60.3,22.2c2.7,3.8,4.7,9.6,6.2,16.5h12.2
	C74.1,30.4,67.6,24.6,60.3,22.2z M75.6,27.2c-0.8-0.5-1.6-0.9-2.4-1.3c3.7,3.4,6.9,7.7,9.5,12.8h6C85.1,34,80.6,30.1,75.6,27.2z
	 M41.7,96.3c-0.3,0.2-0.7,0.3-1,0.3c-0.4,0-0.7-0.1-1-0.3c-0.5-0.4-13.2-9.4-13.2-20.8c0-7.8,6.4-14.1,14.2-14.1s14.2,6.3,14.2,14.1
	C54.8,86.7,42.2,96,41.7,96.3z M40.6,65C34.8,65,30,69.8,30,75.6c0,7.8,7.8,14.8,10.6,17.1c2.9-2.4,10.7-9.5,10.7-17.1
	C51.3,69.8,46.5,65,40.6,65z M40.6,82.6c-3.9,0-7.1-3.2-7.1-7s3.2-7,7.1-7c1,0,1.8,0.8,1.8,1.8c0,1-0.8,1.8-1.8,1.8
	c-2,0-3.6,1.6-3.6,3.5c0,1.9,1.6,3.5,3.6,3.5s3.6-1.6,3.6-3.5c0-1,0.8-1.8,1.8-1.8c1,0,1.8,0.8,1.8,1.8
	C47.7,79.5,44.5,82.6,40.6,82.6z M25.7,34.8c-0.3,0.2-0.7,0.3-1,0.3c-0.4,0-0.7-0.1-1-0.3c-0.5-0.4-13.2-9.4-13.2-20.8
	C10.4,6.3,16.8,0,24.6,0s14.2,6.3,14.2,14.1C38.9,25.2,26.2,34.4,25.7,34.8z M24.6,3.5C18.8,3.5,14,8.2,14,14.1
	c0,7.8,7.8,14.8,10.6,17.1c2.9-2.4,10.7-9.5,10.7-17.1C35.3,8.2,30.5,3.5,24.6,3.5z M17.5,14.1c0-3.9,3.2-7,7.1-7
	c1,0,1.8,0.8,1.8,1.8s-0.8,1.8-1.8,1.8c-2,0-3.6,1.6-3.6,3.5c0,1.9,1.6,3.5,3.6,3.5s3.6-1.6,3.6-3.5c0-1,0.8-1.8,1.8-1.8
	c1,0,1.8,0.8,1.8,1.8c0,3.9-3.2,7-7.1,7S17.5,17.9,17.5,14.1z"/>
</svg>
