<svg xmlns="http://www.w3.org/2000/svg" xmlns:xlink="http://www.w3.org/1999/xlink" preserveAspectRatio="xMidYMid" width="180" height="180" viewBox="0 0 180 180">
  <defs>
    <style>
      .cls-1 {
        fill: #cdd1d8;
        fill-rule: evenodd;
      }
    </style>
  </defs>
  <path d="M111.262,68.534 L111.375,68.804 C113.117,72.969 114.000,77.393 114.000,81.954 C114.000,100.727 98.798,116.000 80.111,116.000 C78.386,116.000 76.981,114.587 76.981,112.851 C76.981,111.114 78.386,109.701 80.111,109.701 C95.346,109.701 107.739,97.254 107.739,81.954 C107.739,77.868 106.873,73.929 105.164,70.249 C104.882,69.641 104.800,68.946 104.932,68.291 C105.576,65.086 105.903,61.809 105.903,58.553 C105.903,31.771 84.213,9.982 57.551,9.982 C55.038,9.982 52.508,10.179 50.031,10.566 C49.867,10.592 49.704,10.604 49.544,10.604 C48.019,10.604 46.692,9.459 46.456,7.940 C46.190,6.223 47.362,4.610 49.068,4.342 C51.860,3.905 54.714,3.684 57.551,3.684 C87.665,3.684 112.164,28.298 112.164,58.553 C112.164,61.785 111.878,65.046 111.313,68.245 L111.262,68.534 ZM57.264,33.724 C60.420,33.724 63.185,34.085 65.483,34.797 C67.745,35.506 69.644,36.454 71.121,37.612 C72.586,38.763 73.662,39.969 74.319,41.199 C74.967,42.407 75.295,43.589 75.295,44.713 C75.295,45.635 74.940,46.454 74.211,47.219 C73.494,47.968 72.619,48.332 71.537,48.332 C70.988,48.332 69.979,48.254 69.387,47.727 C68.821,47.226 68.204,46.391 67.499,45.174 C66.488,43.237 65.215,41.661 63.735,40.527 C62.176,39.338 59.825,38.760 56.546,38.760 C53.557,38.760 51.092,39.386 49.219,40.620 C47.210,41.944 46.192,43.599 46.192,45.541 C46.192,46.757 46.562,47.830 47.290,48.730 C47.968,49.556 48.890,50.265 50.034,50.842 C51.095,51.378 52.201,51.808 53.318,52.118 C54.356,52.409 56.068,52.831 58.549,53.407 C61.563,54.060 64.282,54.775 66.644,55.538 C68.976,56.284 70.990,57.203 72.635,58.272 C74.200,59.300 75.438,60.613 76.310,62.173 C77.181,63.725 77.621,65.679 77.621,67.982 C77.621,70.727 76.843,73.226 75.307,75.410 C73.763,77.607 71.449,79.360 68.433,80.622 C65.358,81.903 61.648,82.552 57.407,82.552 C52.325,82.552 48.093,81.671 44.828,79.931 C42.554,78.699 40.676,77.027 39.252,74.965 C37.860,72.945 37.154,70.977 37.154,69.115 C37.154,68.186 37.498,67.411 38.206,66.745 C38.942,66.048 39.828,65.725 40.997,65.725 C41.889,65.725 42.646,65.983 43.248,66.494 C43.914,67.062 44.502,67.941 44.996,69.107 C45.712,70.754 46.495,72.145 47.329,73.252 C48.217,74.431 49.466,75.410 51.042,76.160 C52.606,76.904 54.656,77.281 57.133,77.281 C60.538,77.281 63.365,76.528 65.534,75.043 C67.826,73.470 68.987,71.454 68.987,69.052 C68.987,67.138 68.334,65.554 67.044,64.339 C65.849,63.217 64.305,62.355 62.455,61.778 C60.679,61.224 58.331,60.639 55.477,60.042 C51.729,59.235 48.543,58.278 46.013,57.198 C43.586,56.161 41.642,54.739 40.234,52.970 C38.866,51.247 38.172,49.059 38.172,46.467 C38.172,44.004 38.913,41.783 40.374,39.866 C41.856,37.927 44.048,36.409 46.890,35.355 C49.795,34.273 53.285,33.724 57.264,33.724 ZM33.891,6.299 C26.521,6.299 19.585,9.189 14.360,14.436 C9.137,19.683 6.261,26.647 6.261,34.046 C6.261,38.720 7.447,43.347 9.691,47.429 C10.043,48.069 10.163,48.818 10.028,49.537 C9.477,52.478 9.197,55.511 9.197,58.553 C9.197,85.334 30.888,107.122 57.551,107.122 C60.276,107.122 63.024,106.889 65.716,106.428 C65.894,106.398 66.070,106.384 66.245,106.384 C67.772,106.384 69.068,107.486 69.325,109.006 C69.616,110.718 68.467,112.348 66.764,112.640 C63.727,113.157 60.627,113.420 57.551,113.420 C27.436,113.420 2.935,88.806 2.935,58.553 C2.935,55.611 3.169,52.661 3.628,49.786 L3.679,49.471 L3.538,49.185 C1.223,44.508 -0.000,39.273 -0.000,34.046 C-0.000,15.273 15.203,-0.000 33.891,-0.000 C35.617,-0.000 37.021,1.412 37.021,3.149 C37.021,4.886 35.617,6.299 33.891,6.299 Z" transform="translate(33 32)" class="cls-1"/>
</svg>
