<svg xmlns="http://www.w3.org/2000/svg" xmlns:xlink="http://www.w3.org/1999/xlink" preserveAspectRatio="xMidYMid" width="106.13" height="108.78" viewBox="0 0 106.13 108.78">
  <defs>
    <style>
      .cls-1 {
        fill: #cdd1d8;
        fill-rule: evenodd;
      }
    </style>
  </defs>
  <path d="M97.065,39.708 L91.649,39.708 L91.574,44.803 C91.566,45.412 91.249,45.975 90.734,46.299 C90.443,46.482 90.111,46.574 89.778,46.574 C89.521,46.574 89.263,46.519 89.022,46.408 L74.590,39.708 L66.882,39.708 C61.879,39.708 57.809,35.634 57.809,30.626 L57.809,9.069 C57.809,4.062 61.879,-0.012 66.882,-0.012 L97.066,-0.012 C102.069,-0.012 106.139,4.062 106.138,9.069 L106.138,30.626 C106.138,35.634 102.068,39.708 97.065,39.708 ZM102.545,9.069 C102.545,6.045 100.087,3.585 97.066,3.585 L66.882,3.585 C63.860,3.585 61.402,6.045 61.402,9.069 L61.402,30.627 C61.402,33.651 63.860,36.112 66.882,36.112 L74.987,36.112 C75.248,36.112 75.506,36.169 75.743,36.279 L88.022,41.979 L88.083,37.883 C88.097,36.900 88.897,36.111 89.879,36.111 L97.066,36.111 C100.087,36.111 102.545,33.651 102.545,30.626 L102.545,9.069 ZM86.076,22.241 C86.053,22.255 86.026,22.270 85.999,22.286 C84.402,23.201 83.450,24.879 83.509,26.669 C83.541,27.662 82.764,28.493 81.772,28.526 C81.752,28.527 81.732,28.527 81.712,28.527 C80.747,28.527 79.949,27.760 79.917,26.788 C79.815,23.667 81.454,20.751 84.195,19.176 C85.437,18.398 86.177,17.065 86.177,15.603 C86.177,13.283 84.291,11.396 81.974,11.396 C79.656,11.396 77.771,13.283 77.771,15.603 C77.771,16.596 76.966,17.402 75.974,17.402 C74.981,17.402 74.177,16.596 74.177,15.603 C74.177,11.300 77.675,7.799 81.974,7.799 C86.273,7.799 89.770,11.300 89.771,15.603 C89.771,18.325 88.389,20.806 86.076,22.241 ZM81.722,30.321 C82.194,30.321 82.658,30.513 82.991,30.846 C83.327,31.182 83.518,31.645 83.518,32.120 C83.518,32.592 83.326,33.055 82.991,33.390 C82.658,33.726 82.194,33.918 81.722,33.918 C81.250,33.918 80.785,33.726 80.449,33.390 C80.117,33.055 79.925,32.592 79.925,32.120 C79.925,31.645 80.117,31.182 80.449,30.846 C80.785,30.513 81.247,30.321 81.722,30.321 ZM85.058,55.113 L85.058,91.860 C85.058,96.868 80.988,100.942 75.985,100.942 L30.866,100.942 L14.341,108.613 C14.100,108.725 13.842,108.780 13.586,108.780 C13.174,108.780 12.767,108.639 12.438,108.365 C11.904,107.922 11.673,107.211 11.844,106.538 L13.266,100.942 L9.090,100.942 C4.087,100.942 0.017,96.868 0.017,91.860 L0.017,55.113 C0.017,50.106 4.087,46.031 9.090,46.031 L75.985,46.031 C80.988,46.031 85.058,50.105 85.058,55.113 ZM3.610,55.113 L3.610,91.860 C3.610,94.884 6.068,97.345 9.090,97.345 L15.577,97.345 C16.132,97.345 16.655,97.601 16.996,98.040 C17.336,98.478 17.456,99.049 17.319,99.587 L16.259,103.758 L29.714,97.512 C29.951,97.402 30.209,97.345 30.470,97.345 L75.985,97.345 C79.006,97.345 81.465,94.884 81.465,91.860 L81.465,55.113 C81.465,52.089 79.006,49.628 75.985,49.628 L9.090,49.628 C6.068,49.628 3.610,52.089 3.610,55.113 ZM71.523,89.912 L13.551,89.912 C12.559,89.912 11.755,89.107 11.755,88.113 C11.755,87.120 12.559,86.315 13.551,86.315 L71.523,86.315 C72.516,86.315 73.320,87.120 73.320,88.113 C73.320,89.107 72.516,89.912 71.523,89.912 ZM71.523,80.000 L13.551,80.000 C12.559,80.000 11.755,79.195 11.755,78.202 C11.755,77.209 12.559,76.404 13.551,76.404 L71.523,76.404 C72.516,76.404 73.320,77.209 73.320,78.202 C73.320,79.195 72.516,80.000 71.523,80.000 ZM71.523,70.090 L13.551,70.090 C12.559,70.090 11.755,69.284 11.755,68.291 C11.755,67.298 12.559,66.493 13.551,66.493 L71.523,66.493 C72.516,66.493 73.320,67.298 73.320,68.291 C73.320,69.284 72.516,70.090 71.523,70.090 ZM71.523,60.179 L13.551,60.179 C12.559,60.179 11.755,59.374 11.755,58.380 C11.755,57.387 12.559,56.582 13.551,56.582 L71.523,56.582 C72.516,56.582 73.320,57.387 73.320,58.380 C73.320,59.374 72.516,60.179 71.523,60.179 Z" class="cls-1"/>
</svg>
