<svg version="1.1" id="Layer_1" xmlns="http://www.w3.org/2000/svg" xmlns:xlink="http://www.w3.org/1999/xlink" x="0px" y="0px"
	 viewBox="0 0 115 115" style="enable-background:new 0 0 115 115;" xml:space="preserve">
<path fill="#CDD1D8" d="M93.4,114.5H21.6c-1.2,0-2.1-1-2.1-2.1V67.6c0-9.4,7-14.2,14.5-19.3l0.1-0.1c2.7-1.9,5.5-3.8,8.2-6
	c4.7-3.9,9.1-11,11.6-15.3h-7.2c-1.2,0-2.1-1-2.1-2.1v-8c0-1.2,1-2.1,2.1-2.1h8.7v-2.9l-10-7.4c-0.7-0.5-1-1.5-0.8-2.4
	c0.3-0.9,1.1-1.5,2-1.5h21.6c0.9,0,1.7,0.6,2,1.5c0.3,0.9,0,1.8-0.8,2.4l-10,7.4v2.9h8.7c1.2,0,2.1,1,2.1,2.1v8c0,1.2-1,2.1-2.1,2.1
	H61c2.1,3.8,6.7,11.5,11.7,15.7c2.8,2.4,5.7,4.3,8.6,6.2c7.3,4.9,14.2,9.5,14.2,18.7v44.8C95.5,113.5,94.5,114.5,93.4,114.5z
	 M61.9,4.8h-8.7L57.5,8L61.9,4.8z M66.2,22.7v-3.8H48.8v3.8H66.2z M91.2,67.6c0-6.9-5.4-10.6-12.3-15.2c-3-2-6-4-9-6.5
	c-5.3-4.5-9.9-12-12.5-16.5c-2.6,4.5-7.3,11.8-12.4,16.1c-2.9,2.4-5.8,4.4-8.7,6.4c-7.1,4.8-12.6,8.6-12.6,15.8v42.6h67.4V67.6z
	 M46.7,77.4h21.6c1.2,0,2.1,1,2.1,2.1v22.8c0,1.2-1,2.1-2.1,2.1H46.7c-1.2,0-2.1-1-2.1-2.1V79.5C44.5,78.3,45.5,77.4,46.7,77.4z
	 M48.8,100.1h17.3V81.6H48.8V100.1z M57.5,74.6c-1.4,0-2.7-0.2-4-0.6c-6.8-2.2-10.5-9.5-8.3-16.2c1.7-5.3,6.7-8.9,12.3-8.9
	c1.4,0,2.7,0.2,4,0.6c3.3,1.1,6,3.3,7.5,6.4c1.6,3.1,1.8,6.6,0.8,9.8C68.1,71,63.1,74.6,57.5,74.6z M65.2,57.8
	c-1.1-2.1-2.8-3.6-5-4.3c-0.9-0.3-1.8-0.4-2.7-0.4c-3.8,0-7.1,2.4-8.2,6c-1.5,4.5,1,9.4,5.6,10.9c0.9,0.3,1.8,0.4,2.7,0.4
	c3.8,0,7.1-2.4,8.2-6C66.5,62.2,66.3,59.8,65.2,57.8z"/>
</svg>
