<svg xmlns="http://www.w3.org/2000/svg" xmlns:xlink="http://www.w3.org/1999/xlink" preserveAspectRatio="xMidYMid" width="180" height="180" viewBox="0 0 180 180">
  <defs>
    <style>
      .cls-1 {
        fill: #cdd1d8;
        fill-rule: evenodd;
      }
    </style>
  </defs>
  <path d="M70.972,82.119 C69.517,82.782 67.945,83.118 66.304,83.118 C64.569,83.118 62.765,82.744 60.943,82.007 C52.053,78.404 44.272,73.364 37.818,67.027 C31.429,60.600 26.348,52.856 22.725,44.021 C21.278,40.485 21.239,37.042 22.611,34.064 C24.025,30.997 26.800,28.697 30.635,27.413 C31.496,27.126 32.357,26.980 33.194,26.980 C34.060,26.980 34.923,27.136 35.757,27.445 C37.005,27.901 39.208,29.422 42.634,34.081 C45.294,37.696 46.814,40.703 46.915,42.547 C47.111,46.344 44.331,48.232 42.996,49.140 C42.523,49.461 41.973,49.630 41.403,49.630 C40.467,49.630 39.594,49.173 39.068,48.409 C38.645,47.793 38.487,47.051 38.625,46.318 C38.763,45.582 39.182,44.943 39.805,44.521 C40.581,43.993 40.852,43.733 40.988,43.583 L41.377,43.155 L41.199,42.604 C40.432,40.225 35.781,33.968 33.880,32.757 L33.739,32.668 L33.576,32.628 C33.450,32.598 33.323,32.584 33.189,32.584 C32.961,32.584 32.716,32.628 32.439,32.720 C30.819,33.263 28.693,34.340 27.746,36.395 C26.849,38.340 27.365,40.470 27.956,41.915 C31.298,50.065 35.961,57.183 41.814,63.072 C47.727,68.876 54.877,73.500 63.076,76.823 C64.206,77.280 65.290,77.510 66.301,77.510 C67.137,77.510 67.916,77.349 68.615,77.031 C70.685,76.087 71.768,73.970 72.311,72.361 C72.460,71.923 72.489,71.560 72.403,71.219 L72.364,71.059 L72.274,70.920 C71.059,69.030 64.764,64.406 62.369,63.644 L61.829,63.472 L61.403,63.848 C61.253,63.982 60.990,64.249 60.453,65.029 C59.927,65.794 59.054,66.250 58.118,66.250 C57.549,66.250 56.998,66.081 56.525,65.759 C55.903,65.336 55.484,64.698 55.347,63.963 C55.209,63.231 55.366,62.488 55.790,61.871 C56.661,60.604 58.476,57.965 62.049,57.965 C62.172,57.965 62.297,57.968 62.425,57.975 C64.285,58.075 67.316,59.587 70.956,62.232 C75.644,65.639 77.176,67.833 77.636,69.074 C78.242,70.698 78.251,72.402 77.665,74.142 C76.373,77.954 74.059,80.712 70.972,82.119 ZM72.653,46.745 C72.653,47.493 72.361,48.195 71.829,48.724 C71.296,49.254 70.587,49.546 69.831,49.546 L69.830,49.546 C68.274,49.546 67.008,48.290 67.008,46.746 C67.007,40.922 62.241,36.183 56.385,36.182 C54.828,36.182 53.562,34.926 53.562,33.382 C53.563,31.839 54.829,30.583 56.386,30.583 C65.354,30.584 72.652,37.834 72.653,46.745 ZM56.385,17.220 C64.324,17.220 71.786,20.292 77.397,25.870 C83.008,31.447 86.098,38.861 86.097,46.747 C86.097,48.291 84.831,49.547 83.274,49.547 C81.718,49.547 80.451,48.290 80.451,46.746 C80.451,40.353 77.947,34.344 73.400,29.825 C68.854,25.308 62.813,22.820 56.388,22.820 C54.830,22.820 53.563,21.564 53.562,20.020 C53.562,18.477 54.828,17.220 56.385,17.220 ZM97.141,87.676 C90.160,94.286 79.933,98.135 64.954,99.788 C64.850,99.800 64.745,99.805 64.641,99.805 L46.760,99.805 L34.313,112.177 C33.779,112.708 33.070,113.000 32.315,113.000 C31.560,113.000 30.850,112.708 30.317,112.177 C29.785,111.649 29.492,110.947 29.492,110.200 C29.492,109.453 29.785,108.751 30.317,108.221 L43.591,95.028 C44.116,94.505 44.845,94.206 45.589,94.206 L64.483,94.206 L64.539,94.200 C91.751,91.148 102.353,80.766 102.353,57.171 L102.353,42.023 C102.353,30.889 99.367,22.565 93.223,16.575 C85.748,9.291 73.375,5.598 56.447,5.598 C55.660,5.598 54.861,5.606 54.054,5.622 C13.744,6.410 5.646,20.134 5.646,42.023 L5.646,57.171 C5.646,71.542 13.329,88.058 27.567,90.357 C28.315,90.477 28.970,90.881 29.410,91.492 C29.846,92.097 30.020,92.834 29.900,93.568 C29.678,94.931 28.509,95.922 27.123,95.922 C26.971,95.922 26.817,95.909 26.662,95.884 C9.158,93.058 -0.000,74.270 -0.000,57.171 L-0.000,42.023 C-0.000,27.503 3.840,17.609 12.084,10.884 C20.687,3.865 33.988,0.414 53.943,0.024 C54.764,0.008 55.575,-0.000 56.378,-0.000 C74.885,-0.000 88.613,4.233 97.180,12.582 C104.359,19.579 108.000,29.485 108.000,42.023 L108.000,57.170 C108.000,70.782 104.448,80.760 97.141,87.676 Z" transform="translate(36 33.5)" class="cls-1"/>
</svg>
