<?xml version="1.0" encoding="utf-8"?>
<!-- Generator: Adobe Illustrator 20.1.0, SVG Export Plug-In . SVG Version: 6.00 Build 0)  -->
<!DOCTYPE svg PUBLIC "-//W3C//DTD SVG 1.1//EN" "http://www.w3.org/Graphics/SVG/1.1/DTD/svg11.dtd">
<svg version="1.1" id="Layer_1" xmlns="http://www.w3.org/2000/svg" xmlns:xlink="http://www.w3.org/1999/xlink" x="0px" y="0px"
	 viewBox="0 0 282.4 140" enable-background="new 0 0 282.4 140" xml:space="preserve">
<g>
	<path fill="#2C353C" d="M128.9,50.4l-1.5-1.7c12.3-10.9,26.1-20,41-27.1l1,2.1C154.7,30.7,141,39.6,128.9,50.4z"/>
	<path fill="#2C353C" d="M144.1,44.8l-1.4-1.9c5.9-4.3,12.2-8.4,18.6-11.9l1.1,2C156.1,36.6,149.9,40.6,144.1,44.8z"/>
	<g>
		<path fill="#CBEAEF" d="M103,99.4c-3.8-7.9-7.8-12.3-10.1-22.8c8.8-9.6,14.7-22.8,18.5-34c3.8-11.2,5.6-20.5,6.1-22.4
			C119.7,41.3,113.7,92.3,103,99.4z"/>
		<path fill="#B0E0E4" d="M95.9,85.8c2.1,4.8,4.7,8.5,7.1,13.6c8.1-5.4,13.6-36.4,14.7-60.1C115.3,57.5,109.1,79.5,95.9,85.8z"/>
		<path fill="#B0E0E4" d="M19.8,67.7C33.6,87.4,47.7,99.1,59,106c-3.2-6.9-6.7-15.2-7.9-20C41.4,83,30.9,76.9,19.8,67.7z"/>
		<g>
			<path fill="#2C353C" d="M68,113.1l-7.3-3.7c-11.8-6-47.5-29.7-57.1-59L0,39.5l8,8c15.7,15.7,30.2,25.5,43.1,29.1h2l0.3,2.3
				c0.6,4.4,6,16.7,10.9,26.7L68,113.1z M14.7,61.2c10.3,16.6,28.4,31.1,41,39c-3-6.5-6.1-14-7.3-18.7C38,78.4,26.7,71.6,14.7,61.2z
				"/>
		</g>
		<path fill="#3AC3DC" d="M102.9,103.1c-9.4,10-21.3,13.2-34.3,9.1C80.5,126.6,99,135,119.6,135c10.7,0,20.8-2.4,28.6-6.6
			c-0.9,0-1.7,0.1-2.6,0.1C129.3,128.4,116.4,120.8,102.9,103.1z"/>
		<path fill="#00A5CD" d="M122.7,132.4c-13.8-3.1-25.7-10.1-34.5-19.8c-6.1,1.9-12.7,1.8-19.7-0.4C80.5,126.6,99,135,119.6,135
			c4.4,0,8.6-0.4,12.7-1.2C129.1,133.5,125.9,133.1,122.7,132.4z"/>
		<path opacity="0.6" fill="#2274A8" d="M109.8,111.2c-2.3-2.4-4.6-5.2-6.9-8.2c-9.4,10-21.3,13.2-34.3,9.1c2.9,3.6,6.3,6.7,10,9.5
			C88.9,121.8,101.1,119.8,109.8,111.2z"/>
		<g>
			<path fill="#2C353C" d="M119.7,140c-3.5,0-7.1-0.2-10.7-0.7c-21.3-2.9-38.8-13.9-49.4-30.9l-5.1-8.3l8.7,4.4
				c15,7.6,27.7,5.3,37.8-6.8l2.2-2.7l2.1,2.8c16,21.9,30.4,28.7,51.5,24.4l9.6-2l-7.2,6.6C149.8,135.3,135.4,140,119.7,140z
				 M69.7,112.9c12.9,15.1,30.2,19.6,40.1,21c13.3,1.8,26.6-0.2,36.7-5.1c-16.7,0.3-30-7.5-43.6-25.1
				C95.7,111.1,84.9,117.3,69.7,112.9z"/>
		</g>
		<g>
			<path fill="#2C353C" d="M102.4,104.4l-1.8-3.8c-4.3-9.1-10.4-22.3-12.6-32.7l-0.3-1.4l0.9-1c7.1-7.8,13.1-18.9,17.9-33
				c3.1-9.1,4.9-17.1,5.6-20.5c0.2-0.8,0.3-1.4,0.4-1.7L115.1,0l2.7,10.2c5.3,20,5.6,68.8-12.7,90.9L102.4,104.4z M93.5,68
				c2,8.1,6.3,18.1,10,26C115,76.4,116.8,45,114.7,24.3c-0.8,3-1.8,6.4-3,9.9C106.8,48.4,100.7,59.8,93.5,68z"/>
		</g>
		<path fill="#CBEAEF" d="M66.8,51.1c-0.5,0-1,0.1-1.5,0.2c-4,1-6.2,6.1-4.9,11.2c1.3,5,5.7,8.5,9.7,7.4c1.9-0.5,3.4-1.9,4.3-3.9
			c1-2.2,1.2-4.8,0.5-7.4C73.8,54.3,70.4,51.1,66.8,51.1z"/>
		<path fill="#2C353C" d="M67,76.8c-7.4,0-14-5.8-16.2-14c-2.5-9.7,2.2-19.3,10.5-21.4c1.1-0.3,2.3-0.4,3.4-0.4
			c7.4,0,14,5.8,16.2,14c1.2,4.6,0.8,9.3-1,13.3c-2,4.2-5.3,7.1-9.5,8.2C69.3,76.6,68.2,76.8,67,76.8z M64.8,47.4
			c-0.6,0-1.2,0.1-1.8,0.2c-4.8,1.3-7.4,7.3-5.8,13.5c1.4,5.3,5.5,9.1,9.9,9.1c0.6,0,1.2-0.1,1.8-0.2c2.2-0.6,4.1-2.2,5.2-4.6
			c1.2-2.6,1.4-5.8,0.6-8.9C73.3,51.3,69.1,47.4,64.8,47.4z"/>
	</g>
	<g>
		<g>
			<path fill="#2C353C" d="M159.3,61.4h10.5l6.4,40.6h-9.3l-1.4-8.2h-11.9l-3.9,8.2h-10.1L159.3,61.4z M164.7,86l-1.8-13L157,86
				H164.7z"/>
			<path fill="#2C353C" d="M186.2,72.6l2.2,19.4l5.8-12.6c0.7-1.5,1.6-3.6,1.9-6.8h8.5c0.5,2.5,0,5.1-0.9,7.4l-0.7,1.6l1.9,10.4
				l5.9-12.6c0.7-1.5,1.6-3.6,1.9-6.8h8.5c0.7,3.7-0.7,7.5-2,9.9L209.1,102h-10.2l-1.8-9.8l-4.4,9.8h-10.9l-5.1-29.4H186.2z"/>
			<path fill="#2C353C" d="M236.9,72c4.4-0.1,10.8,0.7,13.6,3.4l-3.9,26.5h-7.1l-1.4-2.9c-1.4,2.1-5.1,3.3-8.4,3.3
				c-5.5,0-9.8-5.4-7.4-17.1C224.7,73,231.4,72.2,236.9,72z M233.6,94.9c2.8,0,4.3-1.1,5.4-2.8l1.8-12.6c-1.2-0.5-3.2-0.7-4.6-0.4
				c-2.1,0.5-4.1,1.2-5,7.5C230.5,91.4,230.4,94.9,233.6,94.9z"/>
			<path fill="#2C353C" d="M262.3,72.6l1.2,19.7c0.2,2,1.8,2.1,2.5,2.2l6.3-15.1c0.6-1.5,1.1-3.6,1.4-6.8h8.6
				c0.7,3.7-0.5,7.5-1.6,10l-8.5,19.5c-6.3,14.3-14.9,15.7-18.8,16.4V112c5.1-2.6,7.6-5.9,9.7-10c-5.2,0-7.9-2.9-8.3-8l-1.9-21.4
				H262.3z"/>
		</g>
		<g>
			<path fill="#2C353C" d="M182.2,35.8c1.2-7.3,6.2-9.3,11-9.3c0,0,12.2,0.2,17,0.9L209,35h-14.7c-2.8,0-3.2,1.6-3.4,3.1l-0.7,4.6
				l14.8,0.6l-1.2,7.5l-15,0.5l-2.5,15.8h-9.1L182.2,35.8z"/>
			<path fill="#2C353C" d="M208.6,37.6h9.1l-3.1,19.4c-0.5,2.8,0.5,3.5,2.1,3.5c2.6,0,4.3-0.7,6.1-2.3l3.3-20.6h9.1l-4.7,29.4H223
				l-1.1-3c-2.7,2.1-4.9,3.5-9.4,3.5c-7.2,0-7.9-4.7-7-10.7L208.6,37.6z"/>
			<path fill="#2C353C" d="M238.5,37.6h7.5l1.2,3c2.5-1.8,4.9-3.5,9.4-3.5c7.2,0,7.9,4.8,7,10.7l-3.1,19.3h-9.1l3.1-19.4
				c0.4-2.7-0.4-3.5-2-3.5c-2.6,0-4.3,0.7-6.1,2.3l-3.3,20.6h-9.1L238.5,37.6z"/>
		</g>
	</g>
</g>
</svg>
